<?xml version="1.0" standalone="no"?>
<!DOCTYPE svg PUBLIC "-//W3C//DTD SVG 1.1//EN" "http://www.w3.org/Graphics/SVG/1.1/DTD/svg11.dtd" >
<svg xmlns="http://www.w3.org/2000/svg">
<metadata></metadata>
<defs>
<font id="sukhumvit_settext" horiz-adv-x="0" >
<font-face units-per-em="2048" ascent="1638" descent="-410" />
<missing-glyph horiz-adv-x="529" />
<glyph unicode="fi" horiz-adv-x="1106" d="M345 1058v55q-1 327 264 327q127 -1 217 -60l52 128q-94 70 -257 70q-211 0 -327 -121.5t-116 -336.5v-62h-147v-129h147v-929h169v929h433v-929h167v1058h-602z" />
<glyph unicode="fl" horiz-adv-x="1106" d="M947 0v1512q-123 66 -299 66q-226 0 -350 -130q-120 -128 -120 -344v-46h-147v-129h147v-929h169v929h251v129h-253v57q0 329 276 329q104 0 159 -28v-1416h167z" />
<glyph />
<glyph />
<glyph unicode="&#xd;" horiz-adv-x="426" />
<glyph unicode=" "  horiz-adv-x="529" />
<glyph unicode="&#x09;" horiz-adv-x="529" />
<glyph unicode="&#xa0;" horiz-adv-x="529" />
<glyph unicode="!" horiz-adv-x="485" d="M175 414h134l26 1063h-186zM360 101q0 54 -33 89.5t-84 35.5q-50 0 -83 -35.5t-33 -89.5q0 -58 33.5 -92t80.5 -34q49 0 84 33t35 93z" />
<glyph unicode="&#x22;" horiz-adv-x="713" d="M149 1002h106l32 512h-170zM460 1002h105l33 512h-171z" />
<glyph unicode="#" horiz-adv-x="1053" d="M800 999l55 425h-119l-54 -425h-230l54 425h-115l-58 -425h-204v-116h189l-44 -331h-195v-115h178l-58 -437h121l57 437h228l-57 -437h119l56 437h204v115h-187l42 331h193v116h-175zM393 552l44 331h227l-41 -331h-230z" />
<glyph unicode="$" horiz-adv-x="1090" d="M924 410q0 135 -76.5 227.5t-251.5 169.5q-158 66 -212 120q-58 55 -58 140q0 87 64 143.5t173 56.5q137 0 265 -75l50 127q-109 72 -273 77v214h-122v-221q-147 -24 -233.5 -116.5t-86.5 -229.5q0 -123 80.5 -209t271.5 -165q246 -101 246 -274q0 -102 -73.5 -165 t-192.5 -63q-166 0 -300 92l-51 -127q129 -96 323 -97v-221h125v228q150 25 241 126t91 242z" />
<glyph unicode="%" horiz-adv-x="1682" d="M366 -29h111l836 1480h-112zM715 1023q0 194 -83 310t-233 116q-147 0 -242 -125q-90 -119 -90 -320q0 -197 87.5 -312t232.5 -115q154 0 240 123q88 124 88 323zM583 1014q0 -335 -188 -335q-91 0 -141.5 90.5t-50.5 240.5q0 141 52 236q54 97 138 97q190 0 190 -329z M1615 434q0 195 -83.5 309t-232.5 114t-241 -123q-90 -121 -90 -320q0 -196 88 -312.5t230 -116.5q150 0 238 123q91 128 91 326zM1481 425q0 -335 -188 -335q-87 0 -138 90t-51 241q0 141 51 237t138 96q188 -2 188 -329z" />
<glyph unicode="&#x26;" horiz-adv-x="1281" d="M1278 0l-239 257q140 173 203 540h-153q-43 -289 -140 -442q-170 193 -374 434v8q324 165 324 395q0 140 -88 225q-87 84 -221 84q-157 0 -259 -102q-101 -101 -101 -257q0 -150 123 -314v-6q-286 -163 -286 -431q0 -176 125 -298q120 -118 314 -118q247 0 427 174 l100 -105q33 -36 43 -44h202zM751 1183q0 -85 -56 -152.5t-197 -147.5q-113 146 -113 274q0 101 53.5 163t138.5 62q77 0 125.5 -54t48.5 -145zM851 247q-126 -142 -314 -142q-129 0 -217 85q-90 87 -90 224q0 189 199 316q190 -219 254 -290q126 -144 168 -193z" />
<glyph unicode="'" horiz-adv-x="402" d="M149 1002h106l32 512h-170z" />
<glyph unicode="(" horiz-adv-x="606" d="M431 -265h136q-280 391 -280 890q0 525 280 898h-136q-289 -380 -289 -898q0 -517 289 -890z" />
<glyph unicode=")" horiz-adv-x="606" d="M464 629q0 521 -289 894h-135q280 -385 280 -892q0 -511 -280 -896h135q289 383 289 894z" />
<glyph unicode="*" horiz-adv-x="889" d="M500 1157l201 276l-120 68l-134 -300h-4l-138 298l-123 -71l199 -265v-4l-316 35v-136l318 40v-7l-201 -265l113 -72l144 302h4l134 -300l126 72l-203 261v7l326 -38v136z" />
<glyph unicode="+" horiz-adv-x="1305" d="M717 644v522h-127v-522h-502v-118h502v-526h127v526h502v118h-502z" />
<glyph unicode="," horiz-adv-x="431" d="M360 259l-191 -23q-42 -273 -127 -508l121 13q107 186 197 518z" />
<glyph unicode="-" horiz-adv-x="663" d="M65 657v-126h533v126h-533z" />
<glyph unicode="." horiz-adv-x="431" d="M351 103q0 54 -33 90.5t-84 36.5q-52 0 -86.5 -36.5t-34.5 -90.5t34.5 -91t82.5 -37q54 0 87.5 36t33.5 92z" />
<glyph unicode="/" horiz-adv-x="746" d="M-6 -88h133l627 1589h-136z" />
<glyph unicode="0" horiz-adv-x="1090" d="M1012 728q0 335 -117 526q-119 195 -336 195q-222 0 -353 -206q-127 -202 -127 -535q0 -336 121 -530q124 -203 333 -203q232 0 355.5 194.5t123.5 558.5zM841 719q0 -295 -77.5 -452.5t-222.5 -157.5q-136 0 -217 167q-79 160 -79 429q0 271 81 439q81 171 218 171 q297 0 297 -596z" />
<glyph unicode="1" horiz-adv-x="1090" d="M529 1424l-299 -164l33 -129l247 134v-1265h163v1424h-144z" />
<glyph unicode="2" horiz-adv-x="1090" d="M331 140v4l110 109q238 230 364 406q133 193 133 382q0 183 -116 296q-117 112 -301 112q-215 0 -385 -143l54 -116q59 48 135 80.5t154 38t143.5 -17t107 -92.5t41.5 -180q0 -159 -133 -337q-116 -154 -397 -435l-145 -144v-103h879v140h-644z" />
<glyph unicode="3" horiz-adv-x="1090" d="M947 401q0 143 -85.5 241t-228.5 129v5q262 96 262 335q0 151 -109 246q-108 92 -286 92q-212 -2 -353 -110l48 -120q128 92 274 92q119 0 186.5 -58.5t67.5 -167.5q0 -113 -95 -183q-96 -72 -229 -72h-98v-127h98q164 0 267 -77q108 -83 108 -220q0 -133 -87.5 -213 t-239.5 -80q-173 0 -307 86l-48 -126q137 -98 353 -98q220 0 364 121q66 56 102 135t36 170z" />
<glyph unicode="4" horiz-adv-x="1090" d="M841 529v895h-172l-638 -918v-109h653v-397h157v397h202v132h-202zM684 1249h8q-8 -117 -8 -221v-499h-481l364 512q103 176 117 208z" />
<glyph unicode="5" horiz-adv-x="1090" d="M941 460q0 201 -138 323t-358 122q-63 0 -117 -8l59 385h531v142h-653l-92 -665q90 15 195 15q403 0 403 -333q0 -148 -98 -238q-98 -92 -242 -92q-168 0 -295 82l-46 -130q125 -88 339 -88q224 0 367 138q145 140 145 347z" />
<glyph unicode="6" horiz-adv-x="1090" d="M1016 475q0 208 -116 333q-119 125 -304 125q-222 1 -343 -172h-6q28 239 197 392t415 153h24l-2 141q-191 0 -343 -66.5t-256 -187.5q-101 -118 -154 -275.5t-53 -338.5q0 -275 133 -439q134 -165 351 -165q198 0 329 145q128 142 128 355zM846 464q0 -163 -78.5 -260 t-204.5 -97q-148 0 -234 119q-88 118 -88 313q0 108 106 191q97 75 201 75q139 0 218.5 -90.5t79.5 -250.5z" />
<glyph unicode="7" horiz-adv-x="1090" d="M125 1424v-140h690l-608 -1284h170l614 1313v111h-866z" />
<glyph unicode="8" horiz-adv-x="1090" d="M1008 385q0 259 -285 374v6q235 111 235 337q0 152 -114 250q-113 97 -283 97q-178 0 -301 -104q-124 -105 -124 -271q0 -215 228 -320v-7q-281 -129 -281 -390q0 -165 132 -273q131 -109 326 -109q198 0 332 116q64 54 99.5 130t35.5 164zM800 1085q0 -193 -223 -272 q-276 75 -276 276q0 106 71 171.5t180 65.5q115 0 181.5 -65t66.5 -176zM841 368q0 -117 -85 -194q-79 -73 -208 -73t-210 76q-83 77 -83 200q-1 232 266 315q320 -96 320 -324z" />
<glyph unicode="9" horiz-adv-x="1090" d="M1014 851q0 273 -122 434q-126 164 -331 164q-100 0 -187 -40t-151 -111q-131 -143 -131 -351q0 -190 112 -310q117 -127 296 -127q211 0 339 161h4q-34 -259 -190 -407q-156 -147 -381 -147h-31q-10 0 -32 2v-140h23q364 0 577 241q205 232 205 631zM846 868 q0 -103 -102 -169q-88 -59 -205 -59q-127 0 -203.5 86t-76.5 230q0 154 79 259q76 102 206 102q148 0 225 -117.5t77 -331.5z" />
<glyph unicode=":" horiz-adv-x="431" d="M351 887q0 57 -33 92t-84 35q-52 0 -84.5 -35t-32.5 -92t33 -90.5t80 -33.5q51 0 86 33t35 91zM349 101q0 56 -33 91.5t-84 35.5q-52 0 -85.5 -35.5t-33.5 -91.5q0 -57 34 -91.5t81 -34.5q51 0 86 34t35 92z" />
<glyph unicode=";" horiz-adv-x="431" d="M368 887q2 56 -30.5 91.5t-84.5 35.5q-54 0 -86.5 -35t-32.5 -92t33.5 -90.5t81.5 -33.5t83.5 33.5t35.5 90.5zM360 259l-191 -23q-42 -273 -127 -508l121 13q107 186 197 518z" />
<glyph unicode="&#x3c;" horiz-adv-x="1305" d="M291 581v4l868 443v138l-1012 -530v-105l1012 -531v138z" />
<glyph unicode="=" horiz-adv-x="1305" d="M88 863v-120h1131v120h-1131zM88 437v-119h1131v119h-1131z" />
<glyph unicode="&#x3e;" horiz-adv-x="1305" d="M147 1166v-138l872 -443v-4l-872 -443v-138l1012 526v114z" />
<glyph unicode="?" horiz-adv-x="860" d="M763 1186q0 144 -97 230q-101 87 -256 87q-186 0 -299 -85l49 -121q86 66 214 66q216 0 216 -197q0 -118 -156 -313q-135 -169 -135 -343v-22q0 -10 2 -24l6 -54h149l-2 57v24q0 165 123 311q109 132 149 215q37 77 37 169zM495 101q0 56 -33 91.5t-85 35.5 q-51 0 -84.5 -36.5t-33.5 -90.5q0 -55 34 -90.5t81 -35.5q54 0 87.5 34.5t33.5 91.5z" />
<glyph unicode="@" horiz-adv-x="1581" d="M1499 876q0 275 -172 450q-175 177 -446 177q-166 0 -311.5 -63.5t-252.5 -179.5q-108 -116 -167.5 -272t-59.5 -333q0 -146 47.5 -270.5t136.5 -216.5q189 -195 466 -195q225 0 385 88l-34 90q-138 -78 -328 -78q-246 0 -401 163q-155 161 -155 428q0 157 49.5 293.5 t138.5 238.5q89 101 209.5 156t258.5 55q241 0 384 -151q138 -147 138 -397q0 -167 -69 -289q-70 -123 -166 -123q-85 0 -85 125q0 36 16 127l76 399q-102 44 -226 44q-108 0 -202.5 -42.5t-166.5 -117.5q-70 -73 -109 -168.5t-39 -195.5q0 -117 66 -194q63 -77 164 -77 q195 0 312 194h6v-15q0 -88 44 -133.5t114 -45.5q161 0 271 148q108 148 108 381zM1019 1019l-51 -258q-19 -118 -105 -214q-85 -93 -171 -93q-146 0 -146 169q0 85 30 160q60 153 193 221q113 56 250 15z" />
<glyph unicode="A" horiz-adv-x="1298" d="M749 1477h-193l-499 -1477h171l157 477h527l162 -477h175zM423 609l149 443q25 68 74 269h5q51 -200 77 -271l148 -441h-453z" />
<glyph unicode="B" horiz-adv-x="1148" d="M1058 418q0 139 -83.5 239t-220.5 134v4q115 42 182.5 129.5t67.5 197.5q0 177 -132 271.5t-377 94.5q-177 0 -328 -31v-1455q125 -15 280 -15q310 0 465 119q146 111 146 312zM835 1106q0 -114 -88.5 -187t-233.5 -73h-180v497q51 16 169 16q333 0 333 -253zM883 418 q0 -144 -102 -221.5t-288 -77.5q-82 0 -160 10v590h160q181 0 285.5 -80.5t104.5 -220.5z" />
<glyph unicode="C" horiz-adv-x="1233" d="M1122 1299l44 136q-122 64 -338 64q-167 0 -305 -55.5t-238 -158.5q-206 -212 -206 -560q0 -340 193 -544q191 -202 512 -202q249 0 382 67l-37 134q-126 -59 -307 -59q-270 0 -418 162q-149 163 -149 447q0 144 39 262q77 231 297 323q102 46 256 43.5t275 -59.5z" />
<glyph unicode="D" horiz-adv-x="1415" d="M1334 776q0 338 -191 519q-204 193 -591 193q-191 0 -385 -31v-1455q121 -15 331 -15q413 0 629 210q207 201 207 579zM1161 767q0 -314 -160.5 -479t-471.5 -165q-147 0 -196 9v1202q97 21 226 21q297 0 449.5 -148.5t152.5 -439.5z" />
<glyph unicode="E" horiz-adv-x="1040" d="M333 138v565h566v138h-566v498h598v138h-764v-1477h797v138h-631z" />
<glyph unicode="F" horiz-adv-x="1029" d="M167 1477v-1477h166v682h550v138h-550v519h596v138h-762z" />
<glyph unicode="G" horiz-adv-x="1371" d="M782 763v-134h303v-464q-81 -42 -259 -42q-264 0 -417 164q-154 165 -154 451q0 143 42 257q84 228 308 315q105 44 269.5 41t288.5 -61l44 136q-135 67 -352 67q-346 0 -564 -215q-103 -101 -157.5 -241t-54.5 -307q0 -177 52 -314q101 -275 378 -379q93 -36 210.5 -48 t258 5.5t271.5 68.5v700h-467z" />
<glyph unicode="H" horiz-adv-x="1386" d="M1054 1477v-628h-721v628h-166v-1477h166v705h721v-705h167v1477h-167z" />
<glyph unicode="I" horiz-adv-x="500" d="M167 1477v-1477h166v1477h-166z" />
<glyph unicode="J" horiz-adv-x="780" d="M462 1477v-984q0 -203 -63 -288q-39 -53 -111 -73.5t-135.5 -14t-115.5 26.5l-26 -135q78 -34 190 -34q428 0 428 500v1002h-167z" />
<glyph unicode="K" horiz-adv-x="1141" d="M1120 1477h-204l-458 -563q-63 -75 -119 -158h-6v721h-166v-1477h166v577l140 161l493 -738h197l-573 851z" />
<glyph unicode="L" horiz-adv-x="1000" d="M333 140v1337h-166v-1477h791v140h-625z" />
<glyph unicode="M" horiz-adv-x="1715" d="M1288 1477l-274 -749q-102 -281 -157 -494h-4q-55 217 -152 496l-262 747h-209l-101 -1477h158l39 646q25 381 29 656h7q56 -238 171 -572l249 -724h123l270 739q87 237 184 557h6v-37q0 -150 24 -604l37 -661h163l-92 1477h-209z" />
<glyph unicode="N" horiz-adv-x="1401" d="M1079 1477v-645q0 -376 19 -608l-4 -3q-106 225 -264 480l-485 776h-178v-1477h157v655q0 420 -15 610l7 2q89 -195 271 -491l482 -776h165v1477h-155z" />
<glyph unicode="O" horiz-adv-x="1461" d="M1382 754q0 330 -174 539q-83 99 -204 153.5t-264 54.5q-142 0 -264 -56.5t-210 -159.5q-89 -104 -138 -247.5t-49 -312.5q0 -330 180 -537q88 -102 206.5 -157.5t257.5 -55.5q294 0 479 218q180 213 180 561zM1205 745q0 -274 -130 -451q-65 -87 -153.5 -135t-193.5 -48 q-102 0 -190.5 48t-152.5 133q-132 173 -132 438q0 279 132 457q63 85 152 131.5t195 46.5q208 0 341 -178q132 -180 132 -442z" />
<glyph unicode="P" horiz-adv-x="1127" d="M1039 1063q0 199 -136 312t-390 113q-194 0 -346 -29v-1459h166v605q47 -15 156 -15q250 0 397 121q153 127 153 352zM872 1052q0 -156 -100.5 -242.5t-278.5 -86.5q-94 0 -160 17v599q61 16 182 16q168 0 262.5 -77.5t94.5 -225.5z" />
<glyph unicode="Q" horiz-adv-x="1461" d="M1345 -209l51 142q-180 34 -434 96v8q201 70 310.5 258t109.5 459q0 330 -176 537q-180 210 -463 210q-147 0 -270 -56.5t-211 -160.5t-135.5 -247.5t-47.5 -313.5q0 -329 176 -533q176 -205 460 -215q31 -5 49 -10q3 -1 36 -11q312 -103 545 -163zM1207 745 q0 -276 -130 -451q-65 -87 -153.5 -135t-193.5 -48q-102 0 -190.5 48t-152.5 133q-132 173 -132 436q0 282 131 458q64 86 154 132.5t198 46.5q204 0 339 -179q130 -173 130 -441z" />
<glyph unicode="R" horiz-adv-x="1138" d="M916 0h173q-36 66 -112 401q-55 250 -218 304v8q278 95 278 378q0 198 -133.5 297.5t-390.5 99.5q-186 0 -346 -31v-1457h166v651h186q130 0 198.5 -68t104.5 -228q33 -161 55 -239q24 -88 39 -116zM870 1069q0 -133 -91.5 -212t-247.5 -79h-198v563q57 16 188 16 q349 -1 349 -288z" />
<glyph unicode="S" horiz-adv-x="1042" d="M949 397q0 151 -85.5 253t-282.5 180q-174 73 -230 134q-62 66 -62 165q0 105 79 169q78 63 222 62t251 -67l51 135q-124 71 -311 71q-200 0 -329 -110t-129 -283q0 -274 379 -416q151 -57 214.5 -126.5t63.5 -180.5q0 -121 -84.5 -192.5t-233.5 -71.5q-180 0 -326 92 l-46 -138q133 -94 362 -94t362 113q135 115 135 305z" />
<glyph unicode="T" horiz-adv-x="1048" d="M-4 1477v-141h445v-1336h166v1336h449v141h-1060z" />
<glyph unicode="U" horiz-adv-x="1378" d="M1045 1477v-887q0 -477 -363 -477q-171 0 -260 123t-89 354v887h-166v-885q0 -304 128.5 -460.5t379.5 -156.5q259 0 398 161.5t139 465.5v875h-167z" />
<glyph unicode="V" horiz-adv-x="1173" d="M1006 1477l-255 -743q-109 -322 -168 -556h-4q-44 191 -158 556l-233 743h-179l476 -1477h176l522 1477h-177z" />
<glyph unicode="W" horiz-adv-x="1809" d="M1624 1477l-204 -764q-81 -303 -118 -514h-5q-30 190 -107 514l-188 764h-170l-203 -767q-111 -430 -123 -513h-6q-30 185 -109 511l-182 769h-176l373 -1477h171l216 789q91 329 117 486h4q13 -114 100 -486l193 -789h169l416 1477h-168z" />
<glyph unicode="X" horiz-adv-x="1211" d="M1146 1477h-193l-206 -360q-96 -163 -138 -249h-4q-90 166 -138 249l-202 360h-190l429 -728l-447 -749h190l182 337q64 123 101 183q45 75 62 111h4l366 -631h193l-456 759z" />
<glyph unicode="Y" horiz-adv-x="1141" d="M953 1477l-217 -412q-110 -218 -151 -311h-4q-98 200 -152 309l-210 414h-190l460 -848v-629h166v631l485 846h-187z" />
<glyph unicode="Z" horiz-adv-x="1173" d="M282 140l814 1234v103h-960v-141h747l-818 -1238v-98h1041v140h-824z" />
<glyph unicode="[" horiz-adv-x="606" d="M318 -136v1530h254v109h-390v-1748h390v109h-254z" />
<glyph unicode="\" horiz-adv-x="749" d="M0 1501l621 -1589h135l-620 1589h-136z" />
<glyph unicode="]" horiz-adv-x="606" d="M37 1503v-109h252v-1530h-252v-109h388v1748h-388z" />
<glyph unicode="^" horiz-adv-x="1305" d="M592 1424l-452 -1006h136l375 862h4l373 -862h138l-451 1006h-123z" />
<glyph unicode="_" horiz-adv-x="1095" d="M0 -165v-109h1096v109h-1096z" />
<glyph unicode="`" horiz-adv-x="656" d="M57 1497l265 -309h121l-190 309h-196z" />
<glyph unicode="a" horiz-adv-x="1022" d="M734 0h151q-15 84 -15 253v404q0 424 -385 424q-189 0 -332 -90l40 -115q116 77 267 77q243 0 243 -261v-23q-306 0 -465 -100t-159 -293q0 -128 90 -216q87 -85 224 -85q213 0 320 161h6zM705 548v-197q0 -110 -86 -181q-81 -67 -188 -67q-82 0 -133 50.5t-51 145.5 q1 249 426 249h32z" />
<glyph unicode="b" horiz-adv-x="1211" d="M1129 541q0 238 -122 390q-122 150 -317 150q-250 -1 -357 -198h-5v671h-165v-1291q0 -95 -10 -263h154v175h7q114 -200 350 -200q199 0 332 160q133 162 133 406zM960 535q0 -192 -88.5 -308t-240.5 -116q-123 0 -210 85q-93 90 -93 220v205q0 139 96 235q91 91 214 91 q145 0 234 -117q88 -116 88 -295z" />
<glyph unicode="c" horiz-adv-x="956" d="M857 892l42 131q-103 58 -263 58q-246 0 -399 -158q-154 -159 -154 -406q0 -245 140 -391q141 -147 373 -147q178 0 299 61l-34 127q-115 -54 -234 -54q-163 0 -268 114q-104 112 -104 299q0 182 100 299q102 120 278 120q127 0 224 -53z" />
<glyph unicode="d" horiz-adv-x="1198" d="M897 0h148q-8 134 -8 263v1291h-167v-638h-4q-90 165 -316 165q-204 0 -336 -159q-131 -158 -131 -409q0 -233 128 -385q127 -153 318 -153q250 0 354 209h14v-184zM870 631v-194q0 -131 -83 -227q-87 -99 -215 -99q-145 0 -232 115q-87 114 -87 297q0 191 88 307 q90 119 238 119q125 0 208 -89q83 -91 83 -229z" />
<glyph unicode="e" horiz-adv-x="1066" d="M987 594q0 218 -112 352q-116 137 -310 137q-215 0 -349 -161q-133 -160 -133 -409q0 -240 134 -385q135 -147 370 -147q201 0 340 65l-30 121q-120 -56 -286 -56q-170 0 -266 104t-100 293h734q8 35 8 86zM822 631h-573q16 147 97 238t204 91q130 0 201 -88t71 -241z " />
<glyph unicode="f" horiz-adv-x="613" d="M679 1416l26 129q-65 33 -159 33q-173 0 -270.5 -122t-97.5 -345v-53h-147v-129h147v-929h169v929h255v129h-257v57q-1 325 209 325q63 0 125 -24z" />
<glyph unicode="g" horiz-adv-x="1191" d="M883 897h-5q-96 184 -326 184q-190 0 -322 -143q-147 -154 -147 -417q0 -226 125.5 -372.5t317.5 -146.5q233 0 335 182h5v-125q-2 -383 -343 -383q-167 0 -304 83l-46 -129q128 -86 342 -86q233 0 370 125q148 133 148 484v616q0 155 8 289h-149zM866 648v-205 q0 -50 -17 -104q-32 -97 -106 -151t-168 -54q-150 -1 -236 110t-86 289q0 187 88 302q89 114 236 114q122 0 205.5 -88.5t83.5 -212.5z" />
<glyph unicode="h" horiz-adv-x="1182" d="M1028 0v638q0 209 -97.5 326t-263.5 117q-102 0 -193 -52t-141 -140h-5v665h-165v-1554h165v644q0 120 85 210q84 89 196 89q250 0 250 -325v-618h169z" />
<glyph unicode="i" horiz-adv-x="490" d="M357 1376q3 48 -29.5 81.5t-82.5 33.5q-48 0 -79.5 -33.5t-31.5 -81.5q0 -50 31.5 -81.5t77.5 -31.5q50 0 82 31.5t32 81.5zM163 1058v-1058h165v1058h-165z" />
<glyph unicode="j" horiz-adv-x="508" d="M379 1376q2 48 -30.5 81.5t-80.5 33.5q-50 0 -82.5 -33t-32.5 -82q0 -53 33.5 -83t76.5 -30q52 0 84 32t32 81zM182 1058v-901q0 -280 -51 -374q-29 -53 -84 -78t-145 -31l19 -134q217 5 319 129q111 138 111 419v970h-169z" />
<glyph unicode="k" horiz-adv-x="983" d="M947 1058h-202l-320 -372q-56 -68 -92 -121h-5v989h-165v-1554h165v410l99 109l373 -519h202l-461 621z" />
<glyph unicode="l" horiz-adv-x="490" d="M163 1554v-1554h165v1554h-165z" />
<glyph unicode="m" horiz-adv-x="1785" d="M1633 0v629q0 211 -92 331.5t-251 120.5q-232 0 -347 -213h-5q-33 99 -111.5 156t-182.5 57q-217 -1 -328 -196h-15v173h-148q10 -198 10 -276v-782h163v644q0 116 76 206q78 93 188 93q108 0 166.5 -80.5t58.5 -216.5v-646h164v661q0 113 72 196q75 86 181 86 q236 -2 236 -336v-607h165z" />
<glyph unicode="n" horiz-adv-x="1182" d="M1028 0v638q0 204 -98.5 323.5t-265.5 119.5q-115 0 -208 -54.5t-138 -143.5h-15v175h-150q10 -198 10 -276v-782h165v644q0 124 83 212q81 87 198 87q250 0 250 -325v-618h169z" />
<glyph unicode="o" horiz-adv-x="1167" d="M1085 539q0 240 -135 389q-139 153 -358 153q-110 0 -205 -41.5t-163 -115.5q-141 -154 -141 -403q0 -238 137 -391q139 -155 355 -155q222 0 367 159q143 157 143 405zM912 533q0 -179 -94 -304q-93 -124 -237 -124q-71 0 -133 33.5t-105 91.5q-90 122 -90 296 q0 186 89 305q93 122 243 122q145 0 238 -121q89 -116 89 -299z" />
<glyph unicode="p" horiz-adv-x="1211" d="M1129 544q0 239 -125 388q-60 71 -141.5 110t-174.5 39q-252 0 -370 -207h-13v184h-152q10 -226 10 -341v-1151h165v581h5q100 -172 324 -172q207 0 341 159q131 158 131 410zM960 537q0 -198 -89 -313t-240 -115q-130 0 -217 94q-86 91 -86 222v193q0 140 97 237 q92 92 213 92q144 0 234 -116q88 -115 88 -294z" />
<glyph unicode="q" horiz-adv-x="1196" d="M881 895l-5 2q-91 184 -322 184q-93 0 -177 -37t-150 -106.5t-105 -180t-39 -247.5q0 -237 128 -385q85 -99 213 -135t252 9t190 166h4v-599h167v1203q0 124 8 289h-158zM870 636v-211q0 -53 -15 -97q-35 -104 -109.5 -160.5t-173.5 -56.5q-156 0 -241 123 q-51 74 -70 184.5t1 223.5t77 186q89 119 240 119q125 0 208 -89.5t83 -221.5z" />
<glyph unicode="r" horiz-adv-x="685" d="M657 918v158q-19 5 -50 5q-98 0 -176 -62t-115 -168h-13v207h-148q8 -123 8 -322v-736h165v572q0 155 76 252q76 98 192 98q38 0 61 -4z" />
<glyph unicode="s" horiz-adv-x="838" d="M749 291q0 211 -272 318q-111 41 -156 86t-45 105q0 68 49 110.5t133 42.5q117 0 211 -61l46 124q-104 65 -251 65q-157 0 -252 -87t-95 -216q-2 -188 270 -295q113 -44 156.5 -90t43.5 -119q0 -78 -57 -123.5t-156 -45.5q-131 0 -245 75l-43 -130q119 -71 284 -71 q177 0 278 83.5t101 228.5z" />
<glyph unicode="t" horiz-adv-x="700" d="M368 1058v248l-165 -55v-193h-166v-129h166v-605q0 -186 69 -265q43 -49 114.5 -68t133.5 -13t113 24l-8 130q-41 -15 -112 -15q-73 -1 -109 51t-36 156v605h278v129h-278z" />
<glyph unicode="u" horiz-adv-x="1171" d="M870 0h149q-9 122 -9 280v778h-167v-655q0 -117 -84 -203q-80 -83 -196 -83q-121 -1 -181 86.5t-60 263.5v591h-167v-621q0 -225 92 -344q37 -47 96.5 -77.5t129.5 -37.5t140 8t135 63t107 124h15v-173z" />
<glyph unicode="v" horiz-adv-x="1016" d="M820 1058l-215 -611q-72 -197 -90 -274h-5q-16 66 -89 274l-212 611h-180l398 -1058h156l412 1058h-175z" />
<glyph unicode="w" horiz-adv-x="1579" d="M1378 1058l-157 -548q-60 -207 -86 -341h-4q-31 147 -94 344l-171 545h-143l-179 -554q-66 -207 -97 -335h-4q-28 145 -81 337l-149 552h-171l315 -1058h153l178 526q65 195 98 350h5q1 -3 16 -63t24 -94q22 -90 54 -190l169 -529h151l340 1058h-167z" />
<glyph unicode="x" horiz-adv-x="976" d="M938 1058h-184l-152 -234q-67 -101 -109 -176h-4l-58 95q-7 11 -52 81l-155 234h-187l354 -519l-372 -539h184l159 245q56 83 113 189h8q79 -141 113 -189l163 -245h188l-366 546z" />
<glyph unicode="y" horiz-adv-x="994" d="M800 1058l-217 -637q-53 -166 -68 -224h-7q-26 110 -67 219l-238 642h-182l382 -977q13 -32 13 -48q0 -19 -13 -46q-51 -118 -139 -204.5t-193 -123.5l46 -142q228 53 396 370q72 146 177 416l287 755h-177z" />
<glyph unicode="z" horiz-adv-x="904" d="M247 136v4q70 81 127 159l489 652v107h-782v-136h580v-4q-99 -118 -130 -162l-494 -658v-98h833v136h-623z" />
<glyph unicode="{" horiz-adv-x="606" d="M554 -136h-37q-180 0 -180 195q0 39 17 167q12 99 18 167q0 194 -153 236v4q153 42 153 237q-7 76 -18 166q-17 123 -17 165q0 193 178 193h39v109h-39q-314 0 -314 -284q0 -35 20 -187q18 -137 18 -186q0 -85 -43 -124.5t-135 -39.5v-103q92 0 135 -39.5t43 -125.5 q0 -49 -18 -179q-20 -146 -20 -183q0 -297 314 -297h39v109z" />
<glyph unicode="|" horiz-adv-x="500" d="M186 1644v-2192h132v2192h-132z" />
<glyph unicode="}" horiz-adv-x="606" d="M546 579v103q-92 0 -135 39.5t-43 124.5q0 34 18 186q17 144 17 187q0 284 -311 284h-40v-109h40q178 -1 178 -193q0 -45 -16 -164q-15 -111 -20 -167q0 -195 153 -237v-4q-153 -42 -153 -236q5 -56 20 -167q16 -121 16 -167q0 -195 -180 -195h-38v-109h40 q311 -2 311 297q0 45 -17 183q-18 144 -18 179q0 86 43 125.5t135 39.5z" />
<glyph unicode="~" horiz-adv-x="1305" d="M1194 778h-115q-4 -184 -123 -184q-83 0 -281 92q-216 98 -309 98q-116 0 -185.5 -78t-69.5 -219v-18h119q2 186 134 186q59 0 272 -96q212 -97 315 -97q113 0 178 76t65 213v27z" />
<glyph horiz-adv-x="1095" />
<glyph unicode="&#xa1;" horiz-adv-x="485" d="M360 945q0 62 -34 93t-82 31.5t-77 -28.5q-40 -33 -40 -96q0 -57 31.5 -91t84.5 -34q50 0 83.5 35t33.5 90zM178 629l-27 -1056h186l-28 1056h-131z" />
<glyph unicode="&#xa2;" horiz-adv-x="1090" d="M935 257l-32 120q-121 -57 -248 -57q-153 0 -249 109q-97 108 -97 290q0 84 26 159q53 151 183 217q44 22 105.5 29.5t134.5 -6t134 -49.5l41 132q-100 55 -239 55v216h-122v-221q-192 -30 -311 -178q-119 -147 -119 -358q0 -230 114.5 -366.5t315.5 -155.5v-224h122v221 q146 11 241 67z" />
<glyph unicode="&#xa3;" horiz-adv-x="1090" d="M349 140v4q88 73 129 165t41 220q0 55 -6 128h296v123h-311q-36 187 -32 279q10 252 247 252q115 0 192 -44l42 127q-88 55 -232 55q-88 0 -160 -31q-154 -63 -213 -219q-30 -79 -31 -174t26 -245h-205v-123h223q13 -82 13 -166q0 -124 -67 -229.5t-180 -165.5v-96h883 v140h-655z" />
<glyph unicode="&#xa4;" horiz-adv-x="1090" d="M984 1244l37 132q-122 73 -270 73q-441 0 -536 -533h-138l-25 -99h149q-4 -49 -4 -118v-30q0 -11 2 -33h-126l-25 -99h159q67 -562 512 -562q191 0 285 82l-34 123q-110 -71 -234 -71q-304 2 -362 428h446l15 99h-469q-2 22 -2 33v30q0 69 4 118h510l25 99h-520 q77 399 362 399q115 0 239 -71z" />
<glyph unicode="&#xa5;" horiz-adv-x="1090" d="M876 1424l-245 -460q-53 -100 -85 -199h-7q-56 133 -87 195l-233 464h-179l363 -670h-284v-99h333v-164h-333v-98h333v-393h159v393h336v98h-336v164h336v99h-286l389 670h-174z" />
<glyph unicode="&#xa6;" horiz-adv-x="500" d="M186 1479v-766h132v766h-132zM186 383v-766h132v766h-132z" />
<glyph unicode="&#xa7;" horiz-adv-x="1104" d="M977 648q0 125 -75 197q-84 81 -269 144q-152 48 -224 102q-54 40 -54 116q0 80 67 126q45 32 114.5 43.5t152.5 -4.5t152 -61l44 111q-121 73 -289 73q-166 0 -276 -83q-113 -87 -113 -224q0 -116 80 -180q-158 -110 -158 -257q0 -116 78 -188q75 -71 291 -151 q152 -51 211.5 -104.5t59.5 -134.5q0 -90 -68 -140t-182 -50q-168 0 -280 88l-51 -113q122 -90 329 -90q179 0 291 89q112 90 112 236q0 115 -83 192q140 108 140 263zM837 627q0 -109 -88 -178q-70 45 -247 110q-234 85 -234 212v3q0 103 102 179q142 -65 209 -91 q86 -35 145 -66q58 -32 85.5 -71t27.5 -98z" />
<glyph unicode="&#xa8;" horiz-adv-x="656" d="M232 1326q0 42 -27.5 72t-68.5 30q-42 0 -71.5 -30t-29.5 -72q0 -43 28 -73t71 -30q44 0 71 29t27 74zM623 1326q0 42 -28.5 72t-71.5 30q-40 0 -70 -30.5t-30 -71.5q0 -42 28 -72.5t70 -30.5q44 0 73 29.5t29 73.5z" />
<glyph unicode="&#xa9;" horiz-adv-x="1483" d="M1405 745q0 136 -49.5 259t-139.5 217t-211.5 146.5t-257.5 52.5q-138 0 -260 -51.5t-214 -145.5t-143 -217t-51 -261t51 -262t142 -218q92 -94 214 -147t259 -53t258.5 54t212.5 150q90 94 139.5 217t49.5 259zM1302 745q0 -123 -42 -231.5t-118 -190.5t-178 -127 t-217 -45q-118 0 -221 46t-179 129q-161 172 -161 412q0 123 42.5 232t118.5 192q159 172 398 172q236 0 399 -174q158 -171 158 -415zM1050 403l-25 80q-89 -60 -223 -60q-146 0 -231 90q-82 85 -82 225q0 144 80.5 229t230.5 85q123 0 214 -53l25 82q-71 59 -242 59 q-174 0 -295 -115q-123 -118 -123 -293q0 -86 30 -159q61 -147 208 -208q52 -21 124.5 -28t159 8.5t149.5 57.5z" />
<glyph unicode="&#xaa;" horiz-adv-x="736" d="M529 583h117q-13 69 -13 168v240q0 83 -21.5 145t-57 95.5t-81.5 51t-94.5 17.5t-96.5 -10t-87.5 -28t-67.5 -39l30 -86q77 57 184 57q73 0 119 -38.5t46 -103.5v-24h-33q-192 0 -296 -65t-104 -185q0 -90 59 -148t161 -58q136 0 220 105h4zM508 938v-129q0 -53 -59 -99 q-53 -41 -118 -41q-55 0 -92.5 32t-37.5 85q0 152 272 152h35z" />
<glyph unicode="&#xab;" horiz-adv-x="893" d="M495 951h-140l-292 -399l292 -399h143l-295 399zM841 951h-142l-289 -399l291 -399h142l-295 399z" />
<glyph unicode="&#xac;" horiz-adv-x="1305" d="M88 866v-119h1003v-477h128v596h-1131z" />
<glyph unicode="&#xad;" horiz-adv-x="646" d="M65 657v-126h533v126h-533z" />
<glyph unicode="&#xae;" horiz-adv-x="1117" d="M1048 1004q0 99 -37 189.5t-104 157.5q-68 68 -157 107t-187 39q-101 0 -190.5 -38t-156.5 -106q-68 -68 -105.5 -158t-37.5 -191q0 -204 142 -351q139 -145 346 -145q202 0 346 146q141 143 141 350zM960 1004q0 -174 -112 -297q-115 -126 -285 -126q-168 0 -284 128 q-53 59 -83.5 135.5t-30.5 159.5q0 170 115 295q114 125 281 125q171 0 285 -125t114 -295zM690 717h86q-12 24 -19 63q-7 38 -20 86q-30 110 -89 121v4q108 33 108 134q0 155 -219 155q-59 0 -154 -13v-550h84v239h64q102 0 120 -97q19 -115 39 -142zM669 1115 q0 -96 -136 -96h-66v193q35 5 64 5q138 -1 138 -102z" />
<glyph unicode="&#xaf;" horiz-adv-x="656" d="M90 1389v-109h479v109h-479z" />
<glyph unicode="&#xb0;" horiz-adv-x="676" d="M629 1223q0 117 -79 201q-76 79 -199 79q-121 0 -204 -83q-84 -84 -84 -208q0 -113 82 -195t200 -82q116 0 202 86q82 84 82 202zM521 1221q0 -80 -48 -135.5t-124 -55.5t-125 53t-49 131q0 81 47.5 138t124.5 57t125.5 -53t48.5 -135z" />
<glyph unicode="&#xb1;" horiz-adv-x="1305" d="M717 815v434h-127v-434h-502v-118h502v-448h127v448h502v118h-502zM88 119v-119h1131v119h-1131z" />
<glyph unicode="&#xb2;" horiz-adv-x="749" d="M289 692v5l71 66q191 183 240 260q53 83 53 182q0 108 -75.5 176t-205.5 68q-151 0 -253 -90l41 -90q86 67 179 67q171 0 171 -157q0 -85 -55 -160q-64 -88 -223 -237l-134 -127v-72h571v109h-380z" />
<glyph unicode="&#xb3;" horiz-adv-x="724" d="M653 828q0 83 -55.5 141.5t-143.5 71.5v4q164 59 164 199q0 92 -69 149q-46 37 -121 50t-159 -3t-148 -60l36 -94q83 59 180 59q140 0 140 -109q0 -67 -57.5 -109t-143.5 -42h-57v-92h55q111 0 173.5 -43t62.5 -120q0 -68 -54 -112.5t-140 -44.5q-116 0 -199 57l-38 -99 q89 -59 239 -59q149 0 242 72t93 184z" />
<glyph unicode="&#xb4;" horiz-adv-x="656" d="M232 1188h121l265 309h-195z" />
<glyph unicode="&#xb5;" horiz-adv-x="1171" d="M870 0h149q-9 122 -9 280v778h-167v-677q1 -96 -78 -178q-88 -86 -196 -86q-247 0 -247 332v609h-167v-1492h156l-6 537h6q69 -124 224 -124q215 0 320 196h6z" />
<glyph unicode="&#xb6;" horiz-adv-x="1092" d="M907 -109v1573q-91 17 -246 17q-286 0 -436 -123.5t-150 -351.5q0 -181 123 -302q121 -123 293 -123h15v-690h123v1472h155v-1472h123z" />
<glyph unicode="&#xb7;" horiz-adv-x="431" d="M333 600q0 55 -31.5 90t-84.5 35q-52 0 -85.5 -35t-33.5 -90q0 -58 34.5 -91.5t82.5 -33.5q49 0 83.5 32.5t34.5 92.5z" />
<glyph unicode="&#xb8;" horiz-adv-x="656" d="M491 -263q0 59 -44.5 101t-109.5 51l75 115h-107l-106 -182q171 -16 171 -94q0 -43 -38.5 -59.5t-87.5 -9t-89 29.5l-30 -88q61 -40 145 -40q221 0 221 176z" />
<glyph unicode="&#xb9;" horiz-adv-x="676" d="M333 1437l-199 -96l23 -103l161 77v-732h134v854h-119z" />
<glyph unicode="&#xba;" horiz-adv-x="759" d="M721 938q0 156 -92 256q-93 101 -244 101q-152 0 -249 -107q-96 -107 -96 -261q0 -153 94 -253q96 -102 245 -102q152 0 249 107q93 102 93 259zM590 933q0 -113 -58 -187.5t-151 -74.5q-84 0 -149 80q-59 71 -59 178q0 115 56 188q61 77 150 77q97 0 154 -73t57 -188z " />
<glyph unicode="&#xbb;" horiz-adv-x="893" d="M50 951l295 -399l-293 -399h141l292 399l-295 399h-140zM395 951l293 -399l-291 -399h140l291 399l-293 399h-140z" />
<glyph unicode="&#xbc;" horiz-adv-x="1616" d="M287 -25h112l828 1474h-112zM293 1437l-197 -96l23 -103l159 77v-732h134v854h-119zM1407 328v538h-136l-425 -559v-77h432v-230h129v230h134v98h-134zM1280 736h4q-6 -73 -6 -136v-269h-289l218 284q48 73 73 121z" />
<glyph unicode="&#xbd;" horiz-adv-x="1616" d="M245 -25h112l829 1474h-112zM261 1437l-198 -96l23 -103l159 77v-732h134v854h-118zM1129 109v4l69 67q190 179 242 261q53 85 53 182q0 107 -75.5 175t-205.5 68q-154 0 -256 -90l41 -90q45 35 104.5 53t115 15t93.5 -43.5t38 -114.5q0 -76 -57 -160q-49 -72 -220 -235 l-136 -128v-73h570v109h-376z" />
<glyph unicode="&#xbe;" horiz-adv-x="1616" d="M640 828q0 83 -55.5 141.5t-143.5 71.5v4q164 59 164 199q0 95 -68.5 150t-189.5 55q-136 0 -240 -71l37 -92q86 59 180 59q143 0 143 -113q0 -64 -61 -105.5t-143 -41.5h-56v-92h54q111 0 174 -43t63 -120q0 -69 -54 -113t-141 -44q-117 0 -200 57l-38 -99 q89 -59 242 -59q151 0 241 72q92 73 92 184zM366 -25h114l829 1474h-115zM1431 328v538h-138l-425 -559v-77h434v-230h129v230h131v98h-131zM1304 736h5q-7 -69 -7 -136v-269h-292l222 284q61 97 72 121z" />
<glyph unicode="&#xbf;" horiz-adv-x="860" d="M625 945q0 58 -35 91t-82 33q-51 0 -84 -34t-33 -90q0 -58 31.5 -93t83.5 -35q50 0 84.5 36.5t34.5 91.5zM776 -372l-46 123q-88 -69 -220 -69q-211 0 -211 197q0 118 155 314q136 169 136 342v23q0 12 -3 23l-6 55h-150l3 -57v-25q0 -162 -123 -311q-115 -143 -150 -216 q-36 -76 -36 -167q0 -142 94.5 -230t257.5 -88q175 0 299 86z" />
<glyph unicode="&#xc0;" horiz-adv-x="1298" d="M333 1810l282 -254h136l-207 254h-211zM556 1477l-499 -1477h171l157 477h527l162 -477h175l-500 1477h-193zM423 609l149 443q25 68 74 269h5q51 -200 77 -271l148 -441h-453z" />
<glyph unicode="&#xc1;" horiz-adv-x="1298" d="M559 1556h135l283 254h-210zM556 1477l-499 -1477h171l157 477h527l162 -477h175l-500 1477h-193zM423 609l149 443q25 68 74 269h5q51 -200 77 -271l148 -441h-453z" />
<glyph unicode="&#xc2;" horiz-adv-x="1298" d="M600 1810l-221 -254h140l140 165h5l141 -165h144l-226 254h-123zM556 1477l-499 -1477h171l157 477h527l162 -477h175l-500 1477h-193zM423 609l149 443q25 68 74 269h5q51 -200 77 -271l148 -441h-453z" />
<glyph unicode="&#xc3;" horiz-adv-x="1298" d="M916 1779h-90q-6 -89 -61 -89q-20 0 -110 41q-95 42 -126 42q-68 0 -105 -55t-37 -149h90q10 94 60 94q12 0 41 -13q16 -8 65 -28q96 -42 131 -42q142 0 142 199zM556 1477l-499 -1477h171l157 477h527l162 -477h175l-500 1477h-193zM423 609l149 443q25 68 74 269h5 q51 -200 77 -271l148 -441h-453z" />
<glyph unicode="&#xc4;" horiz-adv-x="1298" d="M561 1687q0 44 -27.5 73.5t-69.5 29.5t-71 -30.5t-29 -72.5q0 -43 27.5 -73.5t68.5 -30.5h2q43 0 71 30t28 74zM951 1687q0 44 -27 73.5t-69 29.5q-44 0 -72.5 -30t-28.5 -73t27.5 -73.5t69.5 -30.5h2q43 0 70.5 30t27.5 74zM556 1477l-499 -1477h171l157 477h527 l162 -477h175l-500 1477h-193zM423 609l149 443q25 68 74 269h5q58 -228 74 -271l151 -441h-453z" />
<glyph unicode="&#xc5;" horiz-adv-x="1298" d="M1251 0l-486 1437q105 61 105 180q0 88 -61.5 149.5t-149.5 61.5q-87 0 -148.5 -61.5t-61.5 -149.5q0 -113 99 -175l-489 -1442h171l157 477h527l160 -477h177zM778 1617q0 -48 -35.5 -82t-83.5 -34t-83 34t-35 82q0 50 34.5 84.5t83.5 34.5t84 -34.5t35 -84.5zM421 609 l162 474q43 134 61 236h7q57 -221 72 -261l153 -449h-455z" />
<glyph unicode="&#xc6;" horiz-adv-x="1662" d="M999 701h519v138h-539l-57 500h617v138h-872l-669 -1477h171l243 537h445l65 -537h673v138h-528zM467 673l194 444q26 52 48 112q18 48 50 128h8l24 -246l50 -438h-374z" />
<glyph unicode="&#xc7;" horiz-adv-x="1250" d="M1166 46l-37 134q-126 -59 -307 -59q-270 0 -418 162q-149 163 -149 447q0 144 39 262q77 231 297 323q102 46 256 43.5t275 -59.5l44 136q-122 64 -338 64q-167 0 -305 -55.5t-238 -158.5q-206 -212 -206 -560q0 -308 162 -507q158 -198 436 -233l-92 -163 q169 -16 169 -94q0 -43 -38 -59.5t-86.5 -9t-88.5 29.5l-31 -90q62 -36 149 -36q96 0 156.5 43.5t60.5 125.5q0 60 -43 104t-108 53l57 90q245 1 384 67z" />
<glyph unicode="&#xc8;" horiz-adv-x="1040" d="M261 1810l283 -254h135l-208 254h-210zM333 138v565h566v138h-566v498h598v138h-764v-1477h797v138h-631z" />
<glyph unicode="&#xc9;" horiz-adv-x="1040" d="M449 1556h136l283 254h-211zM333 138v565h566v138h-566v498h598v138h-764v-1477h797v138h-631z" />
<glyph unicode="&#xca;" horiz-adv-x="1040" d="M485 1810l-220 -254h138l141 165h4l140 -165h144l-225 254h-122zM333 138v565h566v138h-566v498h598v138h-764v-1477h797v138h-631z" />
<glyph unicode="&#xcb;" horiz-adv-x="1040" d="M460 1687q0 45 -27 74t-71 29q-42 0 -70.5 -30.5t-28.5 -72.5q0 -49 29 -76.5t68 -27.5q42 0 71 30.5t29 73.5zM851 1687q0 44 -27.5 73.5t-69.5 29.5q-44 0 -72.5 -30t-28.5 -73t27.5 -73.5t68.5 -30.5q40 0 71 27.5t31 76.5zM333 138v565h566v138h-566v498h598v138 h-764v-1477h797v138h-631z" />
<glyph unicode="&#xcc;" horiz-adv-x="500" d="M-63 1810l284 -254h134l-208 254h-210zM167 1477v-1477h166v1477h-166z" />
<glyph unicode="&#xcd;" horiz-adv-x="500" d="M147 1556h135l283 254h-210zM167 1477v-1477h166v1477h-166z" />
<glyph unicode="&#xce;" horiz-adv-x="500" d="M186 1810l-219 -254h138l140 165h4l142 -165h144l-226 254h-123zM167 1477v-1477h166v1477h-166z" />
<glyph unicode="&#xcf;" horiz-adv-x="500" d="M153 1687q0 44 -27.5 73.5t-70.5 29.5q-42 0 -70.5 -30.5t-28.5 -72.5q0 -49 29 -76.5t67 -27.5q41 0 71 27.5t30 76.5zM544 1687q0 44 -27.5 73.5t-69.5 29.5q-43 0 -71.5 -30t-28.5 -73q0 -45 29 -74.5t69 -29.5q39 0 69 27.5t30 76.5zM167 1477v-1477h166v1477h-166z " />
<glyph unicode="&#xd0;" horiz-adv-x="1426" d="M1345 774q0 343 -197 531t-585 188q-191 0 -385 -31v-645h-182v-133h182v-684q111 -15 330 -15q420 0 634 214q203 203 203 575zM1173 771q0 -320 -160.5 -485t-473.5 -165q-141 0 -194 8v555h400v133h-400v522q100 20 224 20q298 0 451 -148.5t153 -439.5z" />
<glyph unicode="&#xd1;" horiz-adv-x="1401" d="M989 1779h-90q-8 -89 -62 -89q-19 0 -46 13l-64 28q-97 42 -127 42q-66 0 -103 -55.5t-37 -148.5h90q9 94 59 94q14 0 41 -13q16 -8 65 -28q96 -42 131 -42q143 0 143 199zM1079 1477v-645q0 -376 19 -608l-4 -3q-106 225 -264 480l-485 776h-178v-1477h157v655 q0 420 -15 610l7 2q89 -195 271 -491l482 -776h165v1477h-155z" />
<glyph unicode="&#xd2;" horiz-adv-x="1461" d="M412 1810l282 -254h134l-207 254h-209zM1382 754q0 326 -174 536q-84 101 -203.5 156t-264.5 55t-267.5 -57t-211.5 -162q-182 -213 -182 -557q0 -330 176 -537q86 -102 205 -157.5t261 -55.5q298 0 483 218q178 211 178 561zM1205 745q0 -277 -130 -452 q-137 -182 -345 -182q-103 0 -192 48t-153 134q-132 176 -132 437q0 280 130 455q64 86 153 133t196 47q208 0 343 -180q130 -177 130 -440z" />
<glyph unicode="&#xd3;" horiz-adv-x="1461" d="M648 1556h136l283 254h-210zM1382 754q0 326 -174 536q-84 101 -203.5 156t-264.5 55t-267.5 -57t-211.5 -162q-182 -213 -182 -557q0 -330 176 -537q86 -102 205 -157.5t261 -55.5q298 0 483 218q178 211 178 561zM1205 745q0 -277 -130 -452q-137 -182 -345 -182 q-103 0 -192 48t-153 134q-132 176 -132 437q0 280 130 455q64 86 153 133t196 47q208 0 343 -180q130 -177 130 -440z" />
<glyph unicode="&#xd4;" horiz-adv-x="1461" d="M669 1810l-220 -254h138l141 165h4l140 -165h144l-225 254h-122zM1382 754q0 326 -174 536q-84 101 -203.5 156t-264.5 55t-267.5 -57t-211.5 -162q-182 -213 -182 -557q0 -330 176 -537q86 -102 205 -157.5t261 -55.5q298 0 483 218q178 211 178 561zM1205 745 q0 -277 -130 -452q-137 -182 -345 -182q-103 0 -192 48t-153 134q-132 176 -132 437q0 280 130 455q64 86 153 133t196 47q208 0 343 -180q130 -177 130 -440z" />
<glyph unicode="&#xd5;" horiz-adv-x="1461" d="M997 1779h-90q-8 -89 -64 -89q-18 0 -110 41q-94 42 -126 42q-67 0 -103.5 -55t-36.5 -149h92q7 94 56 94q15 0 44 -13q16 -8 65 -28q94 -42 129 -42q75 0 109.5 49t34.5 150zM1382 754q0 326 -174 536q-84 101 -203.5 156t-264.5 55t-267.5 -57t-211.5 -162 q-182 -213 -182 -557q0 -330 176 -537q86 -102 205 -157.5t261 -55.5q298 0 483 218q178 211 178 561zM1205 745q0 -277 -130 -452q-137 -182 -345 -182q-103 0 -192 48t-153 134q-132 176 -132 437q0 280 130 455q64 86 153 133t196 47q208 0 343 -180q130 -177 130 -440z " />
<glyph unicode="&#xd6;" horiz-adv-x="1461" d="M636 1687q0 45 -27.5 74t-71.5 29q-42 0 -70 -30t-28 -73q0 -49 29 -76.5t67 -27.5q40 0 70.5 27.5t30.5 76.5zM1025 1687q0 44 -27.5 73.5t-68.5 29.5q-44 0 -72.5 -30t-28.5 -73q0 -45 29 -74.5t70 -29.5q39 0 68.5 27.5t29.5 76.5zM1382 754q0 326 -174 536 q-84 101 -203.5 156t-264.5 55t-267.5 -57t-211.5 -162q-182 -213 -182 -557q0 -330 176 -537q86 -102 205 -157.5t261 -55.5q298 0 483 218q178 211 178 561zM1205 745q0 -277 -130 -452q-137 -182 -345 -182q-103 0 -192 48t-153 134q-132 176 -132 437q0 280 130 455 q64 86 153 133t196 47q208 0 343 -180q130 -177 130 -440z" />
<glyph unicode="&#xd7;" horiz-adv-x="1305" d="M653 664l-478 488l-87 -87l477 -488l-477 -489l87 -88l478 489l478 -489l88 88l-481 489l481 488l-88 87z" />
<glyph unicode="&#xd8;" horiz-adv-x="1461" d="M1382 751q0 338 -184 546l134 191l-103 68l-127 -176q-152 121 -364 121q-142 0 -264 -56.5t-209 -159.5q-186 -218 -186 -555q0 -338 189 -546l-136 -195l96 -72l134 184q158 -126 372 -126q142 0 262 56t207 159q179 212 179 561zM366 328l-4 -2q-113 194 -113 414 q0 268 135 446q64 85 153.5 132t196.5 47q157 0 287 -109zM1212 745q0 -137 -35 -254q-70 -233 -250 -332q-63 -35 -142.5 -46t-174 15.5t-165.5 97.5l653 924l6 -2q108 -172 108 -403z" />
<glyph unicode="&#xd9;" horiz-adv-x="1378" d="M391 1810l282 -254h134l-209 254h-207zM1045 1477v-887q0 -477 -363 -477q-171 0 -260 123t-89 354v887h-166v-885q0 -304 128.5 -460.5t379.5 -156.5q259 0 398 161.5t139 465.5v875h-167z" />
<glyph unicode="&#xda;" horiz-adv-x="1378" d="M596 1556h136l282 254h-209zM1045 1477v-887q0 -477 -363 -477q-171 0 -260 123t-89 354v887h-166v-885q0 -304 128.5 -460.5t379.5 -156.5q259 0 398 161.5t139 465.5v875h-167z" />
<glyph unicode="&#xdb;" horiz-adv-x="1378" d="M638 1810l-220 -254h138l141 165h4l140 -165h146l-226 254h-123zM1045 1477v-887q0 -477 -363 -477q-171 0 -260 123t-89 354v887h-166v-885q0 -304 128.5 -460.5t379.5 -156.5q259 0 398 161.5t139 465.5v875h-167z" />
<glyph unicode="&#xdc;" horiz-adv-x="1378" d="M596 1687q0 44 -27.5 73.5t-68.5 29.5q-44 0 -72.5 -30t-28.5 -73t27.5 -73.5t68.5 -30.5t71 27.5t30 76.5zM987 1687q0 44 -28 73.5t-70 29.5q-40 0 -70 -30.5t-30 -72.5q0 -45 28.5 -74.5t69.5 -29.5q39 0 69.5 28t30.5 76zM1045 1477v-887q0 -477 -363 -477 q-171 0 -260 123t-89 354v887h-166v-885q0 -304 128.5 -460.5t379.5 -156.5q259 0 398 161.5t139 465.5v875h-167z" />
<glyph unicode="&#xdd;" horiz-adv-x="1141" d="M500 1556h136l282 254h-210zM953 1477l-217 -412q-110 -218 -151 -311h-4q-98 200 -152 309l-210 414h-190l460 -848v-629h166v631l485 846h-187z" />
<glyph unicode="&#xde;" horiz-adv-x="1125" d="M1037 800q0 188 -130.5 294.5t-367.5 106.5q-112 0 -208 -18v294h-164v-1477h164v353q113 -12 164 -12q247 0 393 120q149 122 149 339zM870 782q0 -145 -98 -226t-277 -81q-108 2 -164 16v559q76 17 195 17q344 0 344 -285z" />
<glyph unicode="&#xdf;" horiz-adv-x="1163" d="M1071 320q2 95 -55 190q-20 32 -58 76q-27 30 -79 92q-99 118 -99 175q0 116 161 182q50 77 50 179q0 158 -105 263q-103 101 -268 101q-222 0 -338.5 -144.5t-116.5 -436.5v-997h165v1002q0 442 270 442q107 0 169.5 -65t62.5 -183q0 -49 -17 -98q-198 -96 -198 -268 q0 -131 167 -289q125 -117 125 -236q0 -91 -61.5 -144.5t-161.5 -53.5q-96 0 -189 46l-31 -132q91 -46 228 -46q173 0 276 95.5t103 249.5z" />
<glyph unicode="&#xe0;" horiz-adv-x="1022" d="M201 1497l263 -309h121l-190 309h-194zM734 0h151q-15 84 -15 253v404q0 424 -385 424q-189 0 -332 -90l40 -115q116 77 267 77q243 0 243 -261v-23q-306 0 -465 -100t-159 -293q0 -128 90 -216q87 -85 224 -85q213 0 320 161h6zM705 548v-197q0 -110 -86 -181 q-81 -67 -188 -67q-82 0 -133 50.5t-51 145.5q1 249 426 249h32z" />
<glyph unicode="&#xe1;" horiz-adv-x="1022" d="M403 1188h120l266 309h-193zM734 0h151q-15 84 -15 253v404q0 424 -385 424q-189 0 -332 -90l40 -115q116 77 267 77q243 0 243 -261v-23q-306 0 -465 -100t-159 -293q0 -128 90 -216q87 -85 224 -85q213 0 320 161h6zM705 548v-197q0 -110 -86 -181q-81 -67 -188 -67 q-82 0 -133 50.5t-51 145.5q1 249 426 249h32z" />
<glyph unicode="&#xe2;" horiz-adv-x="1022" d="M443 1497l-202 -309h127l130 208h4l127 -208h134l-207 309h-113zM734 0h151q-15 84 -15 253v404q0 424 -385 424q-189 0 -332 -90l40 -115q116 77 267 77q243 0 243 -261v-23q-306 0 -465 -100t-159 -293q0 -128 90 -216q87 -85 224 -85q213 0 320 161h6zM705 548v-197 q0 -110 -86 -181q-81 -67 -188 -67q-82 0 -133 50.5t-51 145.5q1 249 426 249h32z" />
<glyph unicode="&#xe3;" horiz-adv-x="1022" d="M767 1444h-88q-6 -92 -56 -92q-23 0 -119 43q-94 42 -119 42q-65 0 -101.5 -57t-36.5 -151h90q11 99 60 99q11 0 107 -41q96 -43 121 -43q142 1 142 200zM734 0h151q-15 84 -15 253v404q0 424 -385 424q-189 0 -332 -90l40 -115q116 77 267 77q243 0 243 -261v-23 q-306 0 -465 -100t-159 -293q0 -128 90 -216q87 -85 224 -85q213 0 320 161h6zM705 548v-197q0 -110 -86 -181q-81 -67 -188 -67q-82 0 -133 50.5t-51 145.5q1 249 426 249h32z" />
<glyph unicode="&#xe4;" horiz-adv-x="1022" d="M416 1326q0 42 -27.5 72t-70.5 30q-42 0 -71.5 -30t-29.5 -72t28.5 -72.5t70.5 -30.5q44 0 72 29t28 74zM805 1326q0 42 -28 72t-69 30q-43 0 -72 -30t-29 -72q0 -43 27.5 -73t68.5 -30q44 0 73 29.5t29 73.5zM734 0h151q-15 84 -15 253v404q0 424 -385 424 q-189 0 -332 -90l40 -115q116 77 267 77q243 0 243 -261v-23q-306 0 -465 -100t-159 -293q0 -128 90 -216q87 -85 224 -85q213 0 320 161h6zM705 548v-197q0 -110 -86 -181q-81 -67 -188 -67q-82 0 -133 50.5t-51 145.5q1 249 426 249h32z" />
<glyph unicode="&#xe5;" horiz-adv-x="1022" d="M717 1378q0 88 -61.5 149.5t-149.5 61.5t-147 -61q-60 -62 -60 -150q0 -84 60 -146q59 -61 147 -61q89 0 150 61t61 146zM625 1378q0 -48 -34.5 -81.5t-84.5 -33.5q-48 0 -81.5 33.5t-33.5 81.5q0 50 33.5 84.5t81.5 34.5q50 0 84.5 -34.5t34.5 -84.5zM734 0h151 q-15 76 -15 253v404q0 424 -385 424q-189 0 -332 -90l40 -115q116 77 267 77q243 0 243 -261v-23q-306 0 -465 -100t-159 -293q0 -132 88 -215q87 -82 226 -82q211 0 320 157h6zM705 548v-197q0 -105 -84 -177q-80 -71 -190 -71q-83 0 -133.5 51.5t-50.5 144.5 q1 249 426 249h32z" />
<glyph unicode="&#xe6;" horiz-adv-x="1652" d="M1571 605q0 203 -109 338q-113 140 -291 140q-255 0 -362 -230h-4q-68 230 -334 230q-173 0 -318 -92l42 -115q109 80 263 80q112 0 181 -72t69 -181v-48q-308 0 -468.5 -96t-160.5 -285q0 -130 89 -213q88 -82 231 -82q134 0 235.5 63.5t149.5 176.5h5q43 -114 150 -177 q104 -64 274 -63.5t303 71.5l-33 121q-123 -60 -278 -60q-164 0 -253 106.5t-89 305.5h701q7 27 7 82zM1407 646h-544q11 136 90 223q81 91 202 91q107 0 181 -85q71 -84 71 -206v-23zM710 539v-167q0 -114 -78 -189q-81 -78 -198 -78q-83 0 -136 49.5t-53 134.5 q1 250 432 250h33z" />
<glyph unicode="&#xe7;" horiz-adv-x="956" d="M857 892l42 131q-103 58 -263 58q-246 0 -399 -158q-154 -159 -154 -404q0 -219 118 -365q117 -146 312 -169l-92 -163q169 -16 169 -94q0 -43 -39.5 -59.5t-89 -9t-84.5 29.5l-30 -88q58 -40 142 -40q221 0 221 176q0 60 -43 101.5t-108 50.5l56 90q157 1 282 61 l-34 127q-115 -54 -236 -54q-163 0 -268 114q-104 112 -104 299q0 182 100 299q102 120 278 120q127 0 224 -53z" />
<glyph unicode="&#xe8;" horiz-adv-x="1066" d="M289 1497l265 -309h121l-192 309h-194zM987 594q0 218 -112 352q-116 137 -310 137q-215 0 -349 -161q-133 -160 -133 -409q0 -240 134 -385q135 -147 370 -147q201 0 340 65l-30 121q-120 -56 -286 -56q-170 0 -266 104t-100 293h734q8 35 8 86zM822 631h-573 q16 147 97 238t204 91q130 0 201 -88t71 -241z" />
<glyph unicode="&#xe9;" horiz-adv-x="1066" d="M469 1188h118l266 309h-194zM987 594q0 218 -112 352q-116 137 -310 137q-215 0 -349 -161q-133 -160 -133 -409q0 -240 134 -385q135 -147 370 -147q201 0 340 65l-30 121q-120 -56 -286 -56q-170 0 -266 104t-100 293h734q8 35 8 86zM822 631h-573q16 147 97 238 t204 91q130 0 201 -88t71 -241z" />
<glyph unicode="&#xea;" horiz-adv-x="1066" d="M504 1497l-201 -309h126l130 208h4l127 -208h132l-207 309h-111zM987 594q0 218 -112 352q-116 137 -310 137q-215 0 -349 -161q-133 -160 -133 -409q0 -240 134 -385q135 -147 370 -147q201 0 340 65l-30 121q-120 -56 -286 -56q-170 0 -266 104t-100 293h734q8 35 8 86 zM822 631h-573q16 147 97 238t204 91q130 0 201 -88t71 -241z" />
<glyph unicode="&#xeb;" horiz-adv-x="1066" d="M477 1326q0 42 -27.5 72t-68.5 30q-42 0 -72.5 -30.5t-30.5 -71.5q0 -42 28.5 -72.5t70.5 -30.5q44 0 72 29t28 74zM868 1326q0 42 -28.5 72t-70.5 30q-41 0 -70.5 -30.5t-29.5 -71.5q0 -43 27.5 -73t70.5 -30q44 0 72.5 29.5t28.5 73.5zM987 594q0 218 -112 352 q-116 137 -310 137q-215 0 -349 -161q-133 -160 -133 -409q0 -240 134 -385q135 -147 370 -147q201 0 340 65l-30 121q-120 -56 -286 -56q-170 0 -266 104t-100 293h734q8 35 8 86zM822 631h-573q16 147 97 238t204 91q130 0 201 -88t71 -241z" />
<glyph unicode="&#xec;" horiz-adv-x="490" d="M-59 1497l266 -309h119l-192 309h-193zM163 1058v-1058h165v1058h-165z" />
<glyph unicode="&#xed;" horiz-adv-x="490" d="M157 1188h119l265 309h-192zM163 1058v-1058h165v1058h-165z" />
<glyph unicode="&#xee;" horiz-adv-x="490" d="M188 1497l-201 -309h126l128 208h4l129 -208h132l-205 309h-113zM163 1058v-1058h165v1058h-165z" />
<glyph unicode="&#xef;" horiz-adv-x="490" d="M151 1326q0 42 -27.5 72t-68.5 30q-44 0 -73.5 -30t-29.5 -72t28.5 -72.5t69.5 -30.5q44 0 72.5 29.5t28.5 73.5zM539 1326q0 42 -27.5 72t-68.5 30q-44 0 -73 -30t-29 -72t28 -72.5t70 -30.5q44 0 72 29t28 74zM163 1058v-1058h165v1058h-165z" />
<glyph unicode="&#xf0;" horiz-adv-x="1150" d="M1063 550q0 471 -369 780l230 112l-43 88l-272 -132q-112 87 -293 178l-75 -108q134 -70 228 -136l-254 -123l40 -87l304 143q162 -127 258 -292l-4 -7q-103 99 -246 99q-207 0 -342 -154q-139 -158 -139 -394q0 -242 135 -393q132 -149 346 -149q220 0 358 158t138 417z M889 531q0 -187 -88 -305q-89 -121 -234 -121q-135 0 -225 125q-87 120 -87 289q0 182 87 304q89 124 233 124q148 0 227 -95q87 -104 87 -321z" />
<glyph unicode="&#xf1;" horiz-adv-x="1182" d="M853 1444h-88q-5 -92 -55 -92q-20 0 -118 43q-95 42 -121 42q-64 0 -100 -57t-36 -151h90q7 99 58 99q13 0 42 -13q16 -8 65 -28q96 -43 123 -43q140 2 140 200zM1028 0v638q0 204 -98.5 323.5t-265.5 119.5q-115 0 -208 -54.5t-138 -143.5h-15v175h-150q10 -198 10 -276 v-782h165v644q0 124 83 212q81 87 198 87q250 0 250 -325v-618h169z" />
<glyph unicode="&#xf2;" horiz-adv-x="1167" d="M307 1497l265 -309h118l-190 309h-193zM1085 539q0 240 -135 389q-139 153 -358 153q-110 0 -205 -41.5t-163 -115.5q-141 -154 -141 -403q0 -238 137 -391q139 -155 355 -155q222 0 367 159q143 157 143 405zM912 533q0 -179 -94 -304q-93 -124 -237 -124 q-71 0 -133 33.5t-105 91.5q-90 122 -90 296q0 186 89 305q93 122 243 122q145 0 238 -121q89 -116 89 -299z" />
<glyph unicode="&#xf3;" horiz-adv-x="1167" d="M480 1188h118l265 309h-192zM1085 539q0 240 -135 389q-139 153 -358 153q-110 0 -205 -41.5t-163 -115.5q-141 -154 -141 -403q0 -238 137 -391q139 -155 355 -155q222 0 367 159q143 157 143 405zM912 533q0 -179 -94 -304q-93 -124 -237 -124q-71 0 -133 33.5 t-105 91.5q-90 122 -90 296q0 186 89 305q93 122 243 122q145 0 238 -121q89 -116 89 -299z" />
<glyph unicode="&#xf4;" horiz-adv-x="1167" d="M526 1497l-202 -309h128l129 208h4l128 -208h130l-205 309h-112zM1085 539q0 240 -135 389q-139 153 -358 153q-110 0 -205 -41.5t-163 -115.5q-141 -154 -141 -403q0 -238 137 -391q139 -155 355 -155q222 0 367 159q143 157 143 405zM912 533q0 -179 -94 -304 q-93 -124 -237 -124q-71 0 -133 33.5t-105 91.5q-90 122 -90 296q0 186 89 305q93 122 243 122q145 0 238 -121q89 -116 89 -299z" />
<glyph unicode="&#xf5;" horiz-adv-x="1167" d="M843 1444h-87q-5 -92 -57 -92q-20 0 -114 43q-94 42 -123 42q-64 0 -100 -57t-36 -151h90q8 99 57 99q14 0 108 -41q94 -43 122 -43q140 2 140 200zM1085 539q0 240 -135 389q-139 153 -358 153q-110 0 -205 -41.5t-163 -115.5q-141 -154 -141 -403q0 -238 137 -391 q139 -155 355 -155q222 0 367 159q143 157 143 405zM912 533q0 -179 -94 -304q-93 -124 -237 -124q-71 0 -133 33.5t-105 91.5q-90 122 -90 296q0 186 89 305q93 122 243 122q145 0 238 -121q89 -116 89 -299z" />
<glyph unicode="&#xf6;" horiz-adv-x="1167" d="M489 1326q0 42 -27.5 72t-68.5 30q-42 0 -73 -30.5t-31 -71.5q0 -42 28.5 -72.5t69.5 -30.5q44 0 73 29.5t29 73.5zM878 1326q0 42 -28.5 72t-69.5 30q-42 0 -71.5 -30t-29.5 -72q0 -43 28 -73t71 -30q44 0 72 29t28 74zM1085 539q0 240 -135 389q-139 153 -358 153 q-110 0 -205 -41.5t-163 -115.5q-141 -154 -141 -403q0 -238 137 -391q139 -155 355 -155q222 0 367 159q143 157 143 405zM912 533q0 -179 -94 -304q-93 -124 -237 -124q-71 0 -133 33.5t-105 91.5q-90 122 -90 296q0 186 89 305q93 122 243 122q145 0 238 -121 q89 -116 89 -299z" />
<glyph unicode="&#xf7;" horiz-adv-x="1305" d="M763 968q0 114 -108 115q-48 0 -78.5 -32t-30.5 -83q0 -49 31 -81t76 -32q110 0 110 113zM86 644v-118h1131v118h-1131zM761 199q0 117 -108 117q-48 0 -78.5 -33t-30.5 -84q0 -49 29.5 -80t77.5 -31q110 0 110 111z" />
<glyph unicode="&#xf8;" horiz-adv-x="1167" d="M1085 537q0 250 -154 404l90 135l-80 55l-88 -127q-118 77 -263 77h-3q-109 0 -202 -40.5t-161 -114.5q-141 -154 -141 -405q0 -255 158 -408l-90 -128l75 -62l92 129q116 -77 265 -77q220 0 360 157q142 160 142 405zM335 245l-4 2q-82 115 -82 279q0 93 25 171 q50 160 173 224q43 23 99 30.5t120.5 -8.5t111.5 -58zM922 533q0 -91 -25 -169q-50 -159 -178 -226q-44 -23 -98 -31t-115.5 7.5t-108.5 56.5l442 636l4 -2q79 -116 79 -272z" />
<glyph unicode="&#xf9;" horiz-adv-x="1171" d="M316 1497l265 -309h120l-193 309h-192zM870 0h149q-9 122 -9 280v778h-167v-655q0 -117 -84 -203q-80 -83 -196 -83q-121 -1 -181 86.5t-60 263.5v591h-167v-621q0 -225 92 -344q37 -47 96.5 -77.5t129.5 -37.5t140 8t135 63t107 124h15v-173z" />
<glyph unicode="&#xfa;" horiz-adv-x="1171" d="M502 1188h121l264 309h-193zM870 0h149q-9 122 -9 280v778h-167v-655q0 -117 -84 -203q-80 -83 -196 -83q-121 -1 -181 86.5t-60 263.5v591h-167v-621q0 -225 92 -344q37 -47 96.5 -77.5t129.5 -37.5t140 8t135 63t107 124h15v-173z" />
<glyph unicode="&#xfb;" horiz-adv-x="1171" d="M529 1497l-203 -309h128l127 208h4l130 -208h131l-206 309h-111zM870 0h149q-9 122 -9 280v778h-167v-655q0 -117 -84 -203q-80 -83 -196 -83q-121 -1 -181 86.5t-60 263.5v591h-167v-621q0 -225 92 -344q37 -47 96.5 -77.5t129.5 -37.5t140 8t135 63t107 124h15v-173z " />
<glyph unicode="&#xfc;" horiz-adv-x="1171" d="M498 1326q0 42 -28 72t-71 30q-42 0 -71 -30t-29 -72t28 -72.5t70 -30.5q44 0 72.5 29.5t28.5 73.5zM885 1326q0 42 -27.5 72t-68.5 30q-43 0 -72 -30t-29 -72q0 -43 27.5 -73t68.5 -30q44 0 72.5 29.5t28.5 73.5zM870 0h149q-9 122 -9 280v778h-167v-655 q0 -117 -84 -203q-80 -83 -196 -83q-121 -1 -181 86.5t-60 263.5v591h-167v-621q0 -225 92 -344q37 -47 96.5 -77.5t129.5 -37.5t140 8t135 63t107 124h15v-173z" />
<glyph unicode="&#xfd;" horiz-adv-x="994" d="M425 1188h121l265 309h-196zM800 1058l-217 -637q-53 -166 -68 -224h-7q-26 110 -67 219l-238 642h-182l382 -977q13 -32 13 -48q0 -19 -13 -46q-51 -118 -139 -204.5t-193 -123.5l46 -142q228 53 396 370q72 146 177 416l287 755h-177z" />
<glyph unicode="&#xfe;" horiz-adv-x="1211" d="M1129 544q0 233 -122 384q-124 153 -319 153q-243 -2 -355 -194h-5v577h-165v-1898h165v581h5q105 -172 324 -172q207 0 339 157q133 160 133 412zM960 539q0 -196 -89 -312q-91 -118 -233 -118q-124 0 -214 85q-96 91 -96 220v201q0 137 96 236q93 96 216 96 q142 0 232 -116q88 -115 88 -292z" />
<glyph unicode="&#xff;" horiz-adv-x="994" d="M425 1326q0 42 -28 72t-69 30t-70.5 -30.5t-29.5 -71.5q0 -42 28.5 -72.5t69.5 -30.5q44 0 71.5 29t27.5 74zM815 1326q0 42 -27.5 72t-70.5 30q-42 0 -72 -30.5t-30 -71.5q0 -42 29 -72.5t71 -30.5q44 0 72 29t28 74zM800 1058l-217 -637q-53 -166 -68 -224h-7 q-26 110 -67 219l-238 642h-182l382 -977q13 -32 13 -48q0 -19 -13 -46q-51 -118 -139 -204.5t-193 -123.5l46 -142q228 53 396 370q72 146 177 416l287 755h-177z" />
<glyph unicode="&#x100;" horiz-adv-x="1298" d="M393 1606h514v112h-514v-112zM749 1477h-193l-499 -1477h171l157 477h527l162 -477h175zM423 609l149 443q25 68 74 269h5q58 -228 74 -271l151 -441h-453z" />
<glyph unicode="&#x101;" horiz-adv-x="1022" d="M270 1295h484v114h-484v-114zM734 0h151q-15 84 -15 253v404q0 424 -385 424q-193 0 -332 -90l40 -115q116 77 267 77q243 3 243 -261v-23q-304 1 -464 -99q-76 -48 -117 -119t-44 -141t18 -134t61 -105q89 -96 236 -96q213 0 320 161h6zM705 548v-197q0 -33 -8 -62 q-27 -78 -90 -129q-77 -57 -176 -57q-82 0 -133 50.5t-51 145.5q0 260 458 249z" />
<glyph unicode="&#x102;" horiz-adv-x="1298" d="M487 1784h-106q4 -103 69 -164.5t194 -61.5q133 0 199.5 63t70.5 163h-103q-22 -107 -163 -107q-138 0 -161 107zM749 1477h-193l-499 -1477h171l157 477h527l162 -477h175zM423 609l149 443q25 68 74 269h5q51 -200 77 -271l148 -441h-453z" />
<glyph unicode="&#x103;" horiz-adv-x="1022" d="M769 1486h-100q-5 -65 -49.5 -109.5t-109.5 -44.5q-136 1 -157 154h-100q0 -120 68.5 -188.5t188.5 -68.5q119 0 189 69t70 188zM734 0h151q-15 84 -15 253v404q0 424 -385 424q-189 0 -332 -90l40 -115q116 77 267 77q243 0 243 -261v-23q-306 0 -465 -100t-159 -293 q0 -128 90 -216q87 -85 224 -85q213 0 320 161h6zM705 548v-197q0 -110 -86 -181q-81 -67 -188 -67q-82 0 -133 50.5t-51 145.5q1 249 426 249h32z" />
<glyph unicode="&#x104;" horiz-adv-x="1298" d="M749 1477h-193l-499 -1477h171l157 477h527l157 -471q-23 -21 -44 -50q-90 -118 -90 -219q0 -90 52 -136t146 -46q42 0 90 12.5t79 35.5l-29 90q-43 -24 -98 -24q-51 0 -80.5 30.5t-29.5 83.5q0 49 49 123q28 42 76 90l59 4zM423 609l149 443q25 68 74 269h5 q58 -228 74 -271l151 -441h-453z" />
<glyph unicode="&#x105;" horiz-adv-x="1022" d="M846 0h39q-15 84 -15 253v404q0 424 -385 424q-193 0 -332 -90l40 -115q116 77 267 77q243 3 243 -261v-23q-304 1 -464 -99q-76 -48 -117 -119t-44 -141t18 -134t61 -105q89 -96 236 -96q213 0 320 161h6l13 -132q-50 -78 -69 -118q-38 -81 -38 -154q0 -85 52.5 -132 t137.5 -47q104 0 174 48l-29 92q-42 -21 -101 -21q-48 0 -76.5 28t-28.5 81q0 95 92 219zM705 548v-197q0 -33 -8 -62q-27 -78 -90 -129q-77 -57 -176 -57q-82 0 -133 50.5t-51 145.5q0 260 458 249z" />
<glyph unicode="&#x106;" horiz-adv-x="1233" d="M657 1560h140l282 255h-213zM1122 1299l44 136q-122 64 -338 64q-338 0 -543 -213q-101 -104 -154 -257t-53.5 -309t53 -306t154.5 -247q193 -188 499 -188q247 0 382 67l-37 134q-126 -59 -307 -59q-270 0 -418 162q-149 163 -149 447q-2 299 159 466q74 77 173.5 118.5 t197 44.5t184 -12.5t153.5 -47.5z" />
<glyph unicode="&#x107;" horiz-adv-x="956" d="M460 1188h121l265 309h-195zM857 892l42 131q-103 58 -263 58q-248 -1 -400.5 -158.5t-152.5 -405.5q0 -245 140.5 -391.5t372.5 -146.5q176 0 299 61l-34 127q-82 -38 -167.5 -50.5t-178 13t-158.5 96.5q-102 116 -102 300t101.5 301.5t276.5 117.5q127 0 224 -53z" />
<glyph unicode="&#x108;" horiz-adv-x="1233" d="M563 1917l-201 -309h129l127 209h5l126 -209h134l-206 309h-114zM1122 1299l44 136q-122 64 -338 64q-167 0 -305 -55.5t-238 -158.5q-206 -212 -206 -560q0 -340 193 -544q191 -202 512 -202q249 0 382 67l-37 134q-126 -59 -307 -59q-270 0 -418 162q-149 163 -149 447 q0 144 39 262q77 231 297 323q102 46 256 43.5t275 -59.5z" />
<glyph unicode="&#x109;" horiz-adv-x="956" d="M431 1499l-201 -309h130l127 208h4l127 -208h133l-205 309h-115zM857 892l42 131q-103 58 -263 58q-246 0 -399 -158q-154 -159 -154 -406q0 -245 140 -391q141 -147 373 -147q178 0 299 61l-34 127q-115 -54 -234 -54q-163 0 -268 114q-104 112 -104 299q0 182 100 299 q102 120 278 120q127 0 224 -53z" />
<glyph unicode="&#x10a;" horiz-adv-x="1233" d="M723 1711q0 43 -27.5 73.5t-68.5 30.5q-44 0 -74 -30.5t-30 -73.5t30 -73t72 -30q40 0 69 29.5t29 73.5zM1122 1299l44 136q-122 64 -338 64q-167 0 -305 -55.5t-238 -158.5q-206 -212 -206 -560q0 -340 193 -544q191 -202 512 -202q249 0 382 67l-37 134 q-126 -59 -307 -59q-270 0 -418 162q-149 163 -149 447q0 144 39 262q77 231 297 323q102 46 256 43.5t275 -59.5z" />
<glyph unicode="&#x10b;" horiz-adv-x="956" d="M592 1293q0 42 -28 72.5t-69 30.5q-42 0 -72 -30.5t-30 -72.5q0 -44 29 -73.5t71 -29.5q40 0 69.5 29.5t29.5 73.5zM857 892l42 131q-103 58 -263 58q-246 0 -399 -158q-154 -159 -154 -406q0 -245 140 -391q141 -147 373 -147q178 0 299 61l-34 127q-115 -54 -234 -54 q-163 0 -268 114q-104 112 -104 299q0 182 100 299q102 120 278 120q127 0 224 -53z" />
<glyph unicode="&#x10c;" horiz-adv-x="1233" d="M1060 1808h-144l-142 -154h-5l-146 154h-150l230 -248h132zM1122 1299l44 136q-122 64 -338 64q-338 0 -543 -213q-101 -104 -154 -257t-53.5 -309t53 -306t154.5 -247q193 -188 499 -188q247 0 382 67l-37 134q-126 -59 -307 -59q-270 0 -418 162q-149 163 -149 447 q-2 299 159 466q74 77 173.5 118.5t197 44.5t184 -12.5t153.5 -47.5z" />
<glyph unicode="&#x10d;" horiz-adv-x="956" d="M567 1288h-4l-132 209h-132l207 -309h119l203 309h-129zM857 892l42 131q-103 58 -263 58q-248 -1 -400.5 -158.5t-152.5 -405.5q0 -245 140.5 -391.5t372.5 -146.5q176 0 299 61l-34 127q-82 -38 -167.5 -50.5t-178 13t-158.5 96.5q-102 116 -102 300t101.5 301.5 t276.5 117.5q127 0 224 -53z" />
<glyph unicode="&#x10e;" horiz-adv-x="1415" d="M922 1810h-146l-143 -154h-4l-144 154h-152l232 -248h129zM1334 776q0 335 -201 530q-197 182 -581 182q-191 0 -385 -31v-1455q121 -15 331 -15q415 -1 625.5 206t210.5 583zM1161 767q0 -313 -161 -478.5t-471 -165.5q-146 0 -196 9v1202q97 21 226 21 q297 -1 449.5 -152.5t152.5 -435.5z" />
<glyph unicode="&#x10f;" horiz-adv-x="1219" d="M1127 1212l69 -60q54 38 86 82q61 84 61 182q0 52 -24 97t-56 63l-128 -31q32 -26 52 -64t20 -78q0 -43 -14 -82.5t-28.5 -60.5t-37.5 -48zM897 0h148q-8 134 -8 263v1291h-167v-638h-4q-44 80 -127 122.5t-174.5 43t-185.5 -38.5t-158 -112q-138 -162 -138 -418 q0 -237 127.5 -387.5t318.5 -150.5q250 0 354 209h4zM870 631v-194q0 -132 -84 -228q-83 -98 -214 -98q-149 0 -239 123q-53 71 -72.5 181.5t1 224t77.5 188.5q56 76 138 104t157 11.5t131 -62.5q74 -66 98 -164q7 -35 7 -86z" />
<glyph unicode="&#x110;" horiz-adv-x="1426" d="M1345 774q0 347 -200 533t-582 186q-191 0 -385 -31v-645h-182v-133h182v-684q111 -15 330 -15q423 -2 632 210q205 212 205 579zM1173 771q0 -318 -161.5 -484t-472.5 -166q-135 0 -194 8v555h400v133h-400v522q100 20 224 20q298 -1 451 -152.5t153 -435.5z" />
<glyph unicode="&#x111;" horiz-adv-x="1198" d="M870 916h-4q-44 80 -127 122.5t-174.5 43t-185.5 -38.5t-158 -112q-138 -162 -138 -418q0 -237 127.5 -387.5t318.5 -150.5q250 0 354 209h4l10 -184h148q-8 134 -8 263v951h168v110h-168v230h-167v-230h-431v-110h431v-298zM870 631v-194q0 -132 -84 -228 q-83 -98 -214 -98q-149 0 -239 123q-53 71 -72.5 181.5t1 224t77.5 188.5q56 76 138 104t157 11.5t131 -62.5q74 -66 98 -164q7 -35 7 -86z" />
<glyph unicode="&#x112;" horiz-adv-x="1040" d="M307 1615h515v112h-515v-112zM333 138v565h566v138h-566v498h598v138h-764v-1477h797v138h-631z" />
<glyph unicode="&#x113;" horiz-adv-x="1066" d="M316 1295h484v114h-484v-114zM987 594q0 74 -14.5 143t-47.5 132.5t-81 110.5t-120 75t-159 28q-216 0 -350 -161q-132 -162 -132 -409q0 -241 136 -386.5t368 -145.5q201 0 340 65l-30 121q-124 -56 -286 -56q-165 0 -263.5 100t-102.5 297h734q8 35 8 86zM822 631h-573 q13 128 82 218q81 111 219 111t206 -94.5t66 -234.5z" />
<glyph unicode="&#x114;" horiz-adv-x="1040" d="M824 1843h-101q-4 -65 -48.5 -109t-109.5 -44q-136 0 -157 153h-101q0 -118 69 -187t189 -69t189.5 68.5t69.5 187.5zM333 138v565h566v138h-566v498h598v138h-764v-1477h797v138h-631z" />
<glyph unicode="&#x115;" horiz-adv-x="1066" d="M793 1453h-101q-4 -65 -48.5 -109.5t-108.5 -44.5q-137 2 -158 154h-101q0 -119 69 -188t190 -69q118 0 188 69t70 188zM987 594q0 218 -112 352q-116 137 -310 137q-215 0 -349 -161q-133 -160 -133 -409q0 -240 134 -385q135 -147 370 -147q201 0 340 65l-30 121 q-120 -56 -286 -56q-170 0 -266 104t-100 293h734q8 35 8 86zM822 631h-573q16 147 97 238t204 91q130 0 201 -88t71 -241z" />
<glyph unicode="&#x116;" horiz-adv-x="1040" d="M648 1683q0 43 -27.5 73t-68.5 30q-44 0 -73.5 -30t-29.5 -73q0 -47 31 -75t70 -28q33 0 61 22q37 31 37 81zM333 138v565h566v138h-566v498h598v138h-764v-1477h797v138h-631z" />
<glyph unicode="&#x117;" horiz-adv-x="1066" d="M655 1326q0 42 -27.5 72t-68.5 30q-44 0 -73.5 -30t-29.5 -72q0 -48 30.5 -75.5t69.5 -27.5q34 0 62 21q37 31 37 82zM987 594q0 74 -14.5 143t-47.5 132.5t-81 110.5t-120 75t-159 28q-216 0 -350 -161q-132 -162 -132 -409q0 -241 136 -386.5t368 -145.5q201 0 340 65 l-30 121q-124 -56 -286 -56q-165 0 -263.5 100t-102.5 297h734q8 35 8 86zM822 631h-573q13 128 82 218q81 111 219 111t206 -94.5t66 -234.5z" />
<glyph unicode="&#x118;" horiz-adv-x="1040" d="M964 138h-631v565h566v138h-566v498h598v138h-764v-1477h619q-68 -43 -117 -112q-58 -83 -58 -160q0 -83 52.5 -128t145.5 -45q99 0 166 42l-26 94q-48 -17 -96 -17q-47 0 -75.5 24.5t-28.5 67.5q0 58 57 125q54 62 127 107l31 2v138z" />
<glyph unicode="&#x119;" horiz-adv-x="1066" d="M987 594q0 74 -14.5 143t-47.5 132.5t-81 110.5t-120 75t-159 28q-216 0 -350 -161q-132 -162 -132 -409q0 -241 136 -386.5t368 -145.5h27q10 0 24 2v-2q-65 -47 -109 -106q-54 -73 -54 -147q0 -80 53 -125.5t141 -45.5q93 0 168 50l-28 88q-58 -21 -104 -21 q-39 0 -65.5 24.5t-26.5 71.5q0 64 68 137q63 70 134 97q34 18 112 42l-30 121q-124 -56 -286 -56q-165 0 -263.5 100t-102.5 297h734q8 35 8 86zM822 631h-573q13 128 82 218q81 111 219 111t206 -94.5t66 -234.5z" />
<glyph unicode="&#x11a;" horiz-adv-x="1040" d="M843 1806h-146l-143 -154h-4l-144 154h-151l232 -248h128zM333 138v565h566v138h-566v498h598v138h-764v-1477h797v138h-631z" />
<glyph unicode="&#x11b;" horiz-adv-x="1066" d="M565 1288h-4l-132 209h-134l209 -309h119l203 309h-129zM987 594q0 74 -14.5 143t-47.5 132.5t-81 110.5t-120 75t-159 28q-216 0 -350 -161q-132 -162 -132 -409q0 -241 136 -386.5t368 -145.5q201 0 340 65l-30 121q-124 -56 -286 -56q-165 0 -263.5 100t-102.5 297 h734q8 35 8 86zM822 631h-573q13 128 82 218q81 111 219 111t206 -94.5t66 -234.5z" />
<glyph unicode="&#x11c;" horiz-adv-x="1371" d="M605 1911l-202 -309h130l126 208h5l127 -208h133l-205 309h-114zM782 763v-134h303v-464q-81 -42 -259 -42q-264 0 -417 164q-154 165 -154 451q0 143 42 257q84 228 308 315q105 44 269.5 41t288.5 -61l44 136q-135 67 -352 67q-346 0 -564 -215q-103 -101 -157.5 -241 t-54.5 -307q0 -177 52 -314q101 -275 378 -379q93 -36 210.5 -48t258 5.5t271.5 68.5v700h-467z" />
<glyph unicode="&#x11d;" horiz-adv-x="1191" d="M502 1499l-201 -309h128l127 208h5l127 -208h134l-207 309h-113zM883 897h-5q-96 184 -326 184q-190 0 -322 -143q-147 -154 -147 -417q0 -226 125.5 -372.5t317.5 -146.5q233 0 335 182h5v-125q-2 -383 -343 -383q-167 0 -304 83l-46 -129q128 -86 342 -86 q233 0 370 125q148 133 148 484v616q0 155 8 289h-149zM866 648v-205q0 -50 -17 -104q-32 -97 -106 -151t-168 -54q-150 -1 -236 110t-86 289q0 187 88 302q89 114 236 114q122 0 205.5 -88.5t83.5 -212.5z" />
<glyph unicode="&#x11e;" horiz-adv-x="1371" d="M1037 1815h-106q-2 -53 -44 -86q-43 -42 -122 -42q-144 0 -167 128h-105q0 -105 69.5 -170t202.5 -65q124 0 198 64t74 171zM782 763v-134h303v-464q-81 -42 -259 -42q-264 0 -417 164q-154 165 -154 451q-1 283 161 450q76 78 181 119.5t208.5 44.5t195.5 -13.5 t162 -48.5l44 136q-135 67 -352 67q-232 0 -409.5 -98t-272 -271t-94.5 -394q0 -355 203 -552q93 -92 221 -141t260 -52.5t255 16.5t231 62v700h-467z" />
<glyph unicode="&#x11f;" horiz-adv-x="1191" d="M855 1486h-101q-1 -57 -41 -104q-18 -21 -48.5 -35t-66 -15.5t-68 10.5t-58 49t-33.5 95h-102q1 -107 60 -175q67 -82 199 -82q119 0 189 69t70 188zM883 897h-5q-96 184 -326 184q-190 0 -322 -143q-147 -156 -147 -417q0 -226 125.5 -372.5t317.5 -146.5q233 0 335 182 h5v-125q-2 -383 -343 -383q-170 0 -304 83l-46 -129q128 -86 342 -86q233 0 370 125q148 133 148 484v616q0 155 8 289h-149zM866 648v-205q0 -55 -17 -104q-32 -97 -106 -151t-168 -54q-150 -1 -236 110t-86 289q0 187 88 302q89 114 236 114q122 0 205.5 -88.5 t83.5 -212.5z" />
<glyph unicode="&#x120;" horiz-adv-x="1371" d="M765 1705q0 42 -27.5 72.5t-68.5 30.5q-44 0 -74 -30.5t-30 -72.5q0 -44 30 -73.5t72 -29.5q39 0 68.5 30t29.5 73zM782 763v-134h303v-464q-81 -42 -259 -42q-264 0 -417 164q-154 165 -154 451q0 143 42 257q84 228 308 315q105 44 269.5 41t288.5 -61l44 136 q-135 67 -352 67q-346 0 -564 -215q-103 -101 -157.5 -241t-54.5 -307q0 -177 52 -314q101 -275 378 -379q93 -36 210.5 -48t258 5.5t271.5 68.5v700h-467z" />
<glyph unicode="&#x121;" horiz-adv-x="1191" d="M661 1293q0 42 -27.5 72.5t-68.5 30.5q-44 0 -73.5 -30.5t-29.5 -72.5q0 -44 29.5 -73.5t71.5 -29.5q40 0 69 29.5t29 73.5zM883 897h-5q-96 184 -326 184q-190 0 -322 -143q-147 -154 -147 -417q0 -226 125.5 -372.5t317.5 -146.5q233 0 335 182h5v-125 q-2 -383 -343 -383q-167 0 -304 83l-46 -129q128 -86 342 -86q233 0 370 125q148 133 148 484v616q0 155 8 289h-149zM866 648v-205q0 -50 -17 -104q-32 -97 -106 -151t-168 -54q-150 -1 -236 110t-86 289q0 187 88 302q89 114 236 114q122 0 205.5 -88.5t83.5 -212.5z" />
<glyph unicode="&#x122;" horiz-adv-x="1371" d="M782 763v-134h303v-464q-81 -42 -259 -42q-264 0 -417 164q-154 165 -154 451q-1 283 161 450q76 78 181 119.5t208.5 44.5t195.5 -13.5t162 -48.5l44 136q-135 67 -352 67q-232 0 -409.5 -98t-272 -271t-94.5 -394q0 -355 203 -552q93 -92 221 -141t260 -52.5t255 16.5 t231 62v700h-467zM607 -406l35 -81q107 5 184 60q88 63 88 172q0 50 -25.5 92.5t-62.5 66.5l-129 -31q77 -60 77 -132q0 -62 -47 -98t-120 -49z" />
<glyph unicode="&#x123;" horiz-adv-x="1191" d="M767 1472l-37 77q-106 -5 -182 -58q-90 -61 -90 -165q0 -48 26 -90t62 -65l127 27q-79 64 -79 132q0 61 49 96t124 46zM883 897h-5q-96 184 -326 184q-190 0 -322 -143q-147 -156 -147 -417q0 -226 125.5 -372.5t317.5 -146.5q233 0 335 182h5v-125q-2 -383 -343 -383 q-170 0 -304 83l-46 -129q128 -86 342 -86q233 0 370 125q148 133 148 484v616q0 155 8 289h-149zM866 648v-205q0 -55 -17 -104q-32 -97 -106 -151t-168 -54q-150 -1 -236 110t-86 289q0 187 88 302q89 114 236 114q122 0 205.5 -88.5t83.5 -212.5z" />
<glyph unicode="&#x124;" horiz-adv-x="1386" d="M633 1896l-202 -309h130l127 207h4l128 -207h133l-206 309h-114zM1054 1477v-628h-721v628h-166v-1477h166v705h721v-705h167v1477h-167z" />
<glyph unicode="&#x125;" horiz-adv-x="1182" d="M535 1972l-202 -309h129l128 208h4l127 -208h134l-207 309h-113zM1028 0v638q0 209 -97.5 326t-263.5 117q-102 0 -193 -52t-141 -140h-5v665h-165v-1554h165v644q0 120 85 210q84 89 196 89q250 0 250 -325v-618h169z" />
<glyph unicode="&#x126;" horiz-adv-x="1386" d="M1221 1280v197h-167v-197h-721v197h-166v-197h-142v-130h142v-1150h166v705h721v-705h167v1150h136v130h-136zM333 1150h721v-301h-721v301z" />
<glyph unicode="&#x127;" horiz-adv-x="1182" d="M328 1345v209h-165v-209h-138v-128h138v-1217h165v644q0 120 85 210q84 89 196 89q250 0 250 -325v-618h169v638q0 209 -97.5 326t-263.5 117q-102 0 -193 -52t-141 -140h-5v328h262v128h-262z" />
<glyph unicode="&#x128;" horiz-adv-x="500" d="M521 1779h-90q-6 -89 -61 -89q-20 0 -110 41q-95 42 -126 42q-68 0 -104 -55t-36 -149h89q9 94 59 94q12 0 41 -13q15 -7 66 -28q96 -42 130 -42q142 0 142 199zM167 1477v-1477h166v1477h-166z" />
<glyph unicode="&#x129;" horiz-adv-x="490" d="M504 1444h-86q-6 -92 -56 -92q-24 0 -118 43q-94 42 -119 42q-67 0 -102.5 -56.5t-35.5 -151.5h90q9 99 59 99q14 0 108 -41q94 -43 120 -43q140 2 140 200zM163 1058v-1058h165v1058h-165z" />
<glyph unicode="&#x12a;" horiz-adv-x="500" d="M-9 1615h517v112h-517v-112zM167 1477v-1477h166v1477h-166z" />
<glyph unicode="&#x12b;" horiz-adv-x="490" d="M4 1295h485v114h-485v-114zM163 1058v-1058h165v1058h-165z" />
<glyph unicode="&#x12c;" horiz-adv-x="500" d="M513 1843h-101q-4 -65 -48.5 -109t-108.5 -44q-137 0 -159 153h-100q0 -118 69.5 -187t189.5 -69q118 0 188 69t70 187zM167 1477v-1477h166v1477h-166z" />
<glyph unicode="&#x12d;" horiz-adv-x="490" d="M508 1428h-100q-5 -64 -49.5 -108.5t-109.5 -44.5q-136 0 -157 153h-101q0 -118 69 -186.5t189 -68.5q119 0 189 68.5t70 186.5zM163 1058v-1058h165v1058h-165z" />
<glyph unicode="&#x12e;" horiz-adv-x="500" d="M333 1477h-166v-1477q-47 -64 -73 -118q-39 -80 -39 -154q0 -90 53.5 -136t144.5 -46q105 0 170 46l-28 90q-41 -19 -100 -19q-50 0 -80.5 28.5t-30.5 82.5q0 60 35 128q17 35 61 98h53v1477z" />
<glyph unicode="&#x12f;" horiz-adv-x="490" d="M357 1376q0 49 -31.5 82t-80.5 33q-48 0 -79.5 -33.5t-31.5 -81.5q0 -57 37 -88q28 -25 69.5 -25.5t77.5 23.5q39 33 39 90zM328 1058h-165v-1058q-108 -146 -108 -272q0 -89 52 -135.5t140 -46.5q108 0 171 46l-25 90q-48 -19 -102 -19q-50 0 -79.5 28t-29.5 83 q0 29 11 64q24 74 57 120l30 42h48v1058z" />
<glyph unicode="&#x130;" horiz-adv-x="500" d="M351 1683q0 43 -27.5 73t-68.5 30q-44 0 -74 -30.5t-30 -72.5q0 -47 31.5 -75t70.5 -28q33 0 61 22q37 31 37 81zM167 1477v-1477h166v1477h-166z" />
<glyph unicode="&#x131;" horiz-adv-x="490" d="M163 1058v-1058h165v1058h-165z" />
<glyph unicode="&#x132;" horiz-adv-x="1281" d="M167 1477v-1477h166v1477h-166zM964 1477v-984q0 -203 -63 -288q-39 -53 -111 -73.5t-135.5 -14t-115.5 26.5l-26 -135q78 -34 190 -34q428 0 428 500v1002h-167z" />
<glyph unicode="&#x133;" horiz-adv-x="998" d="M357 1376q3 48 -29.5 81.5t-82.5 33.5q-48 0 -79.5 -33.5t-31.5 -81.5q0 -50 31.5 -81.5t77.5 -31.5q50 0 82 31.5t32 81.5zM870 1376q2 48 -30.5 81.5t-80.5 33.5q-50 0 -82.5 -33t-32.5 -82q0 -53 33.5 -83t76.5 -30q52 0 84 32t32 81zM163 1058v-1058h165v1058h-165z M673 1058v-901q0 -280 -51 -374q-29 -53 -84 -78t-145 -31l19 -134q217 5 319 129q110 136 110 419v970h-168z" />
<glyph unicode="&#x134;" horiz-adv-x="780" d="M475 1896l-201 -309h129l128 207h4l126 -207h134l-205 309h-115zM462 1477v-984q0 -203 -63 -288q-39 -53 -111 -73.5t-135.5 -14t-115.5 26.5l-26 -135q78 -34 190 -34q428 0 428 500v1002h-167z" />
<glyph unicode="&#x135;" horiz-adv-x="508" d="M197 1477l-201 -309h129l128 208h4l126 -208h134l-206 309h-114zM182 1058v-901q0 -280 -51 -374q-29 -53 -84 -78t-145 -31l19 -134q217 5 319 129q111 138 111 419v970h-169z" />
<glyph unicode="&#x136;" horiz-adv-x="1141" d="M1120 1477h-204l-458 -563q-63 -75 -119 -158h-6v721h-166v-1477h166v577l140 161l493 -738h197l-573 851zM427 -393l35 -82q112 9 185 60q87 62 87 172q0 50 -26 92t-62 65l-127 -31q32 -25 53.5 -60t21.5 -70q0 -117 -167 -146z" />
<glyph unicode="&#x137;" horiz-adv-x="983" d="M947 1058h-202l-320 -372q-56 -68 -92 -121h-5v989h-165v-1554h165v410l99 109l373 -519h202l-461 621zM326 -406l36 -81q107 5 184 60q87 64 87 172q0 49 -25.5 92t-61.5 67l-128 -31q75 -59 75 -132q0 -62 -47 -98t-120 -49z" />
<glyph unicode="&#x138;" horiz-adv-x="983" d="M947 1058h-202l-320 -372q-56 -68 -92 -121h-5v493h-165v-1058h165v410l99 109l373 -519h202l-461 621z" />
<glyph unicode="&#x139;" horiz-adv-x="1000" d="M186 1556h140l281 254h-212zM333 140v1337h-166v-1477h791v140h-625z" />
<glyph unicode="&#x13a;" horiz-adv-x="490" d="M134 1617h136l282 254h-211zM163 1554v-1554h165v1554h-165z" />
<glyph unicode="&#x13b;" horiz-adv-x="1000" d="M333 140v1337h-166v-1477h791v140h-625zM372 -399l38 -81q108 7 182 59q90 64 90 174q0 49 -26 91.5t-62 65.5l-130 -31q33 -25 55 -60.5t22 -71.5q0 -62 -47.5 -97.5t-121.5 -48.5z" />
<glyph unicode="&#x13c;" horiz-adv-x="490" d="M163 1554v-1554h165v1554h-165zM77 -399l34 -81q112 7 185 59q87 62 87 174q0 47 -26 90.5t-62 66.5l-126 -31q32 -25 53 -60.5t21 -71.5q0 -62 -46.5 -97.5t-119.5 -48.5z" />
<glyph unicode="&#x13d;" horiz-adv-x="1000" d="M521 1192l38 -81q107 5 184 59q87 62 87 173q0 50 -25.5 92.5t-61.5 65.5l-130 -31q33 -25 55 -60.5t22 -70.5q0 -63 -47.5 -98.5t-121.5 -48.5zM333 140v1337h-166v-1477h791v140h-625z" />
<glyph unicode="&#x13e;" horiz-adv-x="508" d="M414 1209l75 -59l15 12q14 13 21.5 20t21 21.5t24.5 28.5q58 77 58 177q0 55 -23.5 100.5t-55.5 63.5l-125 -30q31 -25 50.5 -63.5t19.5 -78.5q0 -100 -81 -192zM163 1554v-1554h165v1554h-165z" />
<glyph unicode="&#x13f;" horiz-adv-x="1000" d="M333 140v1337h-166v-1477h791v140h-625zM789 887q0 57 -32.5 92t-83.5 35q-52 0 -85.5 -35t-33.5 -92t34 -90.5t81 -33.5q51 0 85.5 33t34.5 91z" />
<glyph unicode="&#x140;" horiz-adv-x="772" d="M163 1554v-1554h165v1554h-165zM723 887q0 57 -32.5 92t-83.5 35q-53 0 -85.5 -35t-32.5 -92t33.5 -90.5t79.5 -33.5q51 0 86 33t35 91z" />
<glyph unicode="&#x141;" horiz-adv-x="1010" d="M341 140v577l295 216v136l-295 -216v624h-166v-743l-184 -138v-134l184 138v-600h791v140h-625z" />
<glyph unicode="&#x142;" horiz-adv-x="506" d="M337 922v632h-166v-763l-152 -132v-138l152 132v-653h166v784l156 136v138z" />
<glyph unicode="&#x143;" horiz-adv-x="1401" d="M602 1556h141l280 254h-212zM1079 1477v-645q0 -376 19 -608l-4 -3q-106 225 -264 480l-485 776h-178v-1477h157v655q0 420 -15 610l7 2q89 -195 271 -491l482 -776h165v1477h-155z" />
<glyph unicode="&#x144;" horiz-adv-x="1182" d="M504 1188h121l264 309h-195zM1028 0v638q0 95 -21 171.5t-55.5 126.5t-82 83.5t-98.5 47.5t-107 14q-118 -1 -208.5 -56t-137.5 -142h-7l-8 175h-150q10 -198 10 -276v-782h165v644q0 48 13 90q30 93 102.5 151t165.5 58q250 0 250 -325v-618h169z" />
<glyph unicode="&#x145;" horiz-adv-x="1401" d="M1079 1477v-645q0 -376 19 -608l-4 -3q-106 225 -264 480l-485 776h-178v-1477h157v655q0 420 -15 610l7 2q89 -195 271 -491l482 -776h165v1477h-155zM544 -397l35 -80q108 5 184 58q88 63 88 172q0 51 -26 93.5t-62 65.5l-127 -31q32 -24 53 -59.5t21 -70.5 q0 -119 -166 -148z" />
<glyph unicode="&#x146;" horiz-adv-x="1182" d="M1028 0v638q0 95 -21 171.5t-55.5 126.5t-82 83.5t-98.5 47.5t-107 14q-118 -1 -208.5 -56t-137.5 -142h-7l-8 175h-150q10 -198 10 -276v-782h165v644q0 48 13 90q30 93 102.5 151t165.5 58q250 0 250 -325v-618h169zM439 -401l36 -84q114 13 183 61q89 62 89 171 q0 49 -26 92t-62 67l-128 -31q76 -61 76 -132q0 -62 -47.5 -97.5t-120.5 -46.5z" />
<glyph unicode="&#x147;" horiz-adv-x="1401" d="M997 1794h-146l-143 -153h-5l-144 153h-151l232 -245h129zM1079 1477v-645q0 -376 19 -608l-4 -3q-106 225 -264 480l-485 776h-178v-1477h157v655q0 420 -15 610l7 2q89 -195 271 -491l482 -776h165v1477h-155z" />
<glyph unicode="&#x148;" horiz-adv-x="1182" d="M596 1288h-4l-132 209h-134l209 -309h118l204 309h-129zM1028 0v638q0 95 -21 171.5t-55.5 126.5t-82 83.5t-98.5 47.5t-107 14q-118 -1 -208.5 -56t-137.5 -142h-7l-8 175h-150q10 -198 10 -276v-782h165v644q0 48 13 90q30 93 102.5 151t165.5 58q250 0 250 -325v-618 h169z" />
<glyph unicode="&#x149;" horiz-adv-x="1412" d="M379 1514l-178 -19q-44 -275 -124 -500l107 13q110 191 195 506zM1223 0v638q0 204 -98.5 323.5t-265.5 119.5q-117 0 -209.5 -54.5t-136.5 -143.5h-15v175h-149q8 -158 8 -276v-782h166v644q0 124 83 212q81 87 199 87q249 0 249 -325v-618h169z" />
<glyph unicode="&#x14a;" horiz-adv-x="1401" d="M1079 1477v-645q0 -376 19 -608l-4 -3q-106 225 -264 480l-485 776h-178v-1477h157v655q0 420 -15 610l7 2q89 -195 271 -491l473 -763l-6 -84q-18 -139 -75 -192q-58 -55 -195 -63l21 -134q159 4 258 72q148 102 169 388h2v1477h-155z" />
<glyph unicode="&#x14b;" horiz-adv-x="1182" d="M1028 0v638q0 204 -98.5 323.5t-265.5 119.5q-115 0 -208 -54.5t-138 -143.5h-15v175h-150q10 -198 10 -276v-782h165v644q0 124 83 212q81 87 198 87q250 0 250 -325v-461q0 -280 -51 -374q-29 -53 -83.5 -78t-145.5 -31l19 -134q166 4 262.5 73.5t138.5 226.5 q20 69 26 160h3z" />
<glyph unicode="&#x14c;" horiz-adv-x="1461" d="M483 1617h516v112h-516v-112zM1382 754q0 220 -79 389.5t-225 263.5t-338 94q-286 0 -470 -211q-124 -138 -169 -343.5t-5 -407.5t151 -340q179 -224 476 -224q202 0 353 103t228.5 278.5t77.5 397.5zM1205 745q0 -252 -116 -431q-64 -99 -161 -151.5t-197 -52.5 t-197.5 51.5t-161.5 147.5q-119 175 -119 421q-1 132 31 247.5t92 201.5t152 136t204 50q110 0 200.5 -51t149.5 -137t91 -197.5t32 -234.5z" />
<glyph unicode="&#x14d;" horiz-adv-x="1167" d="M345 1286h483v115h-483v-115zM1085 539q0 154 -59 276.5t-172 194t-262 71.5q-236 0 -375 -165q-134 -155 -134 -395q0 -154 59.5 -277.5t172.5 -196t260 -72.5q236 0 376 167q134 155 134 397zM912 533q0 -175 -91 -301.5t-240 -126.5q-157 0 -248 138 q-80 121 -81 287.5t79 284.5q87 138 254 138q159 0 247 -136q80 -118 80 -284z" />
<glyph unicode="&#x14e;" horiz-adv-x="1461" d="M989 1867h-102q-4 -64 -48.5 -108.5t-108.5 -44.5q-136 0 -158 153h-101q0 -119 69 -188t190 -69q119 0 189 69t70 188zM1382 754q0 330 -174 539q-83 99 -204 153.5t-264 54.5q-142 0 -264 -56.5t-210 -159.5q-89 -104 -138 -247.5t-49 -312.5q0 -330 180 -537 q88 -102 206.5 -157.5t257.5 -55.5q294 0 479 218q180 213 180 561zM1205 745q0 -274 -130 -451q-65 -87 -153.5 -135t-193.5 -48q-102 0 -190.5 48t-152.5 133q-132 173 -132 438q0 279 132 457q63 85 152 131.5t195 46.5q208 0 341 -178q132 -180 132 -442z" />
<glyph unicode="&#x14f;" horiz-adv-x="1167" d="M841 1451h-101q-4 -65 -48.5 -109.5t-108.5 -44.5q-137 2 -158 154h-101q0 -119 69 -188t190 -69q118 0 188 69t70 188zM1085 539q0 240 -135 389q-139 153 -358 153q-110 0 -205 -41.5t-163 -115.5q-141 -154 -141 -403q0 -238 137 -391q139 -155 355 -155 q222 0 367 159q143 157 143 405zM912 533q0 -179 -94 -304q-93 -124 -237 -124q-71 0 -133 33.5t-105 91.5q-90 122 -90 296q0 186 89 305q93 122 243 122q145 0 238 -121q89 -116 89 -299z" />
<glyph unicode="&#x150;" horiz-adv-x="1461" d="M510 1576h126l247 243h-193zM820 1576h125l249 243h-195zM1382 754q0 220 -79 389.5t-225 263.5t-338 94q-286 0 -470 -211q-124 -138 -169 -343.5t-5 -407.5t151 -340q179 -224 476 -224q202 0 353 103t228.5 278.5t77.5 397.5zM1205 745q0 -252 -116 -431 q-64 -99 -161 -151.5t-197 -52.5t-197.5 51.5t-161.5 147.5q-119 175 -119 421q-1 132 31 247.5t92 201.5t152 136t204 50q110 0 200.5 -51t149.5 -137t91 -197.5t32 -234.5z" />
<glyph unicode="&#x151;" horiz-adv-x="1167" d="M339 1203h106l245 294h-173zM640 1203h107l246 294h-173zM1085 539q0 154 -59 276.5t-172 194t-262 71.5q-236 0 -375 -165q-134 -155 -134 -395q0 -154 59.5 -277.5t172.5 -196t260 -72.5q236 0 376 167q134 155 134 397zM912 533q0 -175 -91 -301.5t-240 -126.5 q-157 0 -248 138q-80 121 -81 287.5t79 284.5q87 138 254 138q159 0 247 -136q80 -118 80 -284z" />
<glyph unicode="&#x152;" horiz-adv-x="1901" d="M1192 138v565h563v138h-563v498h598v138h-679q-59 0 -158 12t-162 12q-324 0 -518 -210q-94 -101 -144 -245.5t-50 -317.5q0 -341 191 -544q94 -100 224 -154.5t284 -54.5q42 0 159 14q105 11 159 11h727v138h-631zM1025 1332v-1190q-83 -31 -216 -31q-259 0 -407 170 q-147 167 -147 455q0 286 146 457q147 172 390 172q131 0 234 -33z" />
<glyph unicode="&#x153;" horiz-adv-x="1851" d="M1771 596q0 217 -111 350q-115 137 -301 137q-269 0 -384 -261h-5q-45 124 -149.5 192.5t-243.5 68.5q-214 0 -356 -157q-138 -152 -138 -403q0 -243 136 -395q63 -71 152.5 -110t191.5 -39q139 0 245 66.5t160 190.5h5q43 -98 119 -159.5t159.5 -82t173.5 -18.5t164 22 t129 50l-35 121q-144 -58 -276 -58q-161 0 -257 105t-96 294h710q7 27 7 86zM1604 633h-552q12 141 90 233q80 94 199 94q123 0 193 -90t70 -237zM897 531q0 -188 -89 -305q-91 -121 -231 -121q-142 0 -232 124t-90 300q0 187 85 304q90 123 235 123q144 0 234 -120 q88 -118 88 -305z" />
<glyph unicode="&#x154;" horiz-adv-x="1138" d="M445 1556h140l281 254h-213zM916 0h173q-36 66 -112 401q-54 247 -218 304v8q89 30 151 82.5t90 113t36 127.5t-5.5 129t-40 115t-63.5 87q-133 121 -414 121q-195 0 -346 -31v-1457h166v651h186q130 0 198.5 -68t104.5 -228q63 -299 94 -355zM870 1069 q0 -133 -91.5 -212t-247.5 -79h-198v563q60 16 188 16q349 -1 349 -288z" />
<glyph unicode="&#x155;" horiz-adv-x="685" d="M272 1188h121l264 309h-195zM657 918v158q-19 5 -50 5q-98 0 -176 -62t-115 -168h-7l-6 207h-148q10 -154 10 -322l-2 -736h165v572q2 96 32 174t91.5 127t144.5 49q38 0 61 -4z" />
<glyph unicode="&#x156;" horiz-adv-x="1138" d="M916 0h173q-36 66 -112 401q-54 247 -218 304v8q89 30 151 82.5t90 113t36 127.5t-5.5 129t-40 115t-63.5 87q-133 121 -414 121q-195 0 -346 -31v-1457h166v651h186q130 0 198.5 -68t104.5 -228q63 -299 94 -355zM870 1069q0 -133 -91.5 -212t-247.5 -79h-198v563 q60 16 188 16q349 -1 349 -288zM408 -383l37 -81q107 5 182 59q90 65 90 171q0 51 -26 94t-62 63l-129 -28q33 -26 55 -61t22 -70q0 -118 -169 -147z" />
<glyph unicode="&#x157;" horiz-adv-x="685" d="M657 918v158q-19 5 -50 5q-98 0 -176 -62t-115 -168h-7l-6 207h-148q10 -154 10 -322l-2 -736h165v572q2 96 32 174t91.5 127t144.5 49q38 0 61 -4zM86 -399l35 -81q109 7 184 59q88 61 88 174q0 47 -26 90.5t-62 66.5l-127 -31q33 -25 55 -60.5t22 -71.5 q0 -62 -47.5 -97.5t-121.5 -48.5z" />
<glyph unicode="&#x158;" horiz-adv-x="1138" d="M839 1813h-145l-142 -155h-4l-147 155h-148l230 -249h130zM916 0h173q-36 66 -112 401q-54 247 -218 304v8q89 30 151 82.5t90 113t36 127.5t-5.5 129t-40 115t-63.5 87q-133 121 -414 121q-195 0 -346 -31v-1457h166v651h186q130 0 198.5 -68t104.5 -228 q63 -299 94 -355zM870 1069q0 -133 -91.5 -212t-247.5 -79h-198v563q60 16 188 16q349 -1 349 -288z" />
<glyph unicode="&#x159;" horiz-adv-x="685" d="M642 1518h-134l-131 -212h-5l-131 212h-138l208 -311h128zM657 918v158q-19 5 -50 5q-98 0 -176 -62t-115 -168h-7l-6 207h-148q10 -154 10 -322l-2 -736h165v572q2 96 32 174t91.5 127t144.5 49q38 0 61 -4z" />
<glyph unicode="&#x15a;" horiz-adv-x="1042" d="M431 1556h141l281 254h-213zM949 397q0 153 -88.5 255t-279.5 178q-159 67 -221 126q-70 69 -70.5 167.5t63.5 160.5q79 76 230.5 76.5t257.5 -67.5l51 135q-122 71 -311 71q-204 -1 -331 -110t-127 -283q0 -271 379 -416q150 -54 214 -125t64 -182q0 -121 -84.5 -192.5 t-233.5 -71.5q-180 0 -326 92l-46 -138q90 -63 227.5 -85.5t279.5 6.5t229 109q123 115 123 294z" />
<glyph unicode="&#x15b;" horiz-adv-x="838" d="M333 1188h121l265 309h-196zM749 291q0 211 -272 318q-99 40 -151 81q-50 45 -50 110q0 68 49 110.5t133 42.5q117 0 211 -61l46 124q-104 65 -251 65q-157 0 -252 -87t-95 -216q-2 -191 270 -295q113 -44 156.5 -90t43.5 -119q0 -77 -52 -119q-59 -50 -161 -50 q-128 0 -245 75l-43 -130q119 -71 284 -71q177 0 278 83.5t101 228.5z" />
<glyph unicode="&#x15c;" horiz-adv-x="1042" d="M460 1917l-201 -309h128l128 209h4l127 -209h134l-205 309h-115zM949 397q0 151 -85.5 253t-282.5 180q-174 73 -230 134q-62 66 -62 165q0 105 79 169q78 63 222 62t251 -67l51 135q-124 71 -311 71q-200 0 -329 -110t-129 -283q0 -274 379 -416q151 -57 214.5 -126.5 t63.5 -180.5q0 -121 -84.5 -192.5t-233.5 -71.5q-180 0 -326 92l-46 -138q133 -94 362 -94t362 113q135 115 135 305z" />
<glyph unicode="&#x15d;" horiz-adv-x="838" d="M357 1499l-202 -309h130l127 208h4l128 -208h133l-206 309h-114zM749 291q0 211 -272 318q-111 41 -156 86t-45 105q0 68 49 110.5t133 42.5q117 0 211 -61l46 124q-104 65 -251 65q-157 0 -252 -87t-95 -216q-2 -188 270 -295q113 -44 156.5 -90t43.5 -119 q0 -78 -57 -123.5t-156 -45.5q-131 0 -245 75l-43 -130q119 -71 284 -71q177 0 278 83.5t101 228.5z" />
<glyph unicode="&#x15e;" horiz-adv-x="1042" d="M669 -263q0 59 -44.5 101t-109.5 51l64 100q147 23 247 114q123 115 123 294q0 153 -88.5 255t-279.5 178q-159 67 -221 126q-70 69 -70.5 167.5t63.5 160.5q79 76 230.5 76.5t257.5 -67.5l51 135q-122 71 -311 71q-204 -1 -331 -110t-127 -283q0 -271 379 -416 q150 -54 214 -125t64 -182q0 -121 -84.5 -192.5t-233.5 -71.5q-180 0 -326 92l-46 -138q133 -94 362 -94h15l-90 -157q169 -16 171 -94q0 -43 -38.5 -59.5t-87.5 -9t-89 29.5l-30 -88q61 -40 144 -40q222 0 222 176z" />
<glyph unicode="&#x15f;" horiz-adv-x="838" d="M412 -111l61 98q103 15 173 76q103 85 103 228q0 211 -272 318q-99 40 -151 81q-50 45 -50 110q0 68 49 110.5t133 42.5q117 0 211 -61l46 124q-104 65 -251 65q-157 0 -252 -87t-95 -216q-2 -191 270 -295q113 -44 156.5 -90t43.5 -119q0 -77 -52 -119q-59 -50 -161 -50 q-128 0 -245 75l-43 -130q119 -70 276 -71l-88 -157q168 -15 169 -94q2 -43 -37.5 -59.5t-90 -8.5t-85.5 29l-31 -88q58 -40 142 -40q222 0 222 176q0 60 -43 101.5t-108 50.5z" />
<glyph unicode="&#x160;" horiz-adv-x="1042" d="M552 1646h-4l-142 164h-143l224 -254h124l219 254h-140zM949 397q0 151 -85.5 253t-282.5 180q-174 73 -230 134q-62 66 -62 165q0 105 79 169q78 63 222 62t251 -67l51 135q-124 71 -311 71q-200 0 -329 -110t-129 -283q0 -274 379 -416q151 -57 214.5 -126.5 t63.5 -180.5q0 -121 -84.5 -192.5t-233.5 -71.5q-180 0 -326 92l-46 -138q133 -94 362 -94t362 113q135 115 135 305z" />
<glyph unicode="&#x161;" horiz-adv-x="838" d="M434 1288h-5l-130 209h-134l207 -309h117l203 309h-129zM749 291q0 211 -272 318q-111 41 -156 86t-45 105q0 68 49 110.5t133 42.5q117 0 211 -61l46 124q-104 65 -251 65q-157 0 -252 -87t-95 -216q-2 -188 270 -295q113 -44 156.5 -90t43.5 -119q0 -78 -57 -123.5 t-156 -45.5q-131 0 -245 75l-43 -130q119 -71 284 -71q177 0 278 83.5t101 228.5z" />
<glyph unicode="&#x162;" horiz-adv-x="1048" d="M582 0l-72 -111q66 -9 110 -51t44 -101q0 -176 -221 -176q-83 0 -144 40l29 88q40 -22 89.5 -29.5t88 9t38.5 59.5q0 78 -172 94l103 178h-34v1336h-445v141h1060v-141h-449v-1336h-25z" />
<glyph unicode="&#x163;" horiz-adv-x="700" d="M368 929v-605q0 -104 36 -156t109 -51q71 0 112 15l8 -130q-53 -19 -119 -23l-58 -90q65 -9 109 -51t44 -101q0 -176 -222 -176q-83 0 -144 40l31 88q40 -22 89 -29.5t87.5 9t38.5 59.5q0 78 -171 94l94 162q-90 17 -140 75q-69 79 -69 265v605h-166v129h166v193l165 55 v-248h278v-129h-278z" />
<glyph unicode="&#x164;" horiz-adv-x="1048" d="M815 1806h-146l-143 -154h-5l-144 154h-151l232 -248h129zM-4 1477v-141h445v-1336h166v1336h449v141h-1060z" />
<glyph unicode="&#x165;" horiz-adv-x="715" d="M535 1258l52 -70q61 33 99 76q65 70 65 167q0 49 -22.5 91t-53.5 61l-127 -29q70 -57 70 -132q0 -97 -83 -164zM368 1058v248l-165 -55v-193h-166v-129h166v-605q0 -186 69 -265q43 -49 115 -68t134.5 -13t111.5 24l-8 130q-45 -15 -112 -15q-73 -1 -109 51t-36 156v605 h278v129h-278z" />
<glyph unicode="&#x166;" horiz-adv-x="1048" d="M607 863v473h449v141h-1060v-141h445v-473h-272v-129h272v-734h166v734h280v129h-280z" />
<glyph unicode="&#x167;" horiz-adv-x="700" d="M368 710v219h278v129h-278v248l-165 -55v-193h-166v-129h166v-219h-166v-129h166v-257q0 -186 69 -265q43 -49 114.5 -68t133.5 -13t113 24l-8 130q-41 -15 -112 -15q-73 -1 -109 51t-36 156v257h278v129h-278z" />
<glyph unicode="&#x168;" horiz-adv-x="1378" d="M958 1779h-90q-8 -89 -61 -89q-20 0 -47 13l-64 28q-97 42 -127 42q-66 0 -103 -55.5t-37 -148.5h90q10 94 60 94q13 0 40 -13q22 -10 66 -28q96 -42 130 -42q143 0 143 199zM1045 1477v-887q0 -477 -363 -477q-171 0 -260 123t-89 354v887h-166v-885 q0 -304 128.5 -460.5t379.5 -156.5q259 0 398 161.5t139 465.5v875h-167z" />
<glyph unicode="&#x169;" horiz-adv-x="1171" d="M843 1444h-84q-8 -92 -58 -92q-19 0 -117 43q-95 42 -120 42q-65 0 -101.5 -57t-36.5 -151h90q9 99 59 99q12 0 108 -41q96 -43 120 -43q140 2 140 200zM870 0h149q-9 122 -9 280v778h-167v-655q0 -117 -84 -203q-80 -83 -196 -83q-121 -1 -181 86.5t-60 263.5v591h-167 v-621q0 -225 92 -344q37 -47 96.5 -77.5t129.5 -37.5t140 8t135 63t107 124h15v-173z" />
<glyph unicode="&#x16a;" horiz-adv-x="1378" d="M431 1615h516v112h-516v-112zM1045 1477v-887q0 -477 -363 -477q-160 1 -248 113q-101 122 -101 364v887h-166v-885q0 -313 134.5 -465t373.5 -152q251 1 394 158.5t143 468.5v875h-167z" />
<glyph unicode="&#x16b;" horiz-adv-x="1171" d="M339 1295h485v114h-485v-114zM870 0h149q-9 122 -9 280v778h-167v-655q0 -53 -17 -102q-32 -80 -103 -132t-160 -52q-121 -1 -181 86.5t-60 263.5v591h-167v-621q0 -256 119 -370q35 -37 91 -61.5t123 -29.5t133.5 10.5t129 63.5t104.5 123h6z" />
<glyph unicode="&#x16c;" horiz-adv-x="1378" d="M947 1843h-101q-5 -65 -49.5 -109t-108.5 -44q-136 0 -157 153h-102q0 -118 69.5 -187t189.5 -69t189.5 68.5t69.5 187.5zM1045 1477v-887q0 -477 -363 -477q-171 0 -260 123t-89 354v887h-166v-885q0 -304 128.5 -460.5t379.5 -156.5q259 0 398 161.5t139 465.5v875 h-167z" />
<glyph unicode="&#x16d;" horiz-adv-x="1171" d="M846 1428h-101q-5 -65 -49 -109t-109 -44q-137 0 -158 153h-101q0 -117 69.5 -186t189.5 -69q118 0 188.5 69t70.5 186zM870 0h149q-9 122 -9 280v778h-167v-655q0 -117 -84 -203q-80 -83 -196 -83q-121 -1 -181 86.5t-60 263.5v591h-167v-621q0 -225 92 -344 q37 -47 96.5 -77.5t129.5 -37.5t140 8t135 63t107 124h15v-173z" />
<glyph unicode="&#x16e;" horiz-adv-x="1378" d="M899 1729q0 89 -61 150q-60 60 -148 60t-149 -61t-61 -149q0 -86 61 -147q62 -62 149 -62q84 0 148 62q61 59 61 147zM807 1729q0 -48 -34.5 -82.5t-82.5 -34.5t-83 34.5t-35 82.5q0 50 34.5 84t83.5 34q48 0 82.5 -34t34.5 -84zM1045 1477v-887q0 -477 -363 -477 q-160 1 -248 113q-101 122 -101 364v887h-166v-885q0 -313 134.5 -465t373.5 -152q251 1 394 158.5t143 468.5v875h-167z" />
<glyph unicode="&#x16f;" horiz-adv-x="1171" d="M795 1378q0 91 -61 150q-63 61 -147 61q-87 0 -148.5 -61.5t-61.5 -149.5q0 -84 62 -146q61 -61 148 -61q84 0 147 61q61 59 61 146zM703 1378q0 -48 -33.5 -81.5t-82.5 -33.5q-48 0 -83 33.5t-35 81.5q0 50 35 84.5t83 34.5q49 0 82.5 -34.5t33.5 -84.5zM870 0h149 q-9 122 -9 280v778h-167v-655q0 -53 -17 -102q-32 -80 -103 -132t-160 -52q-121 -1 -181 86.5t-60 263.5v591h-167v-621q0 -256 119 -370q35 -37 91 -61.5t123 -29.5t133.5 10.5t129 63.5t104.5 123h6z" />
<glyph unicode="&#x170;" horiz-adv-x="1378" d="M439 1566h124l248 244h-193zM747 1566h127l248 244h-195zM1045 1477v-887q0 -477 -363 -477q-160 1 -248 113q-101 122 -101 364v887h-166v-885q0 -313 134.5 -465t373.5 -152q251 1 394 158.5t143 468.5v875h-167z" />
<glyph unicode="&#x171;" horiz-adv-x="1171" d="M377 1223h110l245 295h-178zM682 1223h109l246 295h-176zM870 0h149q-9 122 -9 280v778h-167v-655q0 -53 -17 -102q-32 -80 -103 -132t-160 -52q-121 -1 -181 86.5t-60 263.5v591h-167v-621q0 -256 119 -370q35 -37 91 -61.5t123 -29.5t133.5 10.5t129 63.5t104.5 123h6z " />
<glyph unicode="&#x172;" horiz-adv-x="1378" d="M849 -2q123 33 207 123q156 161 156 481v875h-167v-887q0 -477 -363 -477q-160 1 -248 113q-101 122 -101 364v887h-166v-885q0 -313 134.5 -465t373.5 -152l24 4q-122 -139 -122 -249q0 -82 50 -127.5t142 -45.5q44 0 91.5 13.5t80.5 36.5l-27 90q-46 -21 -101 -21 q-46 0 -73 24.5t-27 71.5q0 55 45 123q40 59 91 103z" />
<glyph unicode="&#x173;" horiz-adv-x="1171" d="M987 0h32q-9 122 -9 280v778h-167v-655q0 -53 -17 -102q-32 -80 -103 -132t-160 -52q-121 -1 -181 86.5t-60 263.5v591h-167v-621q0 -256 119 -370q35 -37 91 -61.5t123 -29.5t133.5 10.5t129 63.5t104.5 123h6l9 -173q-48 -69 -72 -118q-39 -76 -39 -154q0 -90 53 -136 t144 -46q44 0 92 12.5t79 35.5l-29 90q-38 -21 -99 -21q-49 0 -80.5 30t-31.5 83q0 88 100 224z" />
<glyph unicode="&#x174;" horiz-adv-x="1809" d="M853 1896l-202 -309h129l127 207h5l127 -207h134l-207 309h-113zM1624 1477l-204 -764q-81 -303 -118 -514h-5q-30 190 -107 514l-188 764h-170l-203 -767q-111 -430 -123 -513h-6q-30 185 -109 511l-182 769h-176l373 -1477h171l216 789q91 329 117 486h4 q13 -114 100 -486l193 -789h169l416 1477h-168z" />
<glyph unicode="&#x175;" horiz-adv-x="1579" d="M734 1477l-201 -309h128l128 208h4l127 -208h134l-205 309h-115zM1378 1058l-157 -548q-60 -207 -86 -341h-4q-31 147 -94 344l-171 545h-143l-179 -554q-66 -207 -97 -335h-4q-28 145 -81 337l-149 552h-171l315 -1058h153l178 526q65 195 98 350h5q1 -3 16 -63t24 -94 q22 -90 54 -190l169 -529h151l340 1058h-167z" />
<glyph unicode="&#x176;" horiz-adv-x="1141" d="M523 1896l-201 -309h130l127 207h4l127 -207h133l-205 309h-115zM953 1477l-217 -412q-110 -218 -151 -311h-4q-98 200 -152 309l-210 414h-190l460 -848v-629h166v631l485 846h-187z" />
<glyph unicode="&#x177;" horiz-adv-x="994" d="M441 1477l-202 -309h129l127 208h5l127 -208h134l-207 309h-113zM800 1058l-217 -637q-53 -166 -68 -224h-7q-26 110 -67 219l-238 642h-182l382 -977q13 -32 13 -48q0 -19 -13 -46q-51 -118 -139 -204.5t-193 -123.5l46 -142q228 53 396 370q72 146 177 416l287 755 h-177z" />
<glyph unicode="&#x178;" horiz-adv-x="1141" d="M480 1687q0 44 -27.5 73.5t-69.5 29.5q-44 0 -72.5 -30t-28.5 -73t27.5 -73.5t69.5 -30.5h2q43 0 71 30t28 74zM870 1687q0 44 -27.5 73.5t-68.5 29.5q-44 0 -72.5 -30t-28.5 -73t27.5 -73.5t68.5 -30.5h2q45 0 72 30t27 74zM953 1477l-217 -412q-110 -218 -151 -311h-4 q-98 200 -152 309l-210 414h-190l460 -848v-629h166v631l485 846h-187z" />
<glyph unicode="&#x179;" horiz-adv-x="1173" d="M504 1558h140l280 255h-214zM282 140l814 1234v103h-960v-141h747l-818 -1238v-98h1041v140h-824z" />
<glyph unicode="&#x17a;" horiz-adv-x="904" d="M372 1188h121l266 309h-196zM247 136v4q70 81 127 159l487 652l2 107h-782v-136h580v-4q-99 -118 -130 -162l-494 -658v-98h833v136h-623z" />
<glyph unicode="&#x17b;" horiz-adv-x="1173" d="M598 1580h2q43 0 72 32t29 73t-29 72t-70 31q-42 0 -73 -31.5t-31 -71.5t29.5 -72.5t70.5 -32.5zM282 140l814 1234v103h-960v-141h747l-818 -1238v-98h1041v140h-824z" />
<glyph unicode="&#x17c;" horiz-adv-x="904" d="M585 1326q0 42 -27.5 72t-68.5 30q-44 0 -74 -30t-30 -72q0 -48 31.5 -75.5t70.5 -27.5q33 0 61 21q37 31 37 82zM247 136v4q70 81 127 159l487 652l2 107h-782v-136h580v-4q-99 -118 -130 -162l-494 -658v-98h833v136h-623z" />
<glyph unicode="&#x17d;" horiz-adv-x="1173" d="M618 1646h-5l-142 164h-143l224 -254h125l220 254h-138zM282 140l814 1234v103h-960v-141h747l-818 -1238v-98h1041v140h-824z" />
<glyph unicode="&#x17e;" horiz-adv-x="904" d="M487 1288h-4l-132 209h-134l208 -309h119l203 309h-129zM247 136v4q70 81 127 159l489 652v107h-782v-136h580v-4q-99 -118 -130 -162l-494 -658v-98h833v136h-623z" />
<glyph unicode="&#x17f;" horiz-adv-x="613" d="M679 1416l26 129q-65 33 -159 33q-173 0 -270.5 -122t-97.5 -345v-53h-147v-129h147v-929h169l-2 1115q-1 325 209 325q63 0 125 -24z" />
<glyph unicode="&#x18e;" horiz-adv-x="1040" d="M797 1339v-565h-565v-138h565v-498h-598v-138h765v1477h-797v-138h630z" />
<glyph unicode="&#x192;" horiz-adv-x="1090" d="M984 1293l32 123q-56 33 -144 33q-348 0 -403 -465l-13 -108h-220v-122h205l-54 -453q-37 -351 -216 -351q-65 -1 -123 25l-33 -119q65 -38 163 -38q162 0 249.5 112.5t118.5 360.5l56 463h281v122h-265l13 119q38 320 237 320q62 -2 116 -22z" />
<glyph unicode="&#x1a0;" horiz-adv-x="1461" d="M1382 754q0 172 -46.5 308t-126.5 224q112 -12 168 40.5t56 147.5q0 92 -37 174l-131 -26q30 -72 30 -139q0 -50 -22 -74t-72 -24q-28 0 -59 10q-38 11 -127 49q-24 10 -55 20q-109 37 -220 37q-142 0 -264 -56.5t-210 -159.5q-89 -104 -138 -247.5t-49 -312.5 q0 -330 180 -537q88 -102 206.5 -157.5t257.5 -55.5q294 0 479 218q180 213 180 561zM1205 745q0 -274 -130 -451q-65 -87 -153.5 -135t-193.5 -48q-102 0 -190.5 48t-152.5 133q-132 173 -132 438q0 279 132 457q63 85 152 131.5t195 46.5q208 0 341 -178 q132 -180 132 -442z" />
<glyph unicode="&#x1a1;" horiz-adv-x="1173" d="M575 -25q222 0 367 159q143 157 143 405q0 215 -115 358q96 -9 147 41.5t51 140.5q0 79 -33 153l-131 -25q31 -68 31 -124q0 -90 -86 -90q-51 0 -97 21t-87 36q-80 31 -173 31q-110 0 -205 -41.5t-163 -115.5q-141 -154 -141 -403q0 -238 137 -391q139 -155 355 -155z M912 533q0 -179 -94 -304q-93 -124 -237 -124q-71 0 -133 33.5t-105 91.5q-90 122 -90 296q0 186 89 305q93 122 243 122q145 0 238 -121q89 -116 89 -299z" />
<glyph unicode="&#x1af;" horiz-adv-x="1439" d="M1212 602v770q114 -5 171 42.5t57 134.5q0 71 -35 160l-134 -26q33 -64 33 -123q0 -45 -22.5 -64t-76.5 -19h-160v-887q0 -477 -363 -477q-171 0 -260 123t-89 354v887h-166v-885q0 -304 128.5 -460.5t379.5 -156.5q259 0 398 161.5t139 465.5z" />
<glyph unicode="&#x1b0;" horiz-adv-x="1171" d="M1010 280v678q92 0 148 46.5t56 135.5q0 86 -37 148l-132 -19q36 -61 36 -125q0 -44 -22 -65t-77 -21h-139v-655q0 -117 -84 -203q-80 -83 -196 -83q-121 -1 -181 86.5t-60 263.5v591h-167v-621q0 -225 92 -344q37 -47 96.5 -77.5t129.5 -37.5t140 8t135 63t107 124h6 l9 -173h149q-9 122 -9 280z" />
<glyph unicode="&#x1c0;" horiz-adv-x="500" d="M186 1477v-1477h132v1477h-132z" />
<glyph unicode="&#x1c1;" horiz-adv-x="1002" d="M186 1477v-1477h132v1477h-132zM688 1477v-1477h132v1477h-132z" />
<glyph unicode="&#x1c3;" horiz-adv-x="485" d="M175 414h134l26 1063h-186zM360 101q0 54 -33 89.5t-84 35.5q-50 0 -83 -35.5t-33 -89.5q0 -58 33.5 -92t80.5 -34q49 0 84 33t35 93z" />
<glyph unicode="&#x1c4;" horiz-adv-x="2589" d="M2005 1687h-4l-132 209h-133l208 -309h118l204 309h-129zM1334 776q0 338 -191 519q-204 193 -591 193q-191 0 -385 -31v-1455q121 -15 331 -15q413 0 629 210q207 201 207 579zM1698 140l813 1234v103h-959v-141h746l-817 -1238v-98h1041v140h-824zM1161 767 q0 -314 -160.5 -479t-471.5 -165q-147 0 -196 9v1202q97 21 226 21q297 0 449.5 -148.5t152.5 -439.5z" />
<glyph unicode="&#x1c5;" horiz-adv-x="2319" d="M1334 776q0 338 -191 519q-204 193 -591 193q-191 0 -385 -31v-1455q121 -15 331 -15q413 0 629 210q207 201 207 579zM1874 1273h-5l-131 208h-134l209 -308h117l205 308h-130zM1161 767q0 -314 -160.5 -479t-471.5 -165q-147 0 -196 9v1202q97 21 226 21 q297 0 449.5 -148.5t152.5 -439.5zM1663 136v4q70 81 127 159l489 652v107h-782v-136h581v-4q-103 -121 -132 -162l-493 -658v-98h833v136h-623z" />
<glyph unicode="&#x1c6;" horiz-adv-x="2103" d="M897 0h148q-8 134 -8 263v1291h-167v-638h-4q-90 165 -316 165q-204 0 -336 -159q-131 -158 -131 -409q0 -233 128 -385q127 -153 318 -153q250 0 354 209h14v-184zM1656 1273h-4l-132 208h-133l208 -308h119l203 308h-129zM1447 136v4q73 86 126 159l489 652v107h-782 v-136h581v-4q-111 -132 -132 -162l-493 -658v-98h832v136h-621zM870 631v-194q0 -131 -83 -227q-87 -99 -215 -99q-145 0 -232 115q-87 114 -87 297q0 191 88 307q90 119 238 119q125 0 208 -89q83 -91 83 -229z" />
<glyph unicode="&#x1c7;" horiz-adv-x="1781" d="M333 140v1337h-166v-1477h791v140h-625zM1464 1477v-984q0 -203 -64 -288q-39 -53 -111 -73.5t-135.5 -14t-114.5 26.5l-27 -135q78 -34 191 -34q428 0 428 500v1002h-167z" />
<glyph unicode="&#x1c8;" horiz-adv-x="1509" d="M1380 1376q2 48 -30.5 81.5t-80.5 33.5q-50 0 -82 -33t-32 -82q0 -53 33 -83t77 -30q51 0 83 32t32 81zM333 140v1337h-166v-1477h791v140h-625zM1183 1058v-901q0 -280 -51 -374q-29 -53 -83.5 -78t-145.5 -31l19 -134q218 5 320 129q110 136 110 419v970h-169z" />
<glyph unicode="&#x1c9;" horiz-adv-x="998" d="M163 1554v-1554h165v1554h-165zM870 1376q2 48 -30.5 81.5t-80.5 33.5q-50 0 -82.5 -33t-32.5 -82q0 -53 33.5 -83t76.5 -30q52 0 84 32t32 81zM673 1058v-901q0 -280 -51 -374q-29 -53 -84 -78t-145 -31l19 -134q217 5 319 129q110 136 110 419v970h-168z" />
<glyph unicode="&#x1ca;" horiz-adv-x="2181" d="M1079 1477v-645q0 -376 19 -608l-4 -3q-106 225 -264 480l-485 776h-178v-1477h157v655q0 420 -15 610l7 2q89 -195 271 -491l482 -776h165v1477h-155zM1865 1477v-984q0 -203 -63 -288q-39 -53 -111 -73.5t-135.5 -14t-115.5 26.5l-27 -135q78 -34 191 -34 q427 0 427 500v1002h-166z" />
<glyph unicode="&#x1cb;" horiz-adv-x="1909" d="M1782 1376q2 48 -31 81.5t-81 33.5q-50 0 -82 -33t-32 -82q0 -54 32.5 -83.5t76.5 -29.5q52 0 84.5 32t32.5 81zM1079 1477v-645q0 -376 19 -608l-4 -3q-106 225 -264 480l-485 776h-178v-1477h157v655q0 420 -15 610l7 2q89 -195 271 -491l482 -776h165v1477h-155z M1585 1058v-901q0 -278 -52 -374q-29 -53 -83.5 -78t-145.5 -31l20 -134q217 5 319 129q110 136 110 419v970h-168z" />
<glyph unicode="&#x1cc;" horiz-adv-x="1691" d="M1562 1376q2 48 -30.5 81.5t-80.5 33.5q-50 0 -82.5 -33t-32.5 -82q0 -53 33.5 -83t77.5 -30q51 0 83 32t32 81zM1028 0v638q0 204 -98.5 323.5t-265.5 119.5q-115 0 -208 -54.5t-138 -143.5h-15v175h-150q10 -198 10 -276v-782h165v644q0 124 83 212q81 87 198 87 q250 0 250 -325v-618h169zM1365 1058v-901q0 -280 -51 -374q-29 -53 -83.5 -78t-145.5 -31l19 -134q218 5 320 129q110 136 110 419v970h-169z" />
<glyph unicode="&#x1cd;" horiz-adv-x="1298" d="M657 1687h-4l-132 209h-134l209 -309h119l203 309h-129zM749 1477h-193l-499 -1477h171l157 477h527l162 -477h175zM423 609l149 443q25 68 74 269h5q51 -200 77 -271l148 -441h-453z" />
<glyph unicode="&#x1ce;" horiz-adv-x="1022" d="M487 1290h-4l-132 209h-134l208 -309h119l203 309h-129zM734 0h151q-15 84 -15 253v404q0 424 -385 424q-189 0 -332 -90l40 -115q116 77 267 77q243 0 243 -261v-23q-306 0 -465 -100t-159 -293q0 -128 90 -216q87 -85 224 -85q213 0 320 161h6zM705 548v-197 q0 -110 -86 -181q-81 -67 -188 -67q-82 0 -133 50.5t-51 145.5q1 249 426 249h32z" />
<glyph unicode="&#x1cf;" horiz-adv-x="500" d="M259 1687h-4l-132 209h-134l208 -309h119l203 309h-128zM167 1477v-1477h166v1477h-166z" />
<glyph unicode="&#x1d0;" horiz-adv-x="490" d="M255 1273h-6l-130 208h-134l208 -308h118l204 308h-130zM163 1058v-1058h165v1058h-165z" />
<glyph unicode="&#x1d1;" horiz-adv-x="1461" d="M734 1711h-4l-132 209h-134l209 -310h118l204 310h-129zM1382 754q0 330 -174 539q-83 99 -204 153.5t-264 54.5q-142 0 -264 -56.5t-210 -159.5q-89 -104 -138 -247.5t-49 -312.5q0 -330 180 -537q88 -102 206.5 -157.5t257.5 -55.5q294 0 479 218q180 213 180 561z M1205 745q0 -274 -130 -451q-65 -87 -153.5 -135t-193.5 -48q-102 0 -190.5 48t-152.5 133q-132 173 -132 438q0 279 132 457q63 85 152 131.5t195 46.5q208 0 341 -178q132 -180 132 -442z" />
<glyph unicode="&#x1d2;" horiz-adv-x="1167" d="M587 1290h-4l-131 209h-134l208 -309h118l205 309h-130zM1085 539q0 240 -135 389q-139 153 -358 153q-110 0 -205 -41.5t-163 -115.5q-141 -154 -141 -403q0 -238 137 -391q139 -155 355 -155q222 0 367 159q143 157 143 405zM912 533q0 -179 -94 -304 q-93 -124 -237 -124q-71 0 -133 33.5t-105 91.5q-90 122 -90 296q0 186 89 305q93 122 243 122q145 0 238 -121q89 -116 89 -299z" />
<glyph unicode="&#x1d3;" horiz-adv-x="1378" d="M692 1687h-4l-132 209h-133l208 -309h118l204 309h-129zM1045 1477v-887q0 -477 -363 -477q-171 0 -260 123t-89 354v887h-166v-885q0 -304 128.5 -460.5t379.5 -156.5q259 0 398 161.5t139 465.5v875h-167z" />
<glyph unicode="&#x1d4;" horiz-adv-x="1171" d="M592 1273h-5l-131 208h-134l209 -308h117l205 308h-130zM870 0h149q-9 122 -9 280v778h-167v-655q0 -117 -84 -203q-80 -83 -196 -83q-121 -1 -181 86.5t-60 263.5v591h-167v-621q0 -225 92 -344q37 -47 96.5 -77.5t129.5 -37.5t140 8t135 63t107 124h15v-173z" />
<glyph unicode="&#x1d5;" horiz-adv-x="1378" d="M449 2012v-110h480v110h-480zM592 1690q0 42 -28 72t-69 30t-70.5 -30.5t-29.5 -71.5q0 -43 27.5 -73t70.5 -30q44 0 71.5 29t27.5 74zM982 1690q0 42 -28 72t-71 30q-42 0 -71.5 -30t-29.5 -72t28.5 -72.5t70.5 -30.5q43 0 72 29.5t29 73.5zM1045 1477v-887 q0 -477 -363 -477q-171 0 -260 123t-89 354v887h-166v-885q0 -304 128.5 -460.5t379.5 -156.5q259 0 398 161.5t139 465.5v875h-167z" />
<glyph unicode="&#x1d6;" horiz-adv-x="1171" d="M349 1593v-110h479v110h-479zM491 1275q0 43 -27.5 73t-68.5 30q-42 0 -72 -30.5t-30 -72.5t28.5 -72t71.5 -30q44 0 71 29t27 73zM881 1275q0 43 -28 73t-71 30q-42 0 -71 -30.5t-29 -72.5t28.5 -72t69.5 -30q44 0 72.5 29.5t28.5 72.5zM870 0h149q-9 122 -9 280v778 h-167v-655q0 -117 -84 -203q-80 -83 -196 -83q-121 -1 -181 86.5t-60 263.5v591h-167v-621q0 -225 92 -344q37 -47 96.5 -77.5t129.5 -37.5t140 8t135 63t107 124h15v-173z" />
<glyph unicode="&#x1d7;" horiz-adv-x="1378" d="M598 1902h121l265 309h-195zM592 1690q0 42 -28 72t-69 30t-70.5 -30.5t-29.5 -71.5q0 -43 27.5 -73t70.5 -30q44 0 71.5 29t27.5 74zM982 1690q0 42 -28 72t-71 30q-42 0 -71.5 -30t-29.5 -72t28.5 -72.5t70.5 -30.5q43 0 72 29.5t29 73.5zM1045 1477v-887 q0 -477 -363 -477q-171 0 -260 123t-89 354v887h-166v-885q0 -304 128.5 -460.5t379.5 -156.5q259 0 398 161.5t139 465.5v875h-167z" />
<glyph unicode="&#x1d8;" horiz-adv-x="1171" d="M506 1483h121l265 309h-195zM491 1275q0 43 -27.5 73t-68.5 30q-42 0 -72 -30.5t-30 -72.5t28.5 -72t71.5 -30q44 0 71 29t27 73zM881 1275q0 43 -28 73t-71 30q-42 0 -71 -30.5t-29 -72.5t28.5 -72t69.5 -30q44 0 72.5 29.5t28.5 72.5zM870 0h149q-9 122 -9 280v778 h-167v-655q0 -117 -84 -203q-80 -83 -196 -83q-121 -1 -181 86.5t-60 263.5v591h-167v-621q0 -225 92 -344q37 -47 96.5 -77.5t129.5 -37.5t140 8t135 63t107 124h15v-173z" />
<glyph unicode="&#x1d9;" horiz-adv-x="1378" d="M692 2003h-4l-132 208h-133l208 -309h118l204 309h-129zM592 1690q0 42 -28 72t-69 30t-70.5 -30.5t-29.5 -71.5q0 -43 27.5 -73t70.5 -30q44 0 71.5 29t27.5 74zM982 1690q0 42 -28 72t-71 30q-42 0 -71.5 -30t-29.5 -72t28.5 -72.5t70.5 -30.5q43 0 72 29.5t29 73.5z M1045 1477v-887q0 -477 -363 -477q-171 0 -260 123t-89 354v887h-166v-885q0 -304 128.5 -460.5t379.5 -156.5q259 0 398 161.5t139 465.5v875h-167z" />
<glyph unicode="&#x1da;" horiz-adv-x="1171" d="M592 1585h-5l-131 207h-134l209 -309h117l205 309h-130zM491 1275q0 43 -27.5 73t-68.5 30q-42 0 -72 -30.5t-30 -72.5t28.5 -72t71.5 -30q44 0 71 29t27 73zM881 1275q0 43 -28 73t-71 30q-42 0 -71 -30.5t-29 -72.5t28.5 -72t69.5 -30q44 0 72.5 29.5t28.5 72.5zM870 0 h149q-9 122 -9 280v778h-167v-655q0 -117 -84 -203q-80 -83 -196 -83q-121 -1 -181 86.5t-60 263.5v591h-167v-621q0 -225 92 -344q37 -47 96.5 -77.5t129.5 -37.5t140 8t135 63t107 124h15v-173z" />
<glyph unicode="&#x1db;" horiz-adv-x="1378" d="M401 2211l266 -309h119l-190 309h-195zM592 1690q0 42 -28 72t-69 30t-70.5 -30.5t-29.5 -71.5q0 -43 27.5 -73t70.5 -30q44 0 71.5 29t27.5 74zM982 1690q0 42 -28 72t-71 30q-42 0 -71.5 -30t-29.5 -72t28.5 -72.5t70.5 -30.5q43 0 72 29.5t29 73.5zM1045 1477v-887 q0 -477 -363 -477q-171 0 -260 123t-89 354v887h-166v-885q0 -304 128.5 -460.5t379.5 -156.5q259 0 398 161.5t139 465.5v875h-167z" />
<glyph unicode="&#x1dc;" horiz-adv-x="1171" d="M282 1792l266 -309h121l-192 309h-195zM491 1275q0 43 -27.5 73t-68.5 30q-42 0 -72 -30.5t-30 -72.5t28.5 -72t71.5 -30q44 0 71 29t27 73zM881 1275q0 43 -28 73t-71 30q-42 0 -71 -30.5t-29 -72.5t28.5 -72t69.5 -30q44 0 72.5 29.5t28.5 72.5zM870 0h149 q-9 122 -9 280v778h-167v-655q0 -117 -84 -203q-80 -83 -196 -83q-121 -1 -181 86.5t-60 263.5v591h-167v-621q0 -225 92 -344q37 -47 96.5 -77.5t129.5 -37.5t140 8t135 63t107 124h15v-173z" />
<glyph unicode="&#x1dd;" horiz-adv-x="1066" d="M83 469q0 -219 112 -352q113 -136 309 -136q106 0 196 41.5t154 118.5q133 162 133 409q0 120 -34 216q-35 97 -101 168.5t-158 110.5q-64 26 -156 35t-200 -6.5t-196 -57.5l31 -119q119 54 285 54q171 0 266.5 -103t99.5 -294h-734q-7 -31 -7 -85zM247 431h573 q-15 -146 -96.5 -237t-204.5 -91q-130 0 -201 87.5t-71 240.5z" />
<glyph unicode="&#x1de;" horiz-adv-x="1298" d="M414 2012v-110h481v110h-481zM556 1690q0 42 -27.5 72t-68.5 30q-42 0 -71 -30t-29 -72q0 -43 27.5 -73t70.5 -30q44 0 71 29t27 74zM947 1690q0 42 -28 72t-70 30t-72 -30.5t-30 -71.5q0 -42 29 -72.5t70 -30.5q43 0 72 29.5t29 73.5zM749 1477h-193l-499 -1477h171 l157 477h527l162 -477h175zM423 609l149 443q25 68 74 269h5q51 -200 77 -271l148 -441h-453z" />
<glyph unicode="&#x1df;" horiz-adv-x="1022" d="M243 1615v-110h480v110h-480zM385 1297q0 43 -27.5 73.5t-68.5 30.5q-42 0 -71.5 -31t-29.5 -73t28 -72.5t71 -30.5q44 0 71 29t27 74zM776 1297q0 43 -28 73.5t-71 30.5q-41 0 -70.5 -31t-29.5 -73t28.5 -72.5t69.5 -30.5q44 0 72.5 29.5t28.5 73.5zM734 0h151 q-15 84 -15 253v404q0 424 -385 424q-189 0 -332 -90l40 -115q116 77 267 77q243 0 243 -261v-23q-306 0 -465 -100t-159 -293q0 -128 90 -216q87 -85 224 -85q213 0 320 161h6zM705 548v-197q0 -110 -86 -181q-81 -67 -188 -67q-82 0 -133 50.5t-51 145.5q1 249 426 249h32 z" />
<glyph unicode="&#x1e0;" horiz-adv-x="1298" d="M414 2012v-110h481v110h-481zM754 1690q0 42 -28 72t-69 30q-44 0 -73.5 -30t-29.5 -72q0 -44 29.5 -73.5t71.5 -29.5q40 0 69.5 30t29.5 73zM749 1477h-193l-499 -1477h171l157 477h527l162 -477h175zM423 609l149 443q25 68 74 269h5q51 -200 77 -271l148 -441h-453z " />
<glyph unicode="&#x1e1;" horiz-adv-x="1022" d="M243 1615v-110h480v110h-480zM583 1297q0 43 -27.5 73.5t-68.5 30.5q-44 0 -74 -30.5t-30 -73.5q0 -44 30 -73.5t72 -29.5q39 0 68.5 30t29.5 73zM734 0h151q-15 84 -15 253v404q0 424 -385 424q-189 0 -332 -90l40 -115q116 77 267 77q243 0 243 -261v-23 q-306 0 -465 -100t-159 -293q0 -128 90 -216q87 -85 224 -85q213 0 320 161h6zM705 548v-197q0 -110 -86 -181q-81 -67 -188 -67q-82 0 -133 50.5t-51 145.5q1 249 426 249h32z" />
<glyph unicode="&#x1e2;" horiz-adv-x="1662" d="M556 1696v-109h481v109h-481zM999 701h519v138h-539l-57 500h617v138h-872l-669 -1477h171l243 537h445l65 -537h673v138h-528zM467 673l194 444q26 52 48 112q18 48 50 128h8l24 -246l50 -438h-374z" />
<glyph unicode="&#x1e3;" horiz-adv-x="1652" d="M585 1306v-110h480v110h-480zM1571 605q0 203 -109 338q-113 140 -291 140q-255 0 -362 -230h-4q-68 230 -334 230q-173 0 -318 -92l42 -115q109 80 263 80q112 0 181 -72t69 -181v-48q-308 0 -468.5 -96t-160.5 -285q0 -130 89 -213q88 -82 231 -82q134 0 235.5 63.5 t149.5 176.5h5q43 -114 150 -177q104 -64 274 -63.5t303 71.5l-33 121q-123 -60 -278 -60q-164 0 -253 106.5t-89 305.5h701q7 27 7 82zM1407 646h-544q11 136 90 223q81 91 202 91q107 0 181 -85q71 -84 71 -206v-23zM710 539v-167q0 -114 -78 -189q-81 -78 -198 -78 q-83 0 -136 49.5t-53 134.5q1 250 432 250h33z" />
<glyph unicode="&#x1e6;" horiz-adv-x="1371" d="M843 1702h-4l-131 209h-133l207 -309h119l203 309h-129zM782 763v-134h303v-464q-81 -42 -259 -42q-264 0 -417 164q-154 165 -154 451q0 143 42 257q84 228 308 315q105 44 269.5 41t288.5 -61l44 136q-135 67 -352 67q-346 0 -564 -215q-103 -101 -157.5 -241 t-54.5 -307q0 -177 52 -314q101 -275 378 -379q93 -36 210.5 -48t258 5.5t271.5 68.5v700h-467z" />
<glyph unicode="&#x1e7;" horiz-adv-x="1191" d="M565 1290h-4l-132 209h-134l209 -309h119l203 309h-129zM883 897h-5q-96 184 -326 184q-190 0 -322 -143q-147 -154 -147 -417q0 -226 125.5 -372.5t317.5 -146.5q233 0 335 182h5v-125q-2 -383 -343 -383q-167 0 -304 83l-46 -129q128 -86 342 -86q233 0 370 125 q148 133 148 484v616q0 155 8 289h-149zM866 648v-205q0 -50 -17 -104q-32 -97 -106 -151t-168 -54q-150 -1 -236 110t-86 289q0 187 88 302q89 114 236 114q122 0 205.5 -88.5t83.5 -212.5z" />
<glyph unicode="&#x1e8;" horiz-adv-x="1141" d="M565 1687h-4l-132 209h-134l209 -309h119l203 309h-129zM1120 1477h-204l-458 -563q-63 -75 -119 -158h-6v721h-166v-1477h166v577l140 161l493 -738h197l-573 851z" />
<glyph unicode="&#x1e9;" horiz-adv-x="983" d="M521 1764h-4l-132 208h-132l207 -309h119l203 309h-129zM947 1058h-202l-320 -372q-56 -68 -92 -121h-5v989h-165v-1554h165v410l99 109l373 -519h202l-461 621z" />
<glyph unicode="&#x1ea;" horiz-adv-x="1461" d="M1208 1293q174 -209 174 -539q0 -348 -180 -561q-169 -199 -433 -217q-86 -50 -138 -113.5t-52 -121.5q0 -98 94 -98q66 0 107 22l20 -81q-68 -36 -158 -36q-82 0 -132 45.5t-50 124.5q0 70 71 157q55 69 128 103q-239 24 -400 210q-180 207 -180 537q0 169 49 312.5 t138 247.5q88 103 210 159.5t264 56.5q143 0 264 -54.5t204 -153.5zM1075 294q130 177 130 451q0 262 -132 442q-133 178 -341 178q-106 0 -195 -46.5t-152 -131.5q-132 -178 -132 -457q0 -265 132 -438q64 -85 152.5 -133t190.5 -48q105 0 193.5 48t153.5 135z" />
<glyph unicode="&#x1eb;" horiz-adv-x="1167" d="M950 928q135 -149 135 -389q0 -248 -143 -405q-131 -143 -328 -158q-87 -50 -139 -114t-52 -121q0 -98 94 -98q65 0 108 22l19 -81q-68 -36 -157 -36q-82 0 -132 45.5t-50 124.5q0 70 71 157q55 71 130 104q-171 24 -286 151q-137 153 -137 391q0 249 141 403 q68 74 163 115.5t205 41.5q219 0 358 -153zM818 229q94 125 94 304q0 183 -89 299q-93 121 -238 121q-150 0 -243 -122q-89 -119 -89 -305q0 -174 90 -296q43 -58 105 -91.5t133 -33.5q144 0 237 124z" />
<glyph unicode="&#x1ec;" horiz-adv-x="1461" d="M970 1610h-479v111h479v-111zM1208 1293q174 -209 174 -539q0 -348 -180 -561q-160 -189 -408 -214q-87 -51 -139.5 -115t-52.5 -121q0 -98 95 -98q65 0 108 22l19 -81q-68 -35 -157 -35q-83 0 -132.5 45t-49.5 124q0 75 69 157q58 68 121 100q-250 18 -416 211 q-180 207 -180 537q0 169 49 312.5t138 247.5q88 103 210 159.5t264 56.5q143 0 264 -54.5t204 -153.5zM1075 294q130 177 130 451q0 262 -132 442q-133 178 -341 178q-106 0 -195 -46.5t-152 -131.5q-132 -178 -132 -457q0 -265 132 -438q64 -85 152.5 -133t190.5 -48 q105 0 193.5 48t153.5 135z" />
<glyph unicode="&#x1ed;" horiz-adv-x="1167" d="M824 1194h-479v110h479v-110zM950 928q135 -149 135 -389q0 -248 -143 -405q-131 -143 -328 -158q-87 -50 -139 -114t-52 -121q0 -98 94 -98q65 0 108 22l19 -81q-68 -36 -157 -36q-82 0 -132 45.5t-50 124.5q0 70 71 157q55 71 130 104q-171 24 -286 151 q-137 153 -137 391q0 249 141 403q68 74 163 115.5t205 41.5q219 0 358 -153zM818 229q94 125 94 304q0 183 -89 299q-93 121 -238 121q-150 0 -243 -122q-89 -119 -89 -305q0 -174 90 -296q43 -58 105 -91.5t133 -33.5q144 0 237 124z" />
<glyph unicode="&#x1f0;" horiz-adv-x="508" d="M261 1269h-4l-132 208h-134l208 -309h119l203 309h-128zM182 1058v-901q0 -280 -51 -374q-29 -53 -84 -78t-145 -31l19 -134q217 5 319 129q111 138 111 419v970h-169z" />
<glyph unicode="&#x1f1;" horiz-adv-x="2589" d="M1334 776q0 338 -191 519q-204 193 -591 193q-191 0 -385 -31v-1455q121 -15 331 -15q413 0 629 210q207 201 207 579zM1698 140l813 1234v103h-959v-141h746l-817 -1238v-98h1041v140h-824zM1161 767q0 -314 -160.5 -479t-471.5 -165q-147 0 -196 9v1202q97 21 226 21 q297 0 449.5 -148.5t152.5 -439.5z" />
<glyph unicode="&#x1f2;" horiz-adv-x="2319" d="M1334 776q0 338 -191 519q-204 193 -591 193q-191 0 -385 -31v-1455q121 -15 331 -15q413 0 629 210q207 201 207 579zM1161 767q0 -314 -160.5 -479t-471.5 -165q-147 0 -196 9v1202q97 21 226 21q297 0 449.5 -148.5t152.5 -439.5zM1663 136v4q70 81 127 159l489 652 v107h-782v-136h581v-4q-103 -121 -132 -162l-493 -658v-98h833v136h-623z" />
<glyph unicode="&#x1f3;" horiz-adv-x="2103" d="M897 0h148q-8 134 -8 263v1291h-167v-638h-4q-90 165 -316 165q-204 0 -336 -159q-131 -158 -131 -409q0 -233 128 -385q127 -153 318 -153q250 0 354 209h14v-184zM1447 136v4q73 86 126 159l489 652v107h-782v-136h581v-4q-111 -132 -132 -162l-493 -658v-98h832v136 h-621zM870 631v-194q0 -131 -83 -227q-87 -99 -215 -99q-145 0 -232 115q-87 114 -87 297q0 191 88 307q90 119 238 119q125 0 208 -89q83 -91 83 -229z" />
<glyph unicode="&#x1f4;" horiz-adv-x="1371" d="M740 1602h121l266 309h-196zM782 763v-134h303v-464q-81 -42 -259 -42q-264 0 -417 164q-154 165 -154 451q0 143 42 257q84 228 308 315q105 44 269.5 41t288.5 -61l44 136q-135 67 -352 67q-346 0 -564 -215q-103 -101 -157.5 -241t-54.5 -307q0 -177 52 -314 q101 -275 378 -379q93 -36 210.5 -48t258 5.5t271.5 68.5v700h-467z" />
<glyph unicode="&#x1f5;" horiz-adv-x="1191" d="M489 1190h120l265 309h-195zM883 897h-5q-96 184 -326 184q-190 0 -322 -143q-147 -154 -147 -417q0 -226 125.5 -372.5t317.5 -146.5q233 0 335 182h5v-125q-2 -383 -343 -383q-167 0 -304 83l-46 -129q128 -86 342 -86q233 0 370 125q148 133 148 484v616q0 155 8 289 h-149zM866 648v-205q0 -50 -17 -104q-32 -97 -106 -151t-168 -54q-150 -1 -236 110t-86 289q0 187 88 302q89 114 236 114q122 0 205.5 -88.5t83.5 -212.5z" />
<glyph unicode="&#x1f8;" horiz-adv-x="1401" d="M423 1896l265 -309h121l-191 309h-195zM1079 1477v-645q0 -376 19 -608l-4 -3q-106 225 -264 480l-485 776h-178v-1477h157v655q0 420 -15 610l7 2q89 -195 271 -491l482 -776h165v1477h-155z" />
<glyph unicode="&#x1f9;" horiz-adv-x="1182" d="M326 1499l266 -309h121l-192 309h-195zM1028 0v638q0 204 -98.5 323.5t-265.5 119.5q-115 0 -208 -54.5t-138 -143.5h-15v175h-150q10 -198 10 -276v-782h165v644q0 124 83 212q81 87 198 87q250 0 250 -325v-618h169z" />
<glyph unicode="&#x1fa;" horiz-adv-x="1298" d="M563 2114h121l265 310h-195zM863 1794q0 87 -61 150q-59 61 -147 61t-149 -61.5t-61 -149.5q0 -85 61 -146t149 -61q89 0 147 61q61 64 61 146zM771 1794q0 -48 -34 -81.5t-82 -33.5t-83 33.5t-35 81.5q0 50 34.5 84.5t83.5 34.5q48 0 82 -34t34 -85zM749 1477h-193 l-499 -1477h171l157 477h527l162 -477h175zM423 609l149 443q25 68 74 269h5q51 -200 77 -271l148 -441h-453z" />
<glyph unicode="&#x1fb;" horiz-adv-x="1022" d="M425 1718h121l265 309h-196zM692 1398q0 86 -61 149q-59 61 -146 61q-88 0 -149.5 -61t-61.5 -149q0 -84 62 -146t149 -62q84 0 146 62q61 61 61 146zM600 1398q0 -48 -33.5 -82t-81.5 -34t-83.5 34t-35.5 82q0 50 35 84t84 34q48 0 81.5 -33.5t33.5 -84.5zM734 0h151 q-15 84 -15 253v404q0 424 -385 424q-189 0 -332 -90l40 -115q116 77 267 77q243 0 243 -261v-23q-306 0 -465 -100t-159 -293q0 -128 90 -216q87 -85 224 -85q213 0 320 161h6zM705 548v-197q0 -110 -86 -181q-81 -67 -188 -67q-82 0 -133 50.5t-51 145.5q1 249 426 249h32 z" />
<glyph unicode="&#x1fc;" horiz-adv-x="1662" d="M778 1587h121l264 309h-195zM999 701h519v138h-539l-57 500h617v138h-872l-669 -1477h171l243 537h445l65 -537h673v138h-528zM467 673l194 444q26 52 48 112q18 48 50 128h8l24 -246l50 -438h-374z" />
<glyph unicode="&#x1fd;" horiz-adv-x="1652" d="M743 1192h120l266 309h-196zM1571 605q0 203 -109 338q-113 140 -291 140q-255 0 -362 -230h-4q-68 230 -334 230q-173 0 -318 -92l42 -115q109 80 263 80q112 0 181 -72t69 -181v-48q-308 0 -468.5 -96t-160.5 -285q0 -130 89 -213q88 -82 231 -82q134 0 235.5 63.5 t149.5 176.5h5q43 -114 150 -177q104 -64 274 -63.5t303 71.5l-33 121q-123 -60 -278 -60q-164 0 -253 106.5t-89 305.5h701q7 27 7 82zM1407 646h-544q11 136 90 223q81 91 202 91q107 0 181 -85q71 -84 71 -206v-23zM710 539v-167q0 -114 -78 -189q-81 -78 -198 -78 q-83 0 -136 49.5t-53 134.5q1 250 432 250h33z" />
<glyph unicode="&#x1fe;" horiz-adv-x="1461" d="M615 1665h121l266 309h-195zM1382 751q0 338 -184 546l134 191l-103 68l-127 -176q-152 121 -364 121q-142 0 -264 -56.5t-209 -159.5q-186 -218 -186 -555q0 -338 189 -546l-136 -195l96 -72l134 184q158 -126 372 -126q142 0 262 56t207 159q179 212 179 561zM366 328 l-4 -2q-113 194 -113 414q0 268 135 446q64 85 153.5 132t196.5 47q157 0 287 -109zM1212 745q0 -137 -35 -254q-70 -233 -250 -332q-63 -35 -142.5 -46t-174 15.5t-165.5 97.5l653 924l6 -2q108 -172 108 -403z" />
<glyph unicode="&#x1ff;" horiz-adv-x="1167" d="M500 1240h121l264 309h-195zM1085 537q0 250 -154 404l90 135l-80 55l-88 -127q-118 77 -263 77h-3q-109 0 -202 -40.5t-161 -114.5q-141 -154 -141 -405q0 -255 158 -408l-90 -128l75 -62l92 129q116 -77 265 -77q220 0 360 157q142 160 142 405zM335 245l-4 2 q-82 115 -82 279q0 93 25 171q50 160 173 224q43 23 99 30.5t120.5 -8.5t111.5 -58zM922 533q0 -91 -25 -169q-50 -159 -178 -226q-44 -23 -98 -31t-115.5 7.5t-108.5 56.5l442 636l4 -2q79 -116 79 -272z" />
<glyph unicode="&#x200;" horiz-adv-x="1298" d="M572 1587h107l-179 293h-174zM874 1587h105l-177 293h-173zM749 1477h-193l-499 -1477h171l157 477h527l162 -477h175zM423 609l149 443q25 68 74 269h5q51 -200 77 -271l148 -441h-453z" />
<glyph unicode="&#x201;" horiz-adv-x="1022" d="M401 1190h107l-180 293h-173zM703 1190h106l-178 293h-173zM734 0h151q-15 84 -15 253v404q0 424 -385 424q-189 0 -332 -90l40 -115q116 77 267 77q243 0 243 -261v-23q-306 0 -465 -100t-159 -293q0 -128 90 -216q87 -85 224 -85q213 0 320 161h6zM705 548v-197 q0 -110 -86 -181q-81 -67 -188 -67q-82 0 -133 50.5t-51 145.5q1 249 426 249h32z" />
<glyph unicode="&#x202;" horiz-adv-x="1298" d="M811 1587h101q0 117 -70.5 186.5t-188.5 69.5q-120 0 -189 -68.5t-69 -187.5h100q23 153 158 153q65 0 109.5 -44.5t48.5 -108.5zM749 1477h-193l-499 -1477h171l157 477h527l162 -477h175zM423 609l149 443q25 68 74 269h5q51 -200 77 -271l148 -441h-453z" />
<glyph unicode="&#x203;" horiz-adv-x="1022" d="M640 1190h100q0 119 -69.5 188t-187.5 69q-121 0 -190 -69t-69 -188h100q22 153 159 153q64 0 108.5 -44.5t48.5 -108.5zM734 0h151q-15 84 -15 253v404q0 424 -385 424q-189 0 -332 -90l40 -115q116 77 267 77q243 0 243 -261v-23q-306 0 -465 -100t-159 -293 q0 -128 90 -216q87 -85 224 -85q213 0 320 161h6zM705 548v-197q0 -110 -86 -181q-81 -67 -188 -67q-82 0 -133 50.5t-51 145.5q1 249 426 249h32z" />
<glyph unicode="&#x204;" horiz-adv-x="1040" d="M485 1587h107l-180 293h-173zM786 1587h106l-177 293h-174zM333 138v565h566v138h-566v498h598v138h-764v-1477h797v138h-631z" />
<glyph unicode="&#x205;" horiz-adv-x="1066" d="M454 1192h107l-180 294h-172zM756 1192h105l-177 294h-174zM987 594q0 218 -112 352q-116 137 -310 137q-215 0 -349 -161q-133 -160 -133 -409q0 -240 134 -385q135 -147 370 -147q201 0 340 65l-30 121q-120 -56 -286 -56q-170 0 -266 104t-100 293h734q8 35 8 86z M822 631h-573q16 147 97 238t204 91q130 0 201 -88t71 -241z" />
<glyph unicode="&#x206;" horiz-adv-x="1040" d="M723 1587h101q0 118 -70 187t-189 69q-120 0 -189 -68.5t-69 -187.5h101q21 153 157 153q65 0 109.5 -44.5t48.5 -108.5zM333 138v565h566v138h-566v498h598v138h-764v-1477h797v138h-631z" />
<glyph unicode="&#x207;" horiz-adv-x="1066" d="M692 1192h101q0 119 -69.5 188t-188.5 69q-121 0 -190 -69t-69 -188h101q23 153 158 153q64 0 108.5 -44.5t48.5 -108.5zM987 594q0 218 -112 352q-116 137 -310 137q-215 0 -349 -161q-133 -160 -133 -409q0 -240 134 -385q135 -147 370 -147q201 0 340 65l-30 121 q-120 -56 -286 -56q-170 0 -266 104t-100 293h734q8 35 8 86zM822 631h-573q16 147 97 238t204 91q130 0 201 -88t71 -241z" />
<glyph unicode="&#x208;" horiz-adv-x="500" d="M169 1587h107l-180 293h-173zM471 1587h106l-178 293h-173zM167 1477v-1477h166v1477h-166z" />
<glyph unicode="&#x209;" horiz-adv-x="490" d="M165 1168h107l-180 294h-173zM467 1168h105l-177 294h-174zM163 1058v-1058h165v1058h-165z" />
<glyph unicode="&#x20a;" horiz-adv-x="500" d="M408 1587h100q0 118 -70 187t-189 69q-120 0 -189 -68.5t-69 -187.5h101q21 153 157 153q65 0 109.5 -44t49.5 -109zM167 1477v-1477h166v1477h-166z" />
<glyph unicode="&#x20b;" horiz-adv-x="490" d="M403 1168h101q0 118 -70 187t-189 69q-120 0 -189 -68.5t-69 -187.5h101q21 153 157 153q65 0 109.5 -44t48.5 -109zM163 1058v-1058h165v1058h-165z" />
<glyph unicode="&#x20c;" horiz-adv-x="1461" d="M648 1610h108l-179 295h-174zM951 1610h105l-178 295h-173zM1382 754q0 330 -174 539q-83 99 -204 153.5t-264 54.5q-142 0 -264 -56.5t-210 -159.5q-89 -104 -138 -247.5t-49 -312.5q0 -330 180 -537q88 -102 206.5 -157.5t257.5 -55.5q294 0 479 218q180 213 180 561z M1205 745q0 -274 -130 -451q-65 -87 -153.5 -135t-193.5 -48q-102 0 -190.5 48t-152.5 133q-132 173 -132 438q0 279 132 457q63 85 152 131.5t195 46.5q208 0 341 -178q132 -180 132 -442z" />
<glyph unicode="&#x20d;" horiz-adv-x="1167" d="M502 1190h107l-180 293h-172zM805 1190h105l-178 293h-173zM1085 539q0 240 -135 389q-139 153 -358 153q-110 0 -205 -41.5t-163 -115.5q-141 -154 -141 -403q0 -238 137 -391q139 -155 355 -155q222 0 367 159q143 157 143 405zM912 533q0 -179 -94 -304 q-93 -124 -237 -124q-71 0 -133 33.5t-105 91.5q-90 122 -90 296q0 186 89 305q93 122 243 122q145 0 238 -121q89 -116 89 -299z" />
<glyph unicode="&#x20e;" horiz-adv-x="1461" d="M887 1610h102q0 119 -70 188t-189 69q-121 0 -190 -69t-69 -188h101q22 154 158 154q64 0 108.5 -45t48.5 -109zM1382 754q0 330 -174 539q-83 99 -204 153.5t-264 54.5q-142 0 -264 -56.5t-210 -159.5q-89 -104 -138 -247.5t-49 -312.5q0 -330 180 -537 q88 -102 206.5 -157.5t257.5 -55.5q294 0 479 218q180 213 180 561zM1205 745q0 -274 -130 -451q-65 -87 -153.5 -135t-193.5 -48q-102 0 -190.5 48t-152.5 133q-132 173 -132 438q0 279 132 457q63 85 152 131.5t195 46.5q208 0 341 -178q132 -180 132 -442z" />
<glyph unicode="&#x20f;" horiz-adv-x="1167" d="M740 1190h101q0 119 -69.5 188t-188.5 69q-121 0 -190 -69t-69 -188h101q23 153 158 153q64 0 108.5 -44.5t48.5 -108.5zM1085 539q0 240 -135 389q-139 153 -358 153q-110 0 -205 -41.5t-163 -115.5q-141 -154 -141 -403q0 -238 137 -391q139 -155 355 -155 q222 0 367 159q143 157 143 405zM912 533q0 -179 -94 -304q-93 -124 -237 -124q-71 0 -133 33.5t-105 91.5q-90 122 -90 296q0 186 89 305q93 122 243 122q145 0 238 -121q89 -116 89 -299z" />
<glyph unicode="&#x210;" horiz-adv-x="1138" d="M546 1598h107l-180 293h-172zM849 1598h104l-177 293h-174zM916 0h173q-36 66 -112 401q-55 250 -218 304v8q278 95 278 378q0 198 -133.5 297.5t-390.5 99.5q-186 0 -346 -31v-1457h166v651h186q130 0 198.5 -68t104.5 -228q33 -161 55 -239q24 -88 39 -116zM870 1069 q0 -133 -91.5 -212t-247.5 -79h-198v563q57 16 188 16q349 -1 349 -288z" />
<glyph unicode="&#x211;" horiz-adv-x="685" d="M324 1190h107l-178 293h-174zM627 1190h105l-178 293h-173zM657 918v158q-19 5 -50 5q-98 0 -176 -62t-115 -168h-13v207h-148q8 -123 8 -322v-736h165v572q0 155 76 252q76 98 192 98q38 0 61 -4z" />
<glyph unicode="&#x212;" horiz-adv-x="1138" d="M784 1598h101q0 118 -69.5 187t-188.5 69q-120 0 -189.5 -69t-69.5 -187h101q23 153 158 153q64 0 108.5 -44.5t48.5 -108.5zM916 0h173q-36 66 -112 401q-55 250 -218 304v8q278 95 278 378q0 198 -133.5 297.5t-390.5 99.5q-186 0 -346 -31v-1457h166v651h186 q130 0 198.5 -68t104.5 -228q33 -161 55 -239q24 -88 39 -116zM870 1069q0 -133 -91.5 -212t-247.5 -79h-198v563q57 16 188 16q349 -1 349 -288z" />
<glyph unicode="&#x213;" horiz-adv-x="685" d="M563 1190h101q0 119 -70 188t-188 69q-121 0 -190 -69t-69 -188h100q23 153 159 153q64 0 108.5 -44.5t48.5 -108.5zM657 918v158q-19 5 -50 5q-98 0 -176 -62t-115 -168h-13v207h-148q8 -123 8 -322v-736h165v572q0 155 76 252q76 98 192 98q38 0 61 -4z" />
<glyph unicode="&#x214;" horiz-adv-x="1378" d="M607 1587h108l-180 293h-173zM910 1587h104l-177 293h-173zM1045 1477v-887q0 -477 -363 -477q-171 0 -260 123t-89 354v887h-166v-885q0 -304 128.5 -460.5t379.5 -156.5q259 0 398 161.5t139 465.5v875h-167z" />
<glyph unicode="&#x215;" horiz-adv-x="1171" d="M506 1168h107l-179 294h-173zM809 1168h105l-178 294h-173zM870 0h149q-9 122 -9 280v778h-167v-655q0 -117 -84 -203q-80 -83 -196 -83q-121 -1 -181 86.5t-60 263.5v591h-167v-621q0 -225 92 -344q37 -47 96.5 -77.5t129.5 -37.5t140 8t135 63t107 124h15v-173z" />
<glyph unicode="&#x216;" horiz-adv-x="1378" d="M846 1587h101q0 118 -70 187t-189 69q-121 0 -190 -68.5t-69 -187.5h102q21 153 157 153q65 0 109.5 -44.5t48.5 -108.5zM1045 1477v-887q0 -477 -363 -477q-171 0 -260 123t-89 354v887h-166v-885q0 -304 128.5 -460.5t379.5 -156.5q259 0 398 161.5t139 465.5v875h-167 z" />
<glyph unicode="&#x217;" horiz-adv-x="1171" d="M745 1168h101q0 118 -70 187t-189 69q-120 0 -189.5 -68.5t-69.5 -187.5h101q23 153 158 153q65 0 109 -44t49 -109zM870 0h149q-9 122 -9 280v778h-167v-655q0 -117 -84 -203q-80 -83 -196 -83q-121 -1 -181 86.5t-60 263.5v591h-167v-621q0 -225 92 -344 q37 -47 96.5 -77.5t129.5 -37.5t140 8t135 63t107 124h15v-173z" />
<glyph unicode="&#x218;" horiz-adv-x="1042" d="M949 397q0 151 -85.5 253t-282.5 180q-174 73 -230 134q-62 66 -62 165q0 105 79 169q78 63 222 62t251 -67l51 135q-124 71 -311 71q-200 0 -329 -110t-129 -283q0 -274 379 -416q151 -57 214.5 -126.5t63.5 -180.5q0 -121 -84.5 -192.5t-233.5 -71.5q-180 0 -326 92 l-46 -138q133 -94 362 -94t362 113q135 115 135 305zM366 -441l35 -80q110 5 185 59q87 64 87 173q0 47 -26 90.5t-62 66.5l-127 -31q32 -25 53.5 -60t21.5 -70q0 -119 -167 -148z" />
<glyph unicode="&#x219;" horiz-adv-x="838" d="M749 291q0 211 -272 318q-111 41 -156 86t-45 105q0 68 49 110.5t133 42.5q117 0 211 -61l46 124q-104 65 -251 65q-157 0 -252 -87t-95 -216q-2 -188 270 -295q113 -44 156.5 -90t43.5 -119q0 -78 -57 -123.5t-156 -45.5q-131 0 -245 75l-43 -130q119 -71 284 -71 q177 0 278 83.5t101 228.5zM263 -441l36 -80q109 5 183 59q87 64 87 173q0 48 -25.5 91.5t-60.5 65.5l-128 -31q32 -25 53 -60t21 -70q0 -119 -166 -148z" />
<glyph unicode="&#x21a;" horiz-adv-x="1048" d="M-4 1477v-141h445v-1336h166v1336h449v141h-1060zM372 -418l36 -82q107 5 184 60q87 64 87 172q0 48 -25.5 91.5t-61.5 67.5l-128 -31q75 -60 75 -132q0 -62 -47 -98.5t-120 -47.5z" />
<glyph unicode="&#x21b;" horiz-adv-x="700" d="M368 1058v248l-165 -55v-193h-166v-129h166v-605q0 -186 69 -265q43 -49 114.5 -68t133.5 -13t113 24l-8 130q-41 -15 -112 -15q-73 -1 -109 51t-36 156v605h278v129h-278zM188 -441l36 -80q109 5 184 59q87 64 87 173q0 48 -26 91t-61 66l-128 -31q32 -25 53.5 -60 t21.5 -70q0 -120 -167 -148z" />
<glyph unicode="&#x21e;" horiz-adv-x="1386" d="M697 1687h-5l-131 209h-134l209 -309h118l204 309h-130zM1054 1477v-628h-721v628h-166v-1477h166v705h721v-705h167v1477h-167z" />
<glyph unicode="&#x21f;" horiz-adv-x="1182" d="M502 1764h-4l-132 208h-134l209 -309h118l204 309h-130zM1028 0v638q0 209 -97.5 326t-263.5 117q-102 0 -193 -52t-141 -140h-5v665h-165v-1554h165v644q0 120 85 210q84 89 196 89q250 0 250 -325v-618h169z" />
<glyph unicode="&#x226;" horiz-adv-x="1298" d="M754 1690q0 42 -28 72t-69 30q-44 0 -73.5 -30t-29.5 -72q0 -44 29.5 -73.5t71.5 -29.5q40 0 69.5 30t29.5 73zM749 1477h-193l-499 -1477h171l157 477h527l162 -477h175zM423 609l149 443q25 68 74 269h5q51 -200 77 -271l148 -441h-453z" />
<glyph unicode="&#x227;" horiz-adv-x="1022" d="M583 1297q0 43 -27.5 73.5t-68.5 30.5q-44 0 -74 -30.5t-30 -73.5q0 -44 30 -73.5t72 -29.5q39 0 68.5 30t29.5 73zM734 0h151q-15 84 -15 253v404q0 424 -385 424q-189 0 -332 -90l40 -115q116 77 267 77q243 0 243 -261v-23q-306 0 -465 -100t-159 -293q0 -128 90 -216 q87 -85 224 -85q213 0 320 161h6zM705 548v-197q0 -110 -86 -181q-81 -67 -188 -67q-82 0 -133 50.5t-51 145.5q1 249 426 249h32z" />
<glyph unicode="&#x228;" horiz-adv-x="1040" d="M668 0l-72 -111q65 -9 109 -51t44 -101q0 -176 -220 -176q-85 0 -146 40l31 88q40 -22 89 -29.5t87.5 9t38.5 59.5q0 78 -171 94l103 178h-394v1477h764v-138h-598v-498h566v-138h-566v-565h631v-138h-296z" />
<glyph unicode="&#x229;" horiz-adv-x="1066" d="M987 594q0 -51 -8 -86h-734q4 -189 100 -293t266 -104q166 0 286 56l30 -121q-122 -57 -289 -64l-73 -114q65 -9 109.5 -50t44.5 -100q0 -176 -221 -176q-84 0 -145 40l30 87q56 -31 119 -31q96 0 96 71q0 77 -171 94l105 180q-197 16 -315 145q-134 145 -134 385 q0 249 133 409q134 161 349 161q194 0 310 -137q112 -134 112 -352zM249 631h573q0 153 -71 241t-201 88q-123 0 -204 -91t-97 -238z" />
<glyph unicode="&#x22a;" horiz-adv-x="1461" d="M491 2036v-110h479v110h-479zM633 1714q0 43 -27.5 73t-68.5 30q-42 0 -71 -30.5t-29 -72.5q0 -43 27.5 -73.5t70.5 -30.5q44 0 71 29.5t27 74.5zM1023 1714q0 43 -28 73t-71 30q-41 0 -70.5 -30.5t-29.5 -72.5t28.5 -73t69.5 -31q44 0 72.5 29.5t28.5 74.5zM1382 754 q0 330 -174 539q-83 99 -204 153.5t-264 54.5q-142 0 -264 -56.5t-210 -159.5q-89 -104 -138 -247.5t-49 -312.5q0 -330 180 -537q88 -102 206.5 -157.5t257.5 -55.5q294 0 479 218q180 213 180 561zM1205 745q0 -274 -130 -451q-65 -87 -153.5 -135t-193.5 -48 q-102 0 -190.5 48t-152.5 133q-132 173 -132 438q0 279 132 457q63 85 152 131.5t195 46.5q208 0 341 -178q132 -180 132 -442z" />
<glyph unicode="&#x22b;" horiz-adv-x="1167" d="M345 1615v-110h479v110h-479zM487 1297q0 43 -27.5 73.5t-68.5 30.5q-42 0 -72 -31t-30 -73q0 -43 27.5 -73t70.5 -30q44 0 72 29t28 74zM876 1297q0 43 -27.5 73.5t-70.5 30.5q-42 0 -71.5 -31t-29.5 -73t29 -72.5t70 -30.5q44 0 72 29t28 74zM1085 539q0 240 -135 389 q-139 153 -358 153q-110 0 -205 -41.5t-163 -115.5q-141 -154 -141 -403q0 -238 137 -391q139 -155 355 -155q222 0 367 159q143 157 143 405zM912 533q0 -179 -94 -304q-93 -124 -237 -124q-71 0 -133 33.5t-105 91.5q-90 122 -90 296q0 186 89 305q93 122 243 122 q145 0 238 -121q89 -116 89 -299z" />
<glyph unicode="&#x22c;" horiz-adv-x="1461" d="M491 2045v-110h479v110h-479zM989 1825h-86q-6 -92 -57 -92q-16 0 -118 43t-119 43q-67 0 -102.5 -57t-35.5 -152h90q9 99 60 99q13 0 42 -13q16 -8 65 -28q94 -42 121 -42q140 0 140 199zM1382 754q0 330 -174 539q-83 99 -204 153.5t-264 54.5q-142 0 -264 -56.5 t-210 -159.5q-89 -104 -138 -247.5t-49 -312.5q0 -330 180 -537q88 -102 206.5 -157.5t257.5 -55.5q294 0 479 218q180 213 180 561zM1205 745q0 -274 -130 -451q-65 -87 -153.5 -135t-193.5 -48q-102 0 -190.5 48t-152.5 133q-132 173 -132 438q0 279 132 457 q63 85 152 131.5t195 46.5q208 0 341 -178q132 -180 132 -442z" />
<glyph unicode="&#x22d;" horiz-adv-x="1167" d="M345 1624v-110h479v110h-479zM841 1409h-85q-8 -92 -57 -92q-22 0 -118 43t-119 43q-65 0 -101.5 -57.5t-36.5 -151.5h90q9 99 59 99q14 0 108 -41q94 -43 120 -43q140 2 140 200zM1085 539q0 240 -135 389q-139 153 -358 153q-110 0 -205 -41.5t-163 -115.5 q-141 -154 -141 -403q0 -238 137 -391q139 -155 355 -155q222 0 367 159q143 157 143 405zM912 533q0 -179 -94 -304q-93 -124 -237 -124q-71 0 -133 33.5t-105 91.5q-90 122 -90 296q0 186 89 305q93 122 243 122q145 0 238 -121q89 -116 89 -299z" />
<glyph unicode="&#x22e;" horiz-adv-x="1461" d="M830 1714q0 43 -27.5 73t-68.5 30q-44 0 -73.5 -30t-29.5 -73q0 -44 29.5 -74t71.5 -30q40 0 69 30t29 74zM1382 754q0 330 -174 539q-83 99 -204 153.5t-264 54.5q-142 0 -264 -56.5t-210 -159.5q-89 -104 -138 -247.5t-49 -312.5q0 -330 180 -537q88 -102 206.5 -157.5 t257.5 -55.5q294 0 479 218q180 213 180 561zM1205 745q0 -274 -130 -451q-65 -87 -153.5 -135t-193.5 -48q-102 0 -190.5 48t-152.5 133q-132 173 -132 438q0 279 132 457q63 85 152 131.5t195 46.5q208 0 341 -178q132 -180 132 -442z" />
<glyph unicode="&#x22f;" horiz-adv-x="1167" d="M684 1297q0 43 -28 73.5t-69 30.5q-42 0 -72 -31t-30 -73q0 -44 29 -73.5t71 -29.5q40 0 69.5 29.5t29.5 73.5zM1085 539q0 240 -135 389q-139 153 -358 153q-110 0 -205 -41.5t-163 -115.5q-141 -154 -141 -403q0 -238 137 -391q139 -155 355 -155q222 0 367 159 q143 157 143 405zM912 533q0 -179 -94 -304q-93 -124 -237 -124q-71 0 -133 33.5t-105 91.5q-90 122 -90 296q0 186 89 305q93 122 243 122q145 0 238 -121q89 -116 89 -299z" />
<glyph unicode="&#x230;" horiz-adv-x="1461" d="M491 2036v-110h479v110h-479zM830 1714q0 43 -27.5 73t-68.5 30q-44 0 -73.5 -30t-29.5 -73q0 -44 29.5 -74t71.5 -30q40 0 69 30t29 74zM1382 754q0 330 -174 539q-83 99 -204 153.5t-264 54.5q-142 0 -264 -56.5t-210 -159.5q-89 -104 -138 -247.5t-49 -312.5 q0 -330 180 -537q88 -102 206.5 -157.5t257.5 -55.5q294 0 479 218q180 213 180 561zM1205 745q0 -274 -130 -451q-65 -87 -153.5 -135t-193.5 -48q-102 0 -190.5 48t-152.5 133q-132 173 -132 438q0 279 132 457q63 85 152 131.5t195 46.5q208 0 341 -178 q132 -180 132 -442z" />
<glyph unicode="&#x231;" horiz-adv-x="1167" d="M345 1615v-110h479v110h-479zM684 1297q0 43 -28 73.5t-69 30.5q-42 0 -72 -31t-30 -73q0 -44 29 -73.5t71 -29.5q40 0 69.5 29.5t29.5 73.5zM1085 539q0 240 -135 389q-139 153 -358 153q-110 0 -205 -41.5t-163 -115.5q-141 -154 -141 -403q0 -238 137 -391 q139 -155 355 -155q222 0 367 159q143 157 143 405zM912 533q0 -179 -94 -304q-93 -124 -237 -124q-71 0 -133 33.5t-105 91.5q-90 122 -90 296q0 186 89 305q93 122 243 122q145 0 238 -121q89 -116 89 -299z" />
<glyph unicode="&#x232;" horiz-adv-x="1141" d="M345 1696v-109h479v109h-479zM953 1477l-217 -412q-110 -218 -151 -311h-4q-98 200 -152 309l-210 414h-190l460 -848v-629h166v631l485 846h-187z" />
<glyph unicode="&#x233;" horiz-adv-x="994" d="M261 1282v-109h479v109h-479zM800 1058l-217 -637q-53 -166 -68 -224h-7q-26 110 -67 219l-238 642h-182l382 -977q13 -32 13 -48q0 -19 -13 -46q-51 -118 -139 -204.5t-193 -123.5l46 -142q228 53 396 370q72 146 177 416l287 755h-177z" />
<glyph unicode="&#x237;" horiz-adv-x="508" d="M182 1058v-901q0 -280 -51 -374q-29 -53 -84 -78t-145 -31l19 -134q217 5 319 129q111 138 111 419v970h-169z" />
<glyph unicode="&#x2b9;" horiz-adv-x="429" d="M77 995l107 13l195 506l-178 -19z" />
<glyph unicode="&#x2ba;" horiz-adv-x="734" d="M77 995l107 13l195 506l-178 -19zM381 995l108 13l195 506l-178 -19z" />
<glyph unicode="&#x2bb;" horiz-adv-x="429" d="M379 1514l-107 -11q-107 -185 -195 -508l178 21q41 272 124 498z" />
<glyph unicode="&#x2bc;" horiz-adv-x="429" d="M379 1514l-178 -19q-44 -275 -124 -500l107 13q110 191 195 506z" />
<glyph unicode="&#x2bd;" horiz-adv-x="429" d="M255 1495l-178 19q85 -315 195 -506l107 -13q-84 232 -124 500z" />
<glyph unicode="&#x2be;" horiz-adv-x="334" d="M63 1589v-92q48 0 82.5 -34.5t34.5 -84.5q0 -48 -34.5 -81.5t-82.5 -33.5v-92q87 0 148 61t61 146q0 89 -61 150t-148 61z" />
<glyph unicode="&#x2bf;" horiz-adv-x="334" d="M272 1497v92q-86 0 -147 -61q-62 -62 -62 -150q0 -84 62 -146q61 -61 147 -61v92q-48 0 -82.5 33.5t-34.5 81.5q0 50 34.5 84.5t82.5 34.5z" />
<glyph unicode="&#x2c6;" horiz-adv-x="656" d="M270 1497l-203 -309h130l127 208h4l128 -208h134l-207 309h-113z" />
<glyph unicode="&#x2c7;" horiz-adv-x="656" d="M333 1288h-5l-131 209h-134l209 -309h119l203 309h-130z" />
<glyph unicode="&#x2c8;" horiz-adv-x="236" d="M173 1453h-110v-265h110v265z" />
<glyph unicode="&#x2c9;" horiz-adv-x="656" d="M90 1389v-109h479v109h-479z" />
<glyph unicode="&#x2ca;" horiz-adv-x="656" d="M232 1188h121l265 309h-195z" />
<glyph unicode="&#x2cb;" horiz-adv-x="656" d="M57 1497l265 -309h121l-190 309h-196z" />
<glyph unicode="&#x2cc;" horiz-adv-x="236" d="M173 -59h-110v-265h110v265z" />
<glyph unicode="&#x2cd;" horiz-adv-x="656" d="M90 -123v-109h479v109h-479z" />
<glyph unicode="&#x2ce;" horiz-adv-x="656" d="M57 -15l265 -309h121l-190 309h-196z" />
<glyph unicode="&#x2cf;" horiz-adv-x="656" d="M232 -324h121l265 309h-195z" />
<glyph unicode="&#x2d8;" horiz-adv-x="656" d="M587 1486h-100q-4 -65 -49 -109.5t-110 -44.5q-135 1 -157 154h-100q0 -119 68.5 -188t188.5 -69q119 0 189 69t70 188z" />
<glyph unicode="&#x2d9;" horiz-adv-x="656" d="M412 1326q0 42 -27.5 72t-68.5 30q-44 0 -73.5 -30t-29.5 -72q0 -44 29.5 -73.5t71.5 -29.5q40 0 69 29.5t29 73.5z" />
<glyph unicode="&#x2da;" horiz-adv-x="876" d="M646 1378q0 89 -61 150t-146 61q-88 0 -149.5 -61.5t-61.5 -149.5q0 -84 62 -146q61 -61 149 -61q85 0 146 61t61 146zM554 1378q0 -48 -33.5 -81.5t-81.5 -33.5t-83.5 33.5t-35.5 81.5q0 50 35 84.5t84 34.5q48 0 81.5 -34.5t33.5 -84.5z" />
<glyph unicode="&#x2db;" horiz-adv-x="656" d="M489 -401l-20 81q-42 -21 -107 -21q-94 0 -94 98q0 59 56.5 126t148.5 117h-109q-76 -25 -145 -110q-70 -84 -70 -158q0 -78 50 -123.5t132 -45.5q91 0 158 36z" />
<glyph unicode="&#x2dc;" horiz-adv-x="656" d="M587 1444h-85q-8 -92 -57 -92q-20 0 -118 43q-95 42 -118 42q-67 0 -102.5 -56.5t-35.5 -151.5h89q9 99 59 99q14 0 43 -13q16 -8 65 -28q96 -43 120 -43q140 2 140 200z" />
<glyph unicode="&#x2dd;" horiz-adv-x="656" d="M111 1203h106l245 294h-173zM412 1203h107l246 294h-173z" />
<glyph unicode="&#x2ee;" horiz-adv-x="734" d="M379 1514l-178 -19q-44 -275 -124 -500l107 13q110 191 195 506zM684 1514l-178 -19q-38 -271 -125 -500l108 13q110 191 195 506z" />
<glyph unicode="&#x300;" d="M57 1497l265 -309h121l-190 309h-196z" />
<glyph unicode="&#x301;" d="M232 1188h121l265 309h-195z" />
<glyph unicode="&#x302;" d="M270 1497l-203 -309h130l127 208h4l128 -208h134l-207 309h-113z" />
<glyph unicode="&#x303;" d="M587 1444h-85q-8 -92 -57 -92q-20 0 -118 43q-95 42 -118 42q-67 0 -102.5 -56.5t-35.5 -151.5h89q9 99 59 99q14 0 43 -13q16 -8 65 -28q96 -43 120 -43q140 2 140 200z" />
<glyph unicode="&#x304;" d="M90 1389v-109h479v109h-479z" />
<glyph unicode="&#x306;" d="M587 1486h-100q-4 -65 -49 -109.5t-110 -44.5q-135 1 -157 154h-100q0 -119 68.5 -188t188.5 -69q119 0 189 69t70 188z" />
<glyph unicode="&#x307;" d="M412 1326q0 42 -27.5 72t-68.5 30q-44 0 -73.5 -30t-29.5 -72q0 -44 29.5 -73.5t71.5 -29.5q40 0 69 29.5t29 73.5z" />
<glyph unicode="&#x308;" d="M232 1326q0 42 -27.5 72t-68.5 30q-42 0 -71.5 -30t-29.5 -72q0 -43 28 -73t71 -30q44 0 71 29t27 74zM623 1326q0 42 -28.5 72t-71.5 30q-40 0 -70 -30.5t-30 -71.5q0 -42 28 -72.5t70 -30.5q44 0 73 29.5t29 73.5z" />
<glyph unicode="&#x309;" d="M259 1188l94 -27q19 37 47 65l54 54q61 61 61 133q0 69 -51 114.5t-129 45.5q-132 0 -206 -142l70 -42q51 77 110 77q30 0 51 -21t21 -54q0 -43 -51 -96q-20 -21 -29.5 -31.5t-22.5 -32t-19 -43.5z" />
<glyph unicode="&#x30a;" d="M646 1378q0 89 -61 150t-146 61q-88 0 -149.5 -61.5t-61.5 -149.5q0 -84 62 -146q61 -61 149 -61q85 0 146 61t61 146zM554 1378q0 -48 -33.5 -81.5t-81.5 -33.5t-83.5 33.5t-35.5 81.5q0 50 35 84.5t84 34.5q48 0 81.5 -34.5t33.5 -84.5z" />
<glyph unicode="&#x30b;" d="M111 1203h106l245 294h-173zM412 1203h107l246 294h-173z" />
<glyph unicode="&#x30c;" d="M333 1288h-5l-131 209h-134l209 -309h119l203 309h-130z" />
<glyph unicode="&#x30d;" d="M-529 1453h-109v-265h109v265z" />
<glyph unicode="&#x30e;" d="M-638 1453h-109v-265h109v265zM-418 1453h-111v-265h111v265z" />
<glyph unicode="&#x30f;" d="M-664 1203h108l-180 294h-174zM-362 1203h105l-177 294h-173z" />
<glyph unicode="&#x311;" d="M-425 1229h101q0 119 -70 188t-189 69q-120 0 -189 -69t-69 -188h101q21 153 157 153q65 0 109.5 -44t48.5 -109z" />
<glyph unicode="&#x312;" d="M-431 1514l-108 -11q-107 -185 -195 -508l178 21q40 268 125 498z" />
<glyph unicode="&#x313;" d="M-431 1514l-178 -19q-43 -270 -125 -500l107 13q112 195 196 506z" />
<glyph unicode="&#x314;" d="M-556 1495l-178 19q85 -315 195 -506l108 -13q-85 229 -125 500z" />
<glyph unicode="&#x316;" d="M-776 -107l266 -309h119l-190 309h-195z" />
<glyph unicode="&#x317;" d="M-776 -416h121l264 309h-194z" />
<glyph unicode="&#x31b;" d="M-717 1372h60q102 0 155 48t53 129q0 68 -36 160l-136 -26q36 -59 36 -123q0 -45 -22.5 -64t-78.5 -19h-31v-105z" />
<glyph unicode="&#x31c;" d="M-477 -107v92q-86 0 -147 -61q-62 -62 -62 -150q0 -87 62 -147q63 -61 147 -61v93q-49 0 -83 33.5t-34 81.5q0 50 34 84.5t83 34.5z" />
<glyph unicode="&#x323;" d="M328 -175q-43 0 -75 -30.5t-32 -74.5q0 -45 28.5 -76t72.5 -31q47 0 77 31t30 76q0 44 -29.5 74.5t-71.5 30.5z" />
<glyph unicode="&#x324;" d="M-679 -278q0 43 -28 73t-69 30t-70.5 -30.5t-29.5 -72.5q0 -43 27.5 -73t70.5 -30q44 0 71.5 29t27.5 74zM-289 -278q0 43 -27.5 73t-70.5 30q-42 0 -72 -30.5t-30 -72.5t28.5 -72.5t69.5 -30.5q44 0 73 29.5t29 73.5z" />
<glyph unicode="&#x325;" d="M-372 -226q0 86 -62 150q-59 61 -147 61t-149 -61.5t-61 -149.5q0 -89 61 -147q64 -61 149 -61q86 0 147 61q62 62 62 147zM-464 -226q0 -48 -34.5 -81.5t-82.5 -33.5t-83 33.5t-35 81.5q0 50 34.5 84.5t83.5 34.5t83 -34.5t34 -84.5z" />
<glyph unicode="&#x326;" d="M-736 -406l35 -81q108 5 185 60q87 64 87 172q0 49 -26 92t-62 67l-127 -31q75 -59 75 -132q0 -62 -47 -98t-120 -49z" />
<glyph unicode="&#x327;" d="M491 -263q0 59 -44.5 101t-109.5 51l75 115h-107l-106 -182q171 -16 171 -94q0 -43 -38.5 -59.5t-87.5 -9t-89 29.5l-30 -88q61 -40 145 -40q221 0 221 176z" />
<glyph unicode="&#x328;" d="M489 -401l-20 81q-42 -21 -107 -21q-94 0 -94 98q0 59 56.5 126t148.5 117h-109q-76 -25 -145 -110q-70 -84 -70 -158q0 -78 50 -123.5t132 -45.5q91 0 158 36z" />
<glyph unicode="&#x329;" d="M-529 -151h-109v-265h109v265z" />
<glyph unicode="&#x32c;" d="M-579 -316h-4l-132 209h-134l209 -309h119l203 309h-129z" />
<glyph unicode="&#x32d;" d="M-642 -107l-201 -309h128l128 207h4l127 -207h134l-207 309h-113z" />
<glyph unicode="&#x32e;" d="M-324 -119h-101q-4 -64 -49 -108.5t-109 -44.5q-136 0 -157 153h-101q0 -118 69 -186.5t189 -68.5t189.5 68t69.5 187z" />
<glyph unicode="&#x32f;" d="M-425 -374h101q0 117 -70 186t-189 69q-120 0 -189 -68.5t-69 -186.5h101q21 153 157 153q65 0 109.5 -44.5t48.5 -108.5z" />
<glyph unicode="&#x330;" d="M-324 -160h-86q-6 -93 -57 -93q-18 0 -118 44q-95 42 -118 42q-67 0 -102.5 -56t-35.5 -151h90q8 98 59 98q15 0 42 -13q34 -16 65 -29q99 -42 121 -42q140 0 140 200z" />
<glyph unicode="&#x331;" d="M-822 -215v-109h481v109h-481z" />
<glyph unicode="&#x334;" d="M-324 642h-86q-6 -92 -57 -92q-16 0 -118 43t-118 43q-67 0 -102.5 -57t-35.5 -152h90q7 99 59 99q15 0 42 -13q16 -8 65 -28q94 -42 121 -42q140 0 140 199z" />
<glyph unicode="&#x335;" d="M-822 587v-110h481v110h-481z" />
<glyph unicode="&#x338;" d="M-962 -88h134l627 1589h-136z" />
<glyph unicode="&#x339;" d="M-686 -15v-92q48 0 82.5 -34.5t34.5 -84.5q0 -48 -34.5 -81.5t-82.5 -33.5v-93q85 0 148 61q61 59 61 147q0 89 -61 150t-148 61z" />
<glyph unicode="&#x33e;" d="M-690 1163v-84q199 0 199 140q0 20 -13 52q-17 45 -57 133q-14 31 -14 43q1 48 100 58v90q-95 0 -152 -35.5t-57 -102.5q0 -18 43 -118t43 -118q0 -50 -92 -58z" />
<glyph unicode="&#x340;" d="M57 1497l265 -309h121l-190 309h-196z" />
<glyph unicode="&#x341;" d="M232 1188h121l265 309h-195z" />
<glyph unicode="&#x348;" d="M-638 -151h-109v-265h109v265zM-418 -151h-111v-265h111v265z" />
<glyph unicode="&#x34f;" />
<glyph unicode="&#x351;" d="M-477 1497v92q-86 0 -147 -61q-62 -62 -62 -150q0 -84 62 -146q61 -61 147 -61v92q-49 0 -83 33.5t-34 81.5q0 50 34.5 84.5t82.5 34.5z" />
<glyph unicode="&#x357;" d="M-686 1589v-92q48 0 82.5 -34.5t34.5 -84.5q0 -48 -34.5 -81.5t-82.5 -33.5v-92q87 0 148 61t61 146q0 89 -61 150t-148 61z" />
<glyph unicode="&#xa00;" horiz-adv-x="529" />
<glyph unicode="&#xe00;" horiz-adv-x="426" />
<glyph unicode="&#xe01;" horiz-adv-x="1316" d="M1148 0v774q0 212 -125 340q-133 133 -375 133q-196 0 -353 -111q-70 -50 -118.5 -116.5t-67.5 -134.5l184 -155q-58 -29 -90 -87.5t-32 -129.5v-513h166v537q0 140 125 197l-177 163q39 93 137 150t226 57q163 0 248.5 -84t85.5 -246v-774h166z" />
<glyph unicode="&#xe02;" horiz-adv-x="1209" d="M874 1227v-817q0 -163 -65.5 -226t-214.5 -63q-148 0 -216.5 67.5t-68.5 204.5v170q0 30 19 68t34.5 58.5t54.5 68.5q35 45 52.5 69.5t35.5 66t18 79.5v66q0 92 -46 140t-153 48h-164v-142h149q57 0 57 -57v-58q0 -27 -18 -61t-35.5 -56t-55.5 -67q-52 -61 -81 -113.5 t-29 -109.5v-170q0 -193 111 -302.5t336 -109.5q229 0 338 107.5t109 323.5v815h-167z" />
<glyph unicode="&#xe03;" horiz-adv-x="1217" d="M155 561v-168q0 -193 111 -302.5t336 -109.5q230 0 339 107.5t109 323.5v815h-167v-817q0 -163 -65.5 -226t-215.5 -63q-148 0 -216 67.5t-68 204.5v168q0 14 3 27.5t11 29t13 26t20 29t20.5 25.5t24.5 29.5t24 27.5q37 43 57.5 71t39.5 73.5t19 89.5v48q0 96 -44 148.5 t-132 52.5q-45 0 -84.5 -18.5t-59.5 -53.5l-75 40q-57 30 -76 41v-147q56 -25 168 -81q31 77 88 77q56 0 56 -59v-48q0 -27 -8.5 -52t-30 -55t-34 -45.5t-45.5 -51.5q-57 -64 -87.5 -115.5t-30.5 -108.5z" />
<glyph unicode="&#xe04;" horiz-adv-x="1351" d="M675 1247q-236 0 -376 -135q-130 -127 -130 -334v-778h166v307q31 102 98 156t161 54h151v147h-151q-91 0 -158.5 -45.5t-100.5 -116.5v278q0 149 87 236.5t253 87.5t253.5 -87.5t87.5 -236.5v-780h167v778q0 204 -130 334q-137 135 -378 135z" />
<glyph unicode="&#xe05;" horiz-adv-x="1371" d="M337 502v366q0 179 134 223l215 -129l215 129q134 -44 134 -223v-868h166v851q0 331 -294 396l-221 -149l-222 149q-293 -64 -293 -396v-851h166v307q31 103 98 156.5t163 53.5h151v147h-151q-93 0 -160.5 -45t-100.5 -117z" />
<glyph unicode="&#xe06;" horiz-adv-x="1318" d="M339 385v163q0 11 1.5 21.5t6 22.5t7.5 21t11 22t12.5 20.5t15.5 22.5t15.5 21t17.5 23t17 23q49 65 76 121.5t27 124.5v48q0 95 -44 147t-132 52q-46 0 -85 -18.5t-59 -53.5l-151 81v-145l170 -83q26 77 86 77q56 0 56 -59v-46q0 -35 -15.5 -73t-33 -64.5t-47.5 -66.5 q-7 -9 -10 -13q-27 -36 -40.5 -55t-32.5 -51t-27 -61t-8 -59v-548h155l11 193q140 -212 395 -212q209 0 312.5 122t103.5 351v773h-166v-771q0 -166 -64 -249.5t-205 -83.5q-119 0 -225 78q-96 70 -151 184z" />
<glyph unicode="&#xe07;" horiz-adv-x="1215" d="M406 0h150q111 0 210.5 45t174.5 129q77 86 121 208t44 269q0 288 -121 445q-116 151 -316 151q-109 0 -169 -33l23 -131q62 21 136 21q127 0 202 -103q82 -116 82 -350q0 -227 -117 -375q-51 -65 -120 -99.5t-145 -34.5h-32l-332 1085h-164z" />
<glyph unicode="&#xe08;" horiz-adv-x="1178" d="M395 0h138q117 0 216 47.5t171 136.5q149 184 149 471q0 279 -140 434q-143 158 -416 158q-132 0 -256.5 -46t-216.5 -120l52 -130q190 153 423 153q388 0 388 -447q0 -239 -109 -382q-48 -63 -112.5 -98t-131.5 -35h-31l-92 397q-18 90 -64.5 125t-136.5 35h-97v-143h84 q48 0 59 -50z" />
<glyph unicode="&#xe09;" horiz-adv-x="1286" d="M1117 0v736q0 239 -130 372q-136 139 -389 139q-284 0 -517 -164l61 -125q207 146 458 146q174 0 262.5 -95t88.5 -273v-351q-54 -116 -141 -184q-98 -78 -212 -78q-124 0 -177 55t-53 179v172q0 168 -165 168h-111v-141h71q44 0 44 -50v-155q0 -190 88.5 -280t267.5 -90 q147 0 242 61q80 51 146 148l11 -190h155z" />
<glyph unicode="&#xe0a;" horiz-adv-x="1211" d="M1043 414v228q0 104 -59 177t-152 88l247 320h-182l-240 -335l25 -70h43q69 0 109 -45.5t40 -136.5v-228q0 -160 -69 -229q-62 -62 -209 -62q-149 0 -218 68t-69 206v168q0 29 15.5 62.5t33.5 58t49 61.5q7 9 11 13q34 42 53.5 69.5t37 68.5t17.5 79v64q0 188 -200 188 h-166v-142h149q59 0 59 -57v-55q0 -11 -3 -23t-6.5 -22t-11.5 -23.5t-13 -21.5t-17.5 -23.5t-18 -22.5t-20.5 -25l-20 -24q-52 -62 -81.5 -115t-29.5 -110v-168q0 -193 112 -303.5t337 -110.5q229 0 338 107.5t109 325.5z" />
<glyph unicode="&#xe0b;" horiz-adv-x="1217" d="M318 395v168q0 16 5.5 33.5t11.5 30.5t20.5 33t22.5 29.5t28.5 34t27.5 32.5q37 45 57 72t39.5 73t19.5 90v48q0 95 -44 147t-132 52q-45 0 -84.5 -18.5t-59.5 -53.5l-151 81v-145l170 -83q26 77 86 77q58 0 58 -59v-46q0 -34 -18 -71t-34 -57t-55 -64q-8 -9 -12 -14 q-39 -45 -59 -71t-40 -69t-20 -82v-168q0 -192 109 -300q112 -114 338 -114q231 0 339.5 107.5t108.5 325.5v228q0 104 -59 177t-152 88l246 320h-182l-236 -335l23 -70h44q69 0 109 -45.5t40 -136.5v-228q0 -163 -69 -229q-66 -62 -212 -62q-148 0 -216 68t-68 206z" />
<glyph unicode="&#xe0c;" horiz-adv-x="2013" d="M1087 0l13 190q134 -209 366 -209q198 0 292 132q87 122 87 360v754h-166v-782q0 -158 -55.5 -240t-179.5 -82q-103 0 -202 78q-95 73 -144 184v389q0 212 -117 340q-124 133 -354 133q-187 0 -338 -111q-67 -50 -114 -116.5t-66 -134.5l92 -78q43 -38 92 -77 q-58 -29 -90 -87.5t-32 -129.5v-327q0 -84 49 -135t133 -51h160v138h-118q-58 0 -58 61v338q0 140 125 197q-64 58 -90 82q-44 39 -87 81q39 93 132.5 150t209.5 57q150 0 227 -84t77 -246v-774h156z" />
<glyph unicode="&#xe0d;" horiz-adv-x="2013" d="M1675 1227v-855q-54 -102 -141 -166t-202 -64q-236 0 -236 268v364q0 215 -116 340q-127 133 -353 133q-187 0 -338 -111q-67 -50 -114 -116.5t-66 -134.5l184 -155q-57 -30 -89.5 -90.5t-32.5 -126.5v-327q0 -84 49 -135t133 -51h160v138h-118q-58 0 -58 61v338 q0 140 125 197l-177 163q39 93 132.5 150t209.5 57q150 0 226 -83.5t76 -246.5v-364q0 -203 108 -311q98 -99 269 -99q133 0 235 67q88 57 134 146v-73q0 -199 -90 -275q-78 -66 -246 -66q-184 0 -323 80l-41 -128q67 -43 170 -70.5t222 -27.5q222 0 344 115 q129 123 129 370v1089h-165z" />
<glyph unicode="&#xe0e;" horiz-adv-x="1334" d="M999 774v-1096q-59 64 -158.5 107.5t-200.5 43.5q-208 0 -353 -136q14 -37 23 -65q7 -23 21 -65q75 62 150 92.5t176 30.5q165 0 305 -125h204v1213q0 211 -126 340q-133 133 -369 133q-195 0 -357 -114q-69 -49 -117.5 -116t-69.5 -136l210 -164q-56 -29 -89 -88 t-33 -127v-305q0 -30 -12 -44.5t-43 -14.5h-89v-138h128q84 0 133 49t49 135v339q0 144 127 198l-203 174q37 91 137 150t229 59q159 0 243.5 -84t84.5 -246z" />
<glyph unicode="&#xe0f;" horiz-adv-x="1334" d="M1166 -439v1213q0 211 -126 340q-133 133 -369 133q-195 0 -357 -114q-69 -49 -117.5 -116t-69.5 -136q145 -111 210 -164q-56 -29 -89 -88t-33 -127v-305q0 -30 -12 -44.5t-43 -14.5h-89v-138h128q84 0 133 49t49 135v339q0 144 127 198l-48 48l-155 126q37 91 137 150 t229 59q159 0 243.5 -84t84.5 -246v-1052l-300 180q-21 -97 -86.5 -158.5t-156.5 -61.5q-48 0 -108 22.5t-107 54.5l-44 -140q46 -32 118 -51.5t152 -19.5q85 0 159.5 48t109.5 128l270 -163h160z" />
<glyph unicode="&#xe10;" horiz-adv-x="1178" d="M395 0h138q117 0 216 47.5t171 136.5q149 184 149 471q0 280 -153 436l186 222h-188l-117 -134q-122 68 -284 68q-132 0 -256.5 -46t-216.5 -120l52 -130q185 153 423 153q190 0 289 -111.5t99 -335.5q0 -239 -109 -382q-48 -63 -112.5 -98t-131.5 -35h-31l-92 397 q-18 90 -64.5 125t-136.5 35h-97v-143h84q48 0 59 -50zM999 -165h-156v-128h-115q-69 0 -114.5 28.5t-94.5 86.5q-89 -115 -214 -115h-156v-146h142q76 0 136.5 29.5t91.5 78.5q83 -108 217 -108h263v274z" />
<glyph unicode="&#xe11;" horiz-adv-x="1327" d="M337 0v485q0 96 44 205.5t117 202.5q75 95 164 153t173 58q79 0 117.5 -54t38.5 -191v-859h166v861q0 194 -90 295q-81 91 -226 91q-101 0 -180.5 -46.5t-134.5 -119.5q-3 66 -44.5 111.5t-109.5 45.5q-47 0 -86.5 -18.5t-59.5 -53.5q-6 4 -30 18t-37 22q-40 23 -67 41 v-147l153 -81q12 36 34.5 56.5t51.5 20.5q56 0 56 -59v-75q-94 -111 -140 -198q-74 -143 -74 -284v-480h164z" />
<glyph unicode="&#xe12;" horiz-adv-x="2153" d="M1196 385v478q0 159 -75 257t-216 127l-180 -136l-175 136q-203 -43 -314 -204q-125 -179 -125 -432q0 -310 141 -475q127 -149 346 -149q102 0 191 40l-30 130q-67 -28 -152 -28q-140 0 -228 112q-101 129 -101 372q0 198 82 331q76 122 199 147l166 -114l176 117 q129 -49 129 -220v-874h156l10 193q140 -212 384 -212q204 0 304.5 122t100.5 351v773h-166v-771q0 -165 -62 -249t-197 -84q-114 0 -216 78q-93 70 -148 184z" />
<glyph unicode="&#xe13;" horiz-adv-x="2013" d="M1840 1227h-165v-842q-53 -115 -147 -184q-106 -78 -219 -78q-108 0 -160.5 68.5t-52.5 193.5v389q0 215 -116 340q-127 133 -353 133q-187 0 -338 -111q-67 -50 -114 -116.5t-66 -134.5l184 -155q-58 -29 -90 -87.5t-32 -129.5v-327q0 -84 49 -135t133 -51h160v138h-118 q-58 0 -58 61v338q0 140 125 197l-177 163q39 93 132.5 150t209.5 57q150 0 226 -83.5t76 -246.5v-391q0 -191 93 -296.5t277 -105.5q239 0 373 209l13 -190h155v1227z" />
<glyph unicode="&#xe14;" horiz-adv-x="1357" d="M1190 0v734q0 225 -121 362q-135 151 -383 151q-265 0 -425 -189q-152 -178 -152 -460q0 -295 153 -463q135 -148 343 -148q105 0 186 38l-30 130q-67 -26 -148 -26q-134 0 -227 107q-110 125 -110 362q0 234 104 368q105 138 310 138q166 0 253 -103q80 -96 80 -265 v-736h167z" />
<glyph unicode="&#xe15;" horiz-adv-x="1386" d="M736 975l182 116q132 -45 132 -217v-874h167v863q0 158 -76 255.5t-217 128.5q-32 -23 -94 -69q-44 -32 -94 -67q-134 97 -184 136q-198 -42 -318 -207q-125 -172 -125 -435q0 -307 144 -470q130 -148 347 -148q102 0 191 40q-13 61 -30 130q-67 -28 -150 -28 q-140 0 -231 110q-106 126 -106 366q0 205 85 337q76 120 202 147q40 -26 88 -56t87 -58z" />
<glyph unicode="&#xe16;" horiz-adv-x="1320" d="M337 199v338q0 140 125 197q-64 58 -90 82q-44 39 -87 81q39 93 138.5 150t227.5 57q162 0 247.5 -84t85.5 -246v-774h166v774q0 213 -126 340q-135 133 -373 133q-197 0 -354 -111q-70 -50 -119.5 -116.5t-68.5 -134.5l92 -78q43 -38 92 -77q-58 -29 -90 -87.5 t-32 -129.5v-327q0 -84 49 -135t133 -51h160v138h-118q-58 0 -58 61z" />
<glyph unicode="&#xe17;" horiz-adv-x="1340" d="M1173 0v795q0 215 -100 333.5t-291 118.5q-133 0 -255 -65q-102 -55 -188 -147l-11 192h-155v-1227h166v843q63 110 180 184q120 77 255 77q232 0 232 -309v-795h167z" />
<glyph unicode="&#xe18;" horiz-adv-x="1209" d="M1096 335v108q0 125 -67.5 195t-206.5 90l-416 61q-70 12 -105.5 44.5t-35.5 99.5q0 83 81.5 131.5t245.5 48.5q237 0 412 -92l33 134q-202 96 -450 96q-229 0 -355.5 -87t-126.5 -231q0 -129 74.5 -201t211.5 -90l414 -57q65 -10 97.5 -43.5t32.5 -96.5v-110 q0 -133 -70 -176q-67 -40 -260 -40q-188 0 -257 48q-74 50 -74 188v128h-161v-128q0 -208 115 -294q107 -80 377 -80q268 0 377 72q114 75 114 282z" />
<glyph unicode="&#xe19;" horiz-adv-x="1318" d="M169 1227v-796q0 -450 396 -450q274 0 414 212l12 -193h155v1227h-167v-842q-50 -112 -153 -184q-109 -78 -224 -78q-142 0 -204.5 75.5t-62.5 235.5v793h-166z" />
<glyph unicode="&#xe1a;" horiz-adv-x="1313" d="M657 123q-161 0 -241.5 84.5t-80.5 239.5v780h-166v-780q0 -227 124 -346.5t364 -119.5q241 0 365 119.5t124 346.5v780h-167v-780q0 -156 -80 -240t-242 -84z" />
<glyph unicode="&#xe1b;" horiz-adv-x="1313" d="M657 123q-161 0 -241.5 84.5t-80.5 239.5v780h-166v-780q0 -227 124 -346.5t364 -119.5q241 0 365 119.5t124 346.5v1197h-167v-1197q0 -156 -80 -240t-242 -84z" />
<glyph unicode="&#xe1c;" horiz-adv-x="1434" d="M655 883l-243 -454q-40 -71 -92 -243h-4q19 159 19 329v508q2 62 62 62h96v142h-136q-84 2 -134 -49.5t-50 -136.5v-1041h180l300 581q25 48 43.5 97.5t22.5 75.5h4q26 -91 66 -173l294 -581h180v1227h-163v-712q0 -205 17 -329h-2q-40 148 -90 241l-236 456h-134z" />
<glyph unicode="&#xe1d;" horiz-adv-x="1434" d="M655 883l-243 -454q-40 -71 -92 -243h-4q19 159 19 329v508q2 62 62 62h96v142h-136q-84 2 -134 -49.5t-50 -136.5v-1041h180l300 581q25 48 43.5 97.5t22.5 75.5h4q26 -91 66 -173l294 -581h180v1644h-163v-1129q0 -205 17 -329h-2q-40 148 -90 241l-236 456h-134z" />
<glyph unicode="&#xe1e;" horiz-adv-x="1533" d="M697 1166l-222 -675q-46 -152 -69 -318h-5q-6 168 -33 320l-115 734h-170q90 -543 101 -613q22 -137 101 -614h184l241 719q39 110 55 278h4q17 -163 55 -278l241 -719h184l202 1227h-169l-116 -734q-27 -155 -33 -320h-4q-25 168 -71 318l-221 675h-140z" />
<glyph unicode="&#xe1f;" horiz-adv-x="1533" d="M701 1166l-221 -675q-52 -159 -74 -318h-5q-6 168 -33 320l-115 734h-170q90 -543 101 -613q22 -137 101 -614h184l246 719q39 118 54 278h5q15 -159 54 -278l246 -719h184l204 1644h-169l-118 -1151q-27 -143 -33 -320h-5q-23 167 -70 318l-226 675h-140z" />
<glyph unicode="&#xe20;" horiz-adv-x="1334" d="M1166 0v774q0 211 -126 340q-133 133 -369 133q-195 0 -357 -114q-69 -49 -117.5 -116t-69.5 -136l210 -164q-56 -29 -89 -88t-33 -127v-305q0 -30 -12 -44.5t-43 -14.5h-89v-138h128q84 0 133 49t49 135v339q0 144 127 198l-203 174q37 91 137 150t229 59 q159 0 243.5 -84t84.5 -246v-774h167z" />
<glyph unicode="&#xe21;" horiz-adv-x="1318" d="M984 1227v-771q0 -166 -64 -249.5t-205 -83.5q-119 0 -225 78q-96 70 -151 184v842h-166v-1227h155l11 193q140 -212 395 -212q209 0 312.5 122t103.5 351v773h-166z" />
<glyph unicode="&#xe22;" horiz-adv-x="1263" d="M929 1227v-775q0 -329 -335 -329q-140 0 -227 62q-99 71 -99 194q0 103 68 166.5t172 63.5h163q-1 37 -6 73q-2 12 -4.5 36.5t-3.5 35.5h-177q-83 0 -144 47q-71 54 -71 137q0 72 44 116t128 44q68 0 142 -33q6 46 10 69l9 69q-78 37 -188 37q-141 0 -223 -79t-82 -203 q0 -115 56 -186t153 -97q-99 -33 -154 -113t-55 -192q0 -187 129 -288t358 -101q259 0 386 127q118 118 118 341v778h-167z" />
<glyph unicode="&#xe23;" horiz-adv-x="1073" d="M498 121q-213 0 -349 76l-42 -130q154 -86 399 -86q233 0 348.5 89.5t115.5 249.5q0 156 -119 251q-97 77 -305 139q-143 45 -197 80q-84 54 -84 137q0 81 78.5 130t221.5 49q178 0 316 -69l41 129q-157 81 -374 81q-207 0 -326 -85t-119 -235q0 -149 113 -239 q92 -74 269 -121q147 -43 220 -87q104 -63 104 -156q0 -88 -81.5 -145.5t-229.5 -57.5z" />
<glyph unicode="&#xe24;" horiz-adv-x="1320" d="M337 199v338q0 140 125 197q-64 58 -90 82q-44 39 -87 81q39 93 138.5 150t227.5 57q162 0 247.5 -84t85.5 -246v-1213h166v1213q0 213 -126 340q-135 133 -373 133q-197 0 -354 -111q-70 -50 -119.5 -116.5t-68.5 -134.5l92 -78q43 -38 92 -77q-58 -29 -90 -87.5 t-32 -129.5v-327q0 -84 49 -135t133 -51h160v138h-118q-58 0 -58 61z" />
<glyph unicode="&#xe25;" horiz-adv-x="1252" d="M1085 0v789q0 216 -122 337t-350 121q-146 0 -285 -48q-119 -41 -199 -101l55 -119q182 130 418 130q168 0 242 -81.5t74 -241.5v-39h-293q-270 0 -406 -105t-136 -301q0 -178 112 -272q104 -88 278 -88q133 0 230 38l-28 136q-77 -36 -186 -36q-105 0 -173.5 57.5 t-68.5 168.5q0 260 360 260h311v-605h167z" />
<glyph unicode="&#xe26;" horiz-adv-x="1334" d="M1166 -439v1213q0 211 -126 340q-133 133 -369 133q-195 0 -357 -114q-69 -49 -117.5 -116t-69.5 -136l210 -164q-56 -29 -89 -88t-33 -127v-305q0 -30 -12 -44.5t-43 -14.5h-89v-138h128q84 0 133 49t49 135v339q0 144 127 198l-203 174q37 91 137 150t229 59 q159 0 243.5 -84t84.5 -246v-1213h167z" />
<glyph unicode="&#xe27;" horiz-adv-x="1134" d="M123 228l-40 -136q172 -111 397 -111q265 0 405 163t140 477q0 298 -137 462t-395 164q-111 0 -219.5 -33t-194.5 -87l40 -134q167 111 364 111q376 0 376 -495q0 -243 -99 -364.5t-277 -121.5q-188 0 -360 105z" />
<glyph unicode="&#xe28;" horiz-adv-x="1351" d="M675 1247q-236 0 -376 -135q-130 -127 -130 -334v-778h166v307q31 102 98 156t161 54h151v147h-151q-91 0 -158.5 -45.5t-100.5 -116.5v278q0 149 87 236.5t253 87.5t253.5 -87.5t87.5 -236.5v-780h167v778q0 189 -123 320l184 215h-190l-109 -130q-120 64 -270 64z" />
<glyph unicode="&#xe29;" horiz-adv-x="1344" d="M657 123q-161 0 -241.5 84.5t-80.5 239.5v780h-166v-780q0 -227 124 -346.5t364 -119.5q241 0 365 119.5t124 346.5v206h144l38 142h-182v432h-167v-432h-291v-142h291v-206q0 -156 -80 -240t-242 -84z" />
<glyph unicode="&#xe2a;" horiz-adv-x="1252" d="M1085 0v789q-2 197 -110 317l175 207h-190l-103 -119q-108 53 -250 53q-135 0 -274 -47q-122 -41 -204 -102l55 -119q182 130 423 130q311 0 311 -323v-39h-293q-270 0 -406 -105t-136 -301q0 -178 112 -272q104 -88 278 -88q133 0 230 38l-28 136q-77 -36 -186 -36 q-105 0 -173.5 57.5t-68.5 168.5q0 260 360 260h311v-605h167z" />
<glyph unicode="&#xe2b;" horiz-adv-x="1265" d="M1201 0l-166 572q-41 133 -109 208.5t-181 91.5l428 355h-226l-608 -504v504h-166v-1227h166v539l286 235q177 -7 241 -218l159 -556h176z" />
<glyph unicode="&#xe2c;" horiz-adv-x="1434" d="M1263 0v953q0 119 -58.5 198t-171.5 91l288 402h-173l-285 -417l24 -70h33q101 0 140.5 -45.5t39.5 -160.5v-436q0 -161 20 -329h-5q-52 172 -92 243l-243 454h-134l-236 -456q-49 -92 -90 -241h-2q17 143 17 329v712h-162v-1227h180l293 581q43 87 67 173h4 q11 -73 65 -173l301 -581h180z" />
<glyph unicode="&#xe2d;" horiz-adv-x="1284" d="M526 699h-195q-103 0 -160.5 -54.5t-57.5 -159.5v-69q0 -212 127 -323.5t381 -111.5q273 0 412.5 159t139.5 467q0 301 -144.5 470.5t-413.5 169.5q-148 0 -288 -51q-130 -47 -206 -111l54 -123q191 142 438 142q188 0 290.5 -125.5t102.5 -363.5q0 -492 -388 -492 q-340 0 -340 293v61q0 37 19.5 58t51.5 21h177v143z" />
<glyph unicode="&#xe2e;" horiz-adv-x="1284" d="M526 699h-195q-103 0 -160.5 -54.5t-57.5 -159.5v-69q0 -212 127 -323.5t381 -111.5q273 0 412.5 159t139.5 467q0 334 -182 504l170 202h-191l-102 -119q-117 53 -253 53q-148 0 -288 -51q-130 -47 -206 -111l54 -123q191 142 438 142q188 0 290.5 -125.5t102.5 -363.5 q0 -492 -388 -492q-340 0 -340 293v61q0 37 19.5 58t51.5 21h177v143z" />
<glyph unicode="&#xe2f;" horiz-adv-x="1173" d="M1002 1227h-156v-39q0 -123 -115 -235q-53 -51 -120.5 -81.5t-133.5 -30.5q-121 0 -177.5 74.5t-56.5 226.5v85h-160v-83q0 -201 83 -312q90 -122 279 -122q125 0 238 62q109 61 152 152v-924h167v1227z" />
<glyph unicode="&#xe30;" horiz-adv-x="648" d="M539 947h-228q-31 0 -42.5 11.5t-11.5 40.5v80h-159v-97q0 -171 191 -171h250v136zM539 331h-228q-30 0 -42 11.5t-12 38.5v81h-159v-98q0 -169 191 -169h250v136z" />
<glyph unicode="&#xe31;" d="M132 1534h-525q-34 -1 -51.5 17t-17.5 53v66h-159v-85q0 -187 209 -187h544v136z" />
<glyph unicode="&#xe32;" horiz-adv-x="1022" d="M855 0v795q0 218 -107 335t-317 117q-109 0 -232 -46q-101 -37 -178 -99l44 -125q69 55 163 91t193 36q267 0 267 -309v-795h167z" />
<glyph unicode="&#xe33;" horiz-adv-x="1022" d="M-257 1363q89 0 150 59.5t61 148.5t-61.5 150t-149.5 61q-84 0 -144 -62q-61 -61 -61 -149q0 -85 61 -148q57 -60 144 -60zM-257 1472q-38 0 -66 29t-28 72t28 71t66 28q43 0 71.5 -27.5t28.5 -71.5q0 -43 -29 -72t-71 -29zM855 0v795q0 218 -107 335t-317 117 q-109 0 -232 -46q-101 -37 -178 -99l44 -125q69 55 163 91t193 36q267 0 267 -309v-795h167z" />
<glyph unicode="&#xe34;" d="M-169 1534h-931v-136h931v136z" />
<glyph unicode="&#xe35;" d="M-169 1740h-157v-206h-774v-136h931v342z" />
<glyph unicode="&#xe36;" d="M-1098 1398h791q79 0 133 52q53 51 53 133q0 78 -54.5 133t-131.5 55q-76 0 -130 -55t-54 -133q0 -25 11 -49h-618v-136zM-307 1505q-31 0 -53.5 23.5t-22.5 56.5t22.5 55.5t53.5 22.5q33 0 55 -21.5t22 -56.5q0 -33 -22 -56.5t-55 -23.5z" />
<glyph unicode="&#xe37;" d="M-169 1740h-140v-210h-114v210h-138v-206h-539v-136h931v342z" />
<glyph unicode="&#xe38;" d="M-169 -556v223q0 93 -39.5 134.5t-126.5 41.5h-125v-138h81q48 -1 48 -50v-211h162z" />
<glyph unicode="&#xe39;" d="M-441 -581q133 0 202.5 58t69.5 166v202h-157v-161q0 -81 -25 -112.5t-90 -31.5t-89 31t-24 113v161h-270v-136h114v-66q0 -108 68 -166t201 -58z" />
<glyph unicode="&#xe3a;" d="M-125 -270q0 54 -39 93t-95 39q-52 0 -92 -39.5t-40 -92.5q0 -50 40 -88.5t92 -38.5q57 0 95.5 38t38.5 89z" />
<glyph unicode="&#xe3f;" horiz-adv-x="1240" d="M710 -219v221q225 12 339 120.5t114 289.5q0 146 -90 238q-75 76 -199 97q93 33 154 101q74 84 74 202q0 161 -101 259t-291 113v222h-112v-220h-429v-1424h429v-219h112zM328 1280h270v-471h-270v471zM943 1056q0 -106 -64 -167.5t-169 -77.5v464q110 -10 171.5 -65 t61.5 -154zM328 664h270v-520h-270v520zM1004 412q0 -119 -75.5 -187t-218.5 -78v514q142 -10 218 -68t76 -181z" />
<glyph unicode="&#xe40;" horiz-adv-x="516" d="M341 1227h-166v-1227h166v1227z" />
<glyph unicode="&#xe41;" horiz-adv-x="941" d="M337 1227h-162v-1227h162v1227zM767 1227h-162v-1227h162v1227z" />
<glyph unicode="&#xe42;" horiz-adv-x="584" d="M399 0v1330q0 154 -59.5 278t-170.5 186q47 56 134 85.5t197 29.5q189 0 307 -64l28 145q-48 21 -142 41q-84 18 -208 18q-166 0 -299 -63.5t-203 -184.5l4 -37q84 -43 144 -118q101 -127 101 -298v-1348h167z" />
<glyph unicode="&#xe43;" horiz-adv-x="584" d="M399 0v1146q0 58 22.5 118t46 96t67.5 94q37 49 51.5 69t39.5 62t35 78.5t10 76.5q0 134 -90 219q-95 90 -259 90q-120 0 -229.5 -51.5t-165.5 -128.5l54 -116q69 75 156 113.5t174 38.5q94 0 140.5 -45.5t46.5 -119.5q0 -16 -3.5 -33t-7.5 -30.5t-14.5 -32t-16.5 -29.5 t-21 -32t-21.5 -29.5t-24.5 -32.5t-24 -31q-42 -54 -65.5 -90.5t-45.5 -95.5t-22 -116v-1188h167z" />
<glyph unicode="&#xe44;" horiz-adv-x="584" d="M399 0v1516q0 136 58 234.5t164 149.5v118h-750v-138h539q-178 -138 -178 -406v-1474h167z" />
<glyph unicode="&#xe45;" horiz-adv-x="1022" d="M855 -439v1234q0 218 -107 335t-317 117q-109 0 -232 -46q-101 -37 -178 -99l44 -125q69 55 163 91t193 36q267 0 267 -309v-1234h167z" />
<glyph unicode="&#xe46;" horiz-adv-x="1217" d="M1045 -439v1340q0 147 -74.5 243t-214.5 107l-177 -134l-173 134q-124 -20 -207 -92q-90 -79 -90 -197q0 -142 88 -215q75 -65 190 -65q66 0 106 15l-20 125q-30 -9 -67 -9q-72 0 -111.5 38.5t-39.5 110.5q0 58 38 98t102 51l186 -129l182 129q115 -23 115 -197v-1353 h167z" />
<glyph unicode="&#xe47;" d="M-245 1534h-150q-89 0 -105 66h-98q-10 -37 -37 -62.5t-66 -25.5q-47 0 -74 26.5t-27 69.5q0 48 28 79t84 31h445v127h-452q-126 0 -195 -72q-64 -67 -64 -163q0 -89 61 -153q65 -68 170 -68q70 0 116.5 31t62.5 81q20 -48 63.5 -75.5t97.5 -27.5h140v136z" />
<glyph unicode="&#xe48;" d="M-169 2137h-155v-287h155v287z" />
<glyph unicode="&#xe49;" d="M21 1981h-291q-31 0 -31 31v37q0 61 -24.5 89.5t-80.5 28.5h-177v-131h108q20 0 26 -9t6 -28v-40q0 -109 94 -109h370v131z" />
<glyph unicode="&#xe4a;" d="M-280 1850h79q115 0 188 78q65 71 65 167q0 40 -17 96h-152q23 -44 23 -94q0 -125 -77 -158q2 16 2 22v20q0 72 -41 115t-121 47l-100 -94l-108 92q-86 -11 -134 -64t-48 -120q0 -65 18 -112h144q-22 53 -22 94q0 25 14 45.5t34 22.5l99 -70l101 75q26 -6 42.5 -25 t16.5 -48q0 -32 -19 -57z" />
<glyph unicode="&#xe4b;" d="M-19 2101l-159 -4l5 140h-145l4 -140l-157 4v-116l157 5l-4 -140h145l-5 140l159 -5v116z" />
<glyph unicode="&#xe4c;" d="M-46 1920h-199q-104 0 -158.5 -51.5t-54.5 -141.5v-69h163v47q-1 40 20 59.5t64 19.5h165v136z" />
<glyph unicode="&#xe4d;" d="M-257 1363q89 0 150 59.5t61 148.5t-61.5 150t-149.5 61q-84 0 -144 -62q-61 -61 -61 -149q0 -85 61 -148q57 -60 144 -60zM-257 1472q-38 0 -66 29t-28 72t28 71t66 28q43 0 71.5 -27.5t28.5 -71.5q0 -43 -29 -72t-71 -29z" />
<glyph unicode="&#xe4e;" d="M-333 1424v96q-45 -15 -101 -15q-48 0 -74.5 19.5t-26.5 53.5q0 70 92 70q60 0 123 -17l31 80q-56 27 -56 68q0 19 14 32.5t38 13.5h120l-28 110h-123q-76 0 -114 -33q-36 -32 -37 -75.5t30 -78.5q-115 13 -175 -39q-55 -48 -55 -131q0 -90 68 -138q61 -44 151 -44 q73 0 123 28z" />
<glyph unicode="&#xe4f;" horiz-adv-x="1196" d="M598 57q94 0 180.5 37t151.5 102q64 64 99.5 149.5t35.5 180.5q0 194 -135 331q-65 64 -151 100t-181 36q-94 0 -180 -36t-151 -100q-135 -135 -135 -331q0 -96 35.5 -181t99.5 -149q65 -65 151 -102t180 -37zM598 127q-169 0 -281 117q-118 121 -118 282 q0 80 31.5 153.5t86.5 128.5q116 116 281 116q164 0 283 -116q116 -116 116 -282q0 -163 -116 -282q-115 -117 -283 -117zM598 261q106 0 188 77q77 74 77 188q0 110 -77 187q-80 78 -190 78q-109 0 -187 -78q-78 -76 -78 -190q0 -109 78 -184q78 -78 189 -78zM598 364 q-66 0 -113.5 47.5t-47.5 111.5q0 66 47.5 113.5t111.5 47.5q67 0 113.5 -46.5t46.5 -111.5q0 -69 -46 -115.5t-112 -46.5z" />
<glyph unicode="&#xe50;" horiz-adv-x="1391" d="M697 1079q-248 0 -415 -147q-173 -151 -173 -401q0 -251 173 -403q166 -147 412 -147q250 0 416 147q172 153 172 403q0 124 -45 226.5t-127 174.5q-167 147 -413 147zM694 119q-181 0 -299 109q-125 114 -125 303q0 186 125 300q119 110 299 110q88 0 167.5 -29 t136.5 -81q124 -116 124 -300q0 -187 -124 -303q-57 -52 -136.5 -80.5t-167.5 -28.5z" />
<glyph unicode="&#xe51;" horiz-adv-x="1401" d="M575 -247h69q272 0 457 185q192 192 192 496q0 285 -161 463q-166 182 -446 182q-259 0 -421 -151t-162 -382q0 -223 135 -350q127 -121 321 -121q110 0 192 46q-5 66 -11 128q-88 -36 -179 -36q-132 0 -217 85q-87 87 -87 246q0 168 119 284q118 113 306 113 q210 0 331 -142q118 -140 118 -370q0 -254 -152 -408q-65 -65 -149.5 -99.5t-172.5 -34.5h-67z" />
<glyph unicode="&#xe52;" horiz-adv-x="1631" d="M1472 418v272q0 179 -78 275t-248 114l-173 -161l-191 161q-132 -21 -208 -108t-76 -228q0 -132 77 -218t211 -111l44 123q-83 26 -133.5 78.5t-50.5 131.5q0 66 35 119.5t95 64.5l197 -147l184 145q80 -9 118 -63.5t38 -168.5v-279q0 -140 -70.5 -210t-192.5 -70h-463 q-122 0 -191.5 70t-69.5 210v809h-161v-809q0 -188 105 -301q109 -117 307 -117h483q199 0 308 117q104 111 104 301z" />
<glyph unicode="&#xe53;" horiz-adv-x="1441" d="M805 401v322q0 215 172 215q87 0 121 -67q24 -48 24 -143v-728h160v725q0 157 -71 252q-77 102 -227 102q-178 0 -252 -159q-60 159 -243 159q-174 0 -271 -157q-91 -147 -91 -396q0 -240 101 -391q99 -148 270 -148q88 0 146 40l-33 111q-49 -21 -107 -21 q-99 0 -158 109.5t-59 302.5q0 190 51 293q56 116 168 116q82 0 116.5 -55t34.5 -160v-322h148z" />
<glyph unicode="&#xe54;" horiz-adv-x="1325" d="M1260 134h-116q-128 0 -195.5 56t-67.5 161q0 73 40 117.5t104 44.5h86l29 133h-145q-118 0 -194 -74t-76 -202q0 -101 51 -177q-34 -39 -78 -57.5t-111 -18.5q-135 0 -224 109q-93 114 -93 297q0 199 119 302q110 95 305 95h262q163 0 244.5 71t81.5 207v29h-160v-29 q0 -69 -42 -104.5t-149 -35.5h-239q-258 0 -415 -137q-168 -147 -168 -402q0 -247 125 -394q122 -144 318 -144q109 0 173.5 30.5t109.5 86.5q53 -55 119 -76.5t171 -21.5h107z" />
<glyph unicode="&#xe55;" horiz-adv-x="1325" d="M1260 134h-116q-130 0 -198 55t-68 162q0 71 41.5 116.5t105.5 45.5h84l31 133h-145q-118 0 -194 -74t-76 -202q0 -105 51 -180q-39 -38 -83 -57.5t-108 -19.5q-131 0 -223 112q-94 113 -94 298q0 197 119 300q110 95 305 95h264q161 0 242.5 71t81.5 209v29h-160v-29 q0 -69 -42 -104.5t-149 -35.5h-122q10 27 10 59q0 83 -57 142q-56 58 -139 58t-141 -60q-55 -58 -55 -140q0 -57 27 -98q-162 -55 -253.5 -181.5t-91.5 -318.5q0 -244 127 -394q122 -144 318 -144q107 0 171.5 29.5t111.5 85.5q50 -54 116.5 -75t173.5 -21h107zM621 1033 q-36 0 -60 25t-24 62t24 62t60 25t60 -24.5t24 -62.5q0 -37 -24 -62t-60 -25z" />
<glyph unicode="&#xe56;" horiz-adv-x="1342" d="M360 506l-121 88q-38 -37 -62 -95.5t-24 -121.5q0 -180 133 -285q140 -111 369 -111q291 0 443 167q136 149 136 389q0 115 -40 215.5t-112 174.5q-70 72 -168.5 112t-208.5 40q-125 0 -229 -48t-173 -132l-115 348h-159l168 -486h131q63 88 149 136t217 48 q171 0 276 -113q104 -113 104 -291q0 -194 -103 -303q-113 -119 -318 -119q-156 0 -258 78q-88 66 -88 169q0 37 14.5 77t38.5 63z" />
<glyph unicode="&#xe57;" horiz-adv-x="1754" d="M756 657v114q0 73 37 120t99 47q80 0 108 -67q19 -47 19 -143v-728h210q177 0 269.5 103.5t92.5 279.5v844h-160v-867q0 -114 -53.5 -173.5t-145.5 -59.5h-55v598q0 151 -63 252q-65 102 -187 102q-173 0 -239 -150q-20 74 -67.5 112t-135.5 38q-163 0 -263 -157 q-95 -149 -95 -396q0 -240 101 -391q99 -148 270 -148q89 0 146 40l-33 111q-48 -21 -107 -21q-95 0 -156 111t-61 301q0 186 50 293q55 116 161 116q117 0 117 -167v-114h141z" />
<glyph unicode="&#xe58;" horiz-adv-x="1384" d="M646 918h287q327 0 327 280v29h-160v-29q0 -69 -41.5 -104.5t-148.5 -35.5h-277q-214 0 -349 -129q-131 -126 -131 -311v-279q0 -162 102 -252.5t274 -95.5l205 218l236 -218q125 6 230 113q104 107 104 253q0 122 -81 228t-202 118l-53 -122q80 -15 131 -72.5t51 -144.5 q0 -83 -40.5 -143t-114.5 -81l-261 234l-243 -238q-77 2 -127 62t-50 147v260q0 144 85.5 228.5t246.5 84.5z" />
<glyph unicode="&#xe59;" horiz-adv-x="1349" d="M1122 0l-269 786q0 69 34.5 117t94.5 48q53 0 89.5 -45t55.5 -117h117l84 438h-142l-51 -278q-55 130 -188 130q-74 0 -120.5 -43.5t-46.5 -125.5q-43 81 -99 119q-74 50 -186 50q-84 0 -157.5 -40.5t-127.5 -113.5q-112 -151 -112 -394q0 -256 116 -406 q110 -142 275 -142q92 0 168 52l-32 112q-62 -38 -130 -38q-95 0 -163 115q-73 119 -73 309q0 179 66 291q68 114 179 114q79 0 122.5 -48t78.5 -145l261 -745h156z" />
<glyph unicode="&#xe5a;" horiz-adv-x="1592" d="M1002 0v710q86 30 151.5 86.5t99.5 127.5v-924h167v1227h-157v-39q0 -96 -77 -201q-84 -113 -184 -148v388h-156v-39q0 -123 -115 -235q-53 -51 -120.5 -81.5t-133.5 -30.5q-121 0 -177.5 74.5t-56.5 226.5v85h-160v-83q0 -201 83 -312q90 -122 279 -122q125 0 238 62 q109 61 152 152v-924h167z" />
<glyph unicode="&#xe5b;" horiz-adv-x="2486" d="M2439 418l-39 101q-60 -21 -123 -21q-107 0 -172.5 96.5t-90.5 268.5h-70l-112 -368l-142 417h-88l-125 -441l-164 487h-88q-6 -119 -43 -243t-102 -224q-159 -246 -409 -246q-167 0 -281 108t-114 278q0 145 82 250q87 112 234 112q114 0 186.5 -79t82.5 -201h132 q-8 161 -113 280q-113 124 -284 124q-211 0 -335 -137q-125 -138 -125 -349q0 -220 153 -370q152 -150 382 -150q224 0 399 156q161 145 227 377l140 -414h77l136 458l151 -418h73l98 335q96 -220 285 -220q80 0 182 33z" />
<glyph unicode="&#x1e00;" horiz-adv-x="1298" d="M749 1477h-193l-499 -1477h171l157 477h527l162 -477h175zM423 609l149 443q25 68 74 269h5q51 -200 77 -271l148 -441h-453zM863 -316q0 87 -61 150q-59 61 -147 61t-149 -61.5t-61 -149.5q0 -87 61 -146q63 -61 149 -61q88 0 147 61q61 63 61 146zM771 -316 q0 -48 -34 -81.5t-82 -33.5t-83 33.5t-35 81.5q0 50 34.5 84.5t83.5 34.5q48 0 82 -34t34 -85z" />
<glyph unicode="&#x1e01;" horiz-adv-x="1022" d="M734 0h151q-15 84 -15 253v404q0 424 -385 424q-189 0 -332 -90l40 -115q116 77 267 77q243 0 243 -261v-23q-306 0 -465 -100t-159 -293q0 -128 90 -216q87 -85 224 -85q213 0 320 161h6zM705 548v-197q0 -110 -86 -181q-81 -67 -188 -67q-82 0 -133 50.5t-51 145.5 q1 249 426 249h32zM692 -339q0 89 -61 148q-64 62 -146 62q-88 0 -149.5 -61t-61.5 -149q0 -85 62 -147t149 -62q84 0 146 62q61 61 61 147zM600 -339q0 -48 -33.5 -82.5t-81.5 -34.5t-83.5 34.5t-35.5 82.5q0 50 35 84t84 34q48 0 81.5 -34t33.5 -84z" />
<glyph unicode="&#x1e02;" horiz-adv-x="1148" d="M594 1700q0 43 -27.5 73.5t-68.5 30.5q-44 0 -73.5 -30.5t-29.5 -73.5q0 -44 29 -73t71 -29q41 0 70 29t29 73zM1058 418q0 139 -83.5 239t-220.5 134v4q115 42 182.5 129.5t67.5 197.5q0 177 -132 271.5t-377 94.5q-177 0 -328 -31v-1455q125 -15 280 -15q310 0 465 119 q146 111 146 312zM835 1106q0 -114 -88.5 -187t-233.5 -73h-180v497q51 16 169 16q333 0 333 -253zM883 418q0 -144 -102 -221.5t-288 -77.5q-82 0 -160 10v590h160q181 0 285.5 -80.5t104.5 -220.5z" />
<glyph unicode="&#x1e03;" horiz-adv-x="1211" d="M644 1767q0 42 -27.5 72t-68.5 30q-44 0 -73.5 -30t-29.5 -72q0 -44 29.5 -74t71.5 -30q40 0 69 30t29 74zM1129 541q0 238 -122 390q-122 150 -317 150q-250 -1 -357 -198h-5v671h-165v-1291q0 -95 -10 -263h154v175h7q114 -200 350 -200q199 0 332 160q133 162 133 406 zM960 535q0 -192 -88.5 -308t-240.5 -116q-123 0 -210 85q-93 90 -93 220v205q0 139 96 235q91 91 214 91q145 0 234 -117q88 -116 88 -295z" />
<glyph unicode="&#x1e04;" horiz-adv-x="1148" d="M1058 418q0 139 -83.5 239t-220.5 134v4q115 42 182.5 129.5t67.5 197.5q0 177 -132 271.5t-377 94.5q-177 0 -328 -31v-1455q125 -15 280 -15q310 0 465 119q146 111 146 312zM835 1106q0 -114 -88.5 -187t-233.5 -73h-180v497q51 16 169 16q333 0 333 -253zM883 418 q0 -144 -102 -221.5t-288 -77.5q-82 0 -160 10v590h160q181 0 285.5 -80.5t104.5 -220.5zM585 -221q0 42 -27.5 72t-68.5 30q-44 0 -74 -30t-30 -72q0 -44 30 -73.5t72 -29.5q40 0 69 29.5t29 73.5z" />
<glyph unicode="&#x1e05;" horiz-adv-x="1211" d="M1129 541q0 238 -122 390q-122 150 -317 150q-250 -1 -357 -198h-5v671h-165v-1291q0 -95 -10 -263h154v175h7q114 -200 350 -200q199 0 332 160q133 162 133 406zM960 535q0 -192 -88.5 -308t-240.5 -116q-123 0 -210 85q-93 90 -93 220v205q0 139 96 235q91 91 214 91 q145 0 234 -117q88 -116 88 -295zM740 -232q0 43 -27.5 73t-68.5 30q-44 0 -73.5 -30t-29.5 -73q0 -44 29.5 -73.5t71.5 -29.5q40 0 69 29.5t29 73.5z" />
<glyph unicode="&#x1e06;" horiz-adv-x="1148" d="M1058 418q0 139 -83.5 239t-220.5 134v4q115 42 182.5 129.5t67.5 197.5q0 177 -132 271.5t-377 94.5q-177 0 -328 -31v-1455q125 -15 280 -15q310 0 465 119q146 111 146 312zM835 1106q0 -114 -88.5 -187t-233.5 -73h-180v497q51 16 169 16q333 0 333 -253zM883 418 q0 -144 -102 -221.5t-288 -77.5q-82 0 -160 10v590h160q181 0 285.5 -80.5t104.5 -220.5zM287 -119v-109h480v109h-480z" />
<glyph unicode="&#x1e07;" horiz-adv-x="1211" d="M1129 541q0 238 -122 390q-122 150 -317 150q-250 -1 -357 -198h-5v671h-165v-1291q0 -95 -10 -263h154v175h7q114 -200 350 -200q199 0 332 160q133 162 133 406zM960 535q0 -192 -88.5 -308t-240.5 -116q-123 0 -210 85q-93 90 -93 220v205q0 139 96 235q91 91 214 91 q145 0 234 -117q88 -116 88 -295zM401 -129v-110h480v110h-480z" />
<glyph unicode="&#x1e08;" horiz-adv-x="1250" d="M723 1608h120l266 309h-195zM1166 46l-37 134q-126 -59 -307 -59q-270 0 -418 162q-149 163 -149 447q0 144 39 262q77 231 297 323q102 46 256 43.5t275 -59.5l44 136q-122 64 -338 64q-167 0 -305 -55.5t-238 -158.5q-206 -212 -206 -560q0 -308 162 -507 q158 -198 436 -233l-92 -163q169 -16 169 -94q0 -43 -38 -59.5t-86.5 -9t-88.5 29.5l-31 -90q62 -36 149 -36q96 0 156.5 43.5t60.5 125.5q0 60 -43 104t-108 53l57 90q245 1 384 67z" />
<glyph unicode="&#x1e09;" horiz-adv-x="956" d="M533 1190h120l265 309h-195zM857 892l42 131q-103 58 -263 58q-246 0 -399 -158q-154 -159 -154 -404q0 -219 118 -365q117 -146 312 -169l-92 -163q169 -16 169 -94q0 -43 -39.5 -59.5t-89 -9t-84.5 29.5l-30 -88q58 -40 142 -40q221 0 221 176q0 60 -43 101.5 t-108 50.5l56 90q157 1 282 61l-34 127q-115 -54 -236 -54q-163 0 -268 114q-104 112 -104 299q0 182 100 299q102 120 278 120q127 0 224 -53z" />
<glyph unicode="&#x1e0a;" horiz-adv-x="1415" d="M651 1700q0 43 -28 73.5t-69 30.5q-44 0 -73 -30.5t-29 -73.5q0 -44 29 -73t71 -29q40 0 69.5 29t29.5 73zM1334 776q0 338 -191 519q-204 193 -591 193q-191 0 -385 -31v-1455q121 -15 331 -15q413 0 629 210q207 201 207 579zM1161 767q0 -314 -160.5 -479t-471.5 -165 q-147 0 -196 9v1202q97 21 226 21q297 0 449.5 -148.5t152.5 -439.5z" />
<glyph unicode="&#x1e0b;" horiz-adv-x="1198" d="M811 1767q0 42 -27.5 72t-68.5 30q-44 0 -74 -30t-30 -72q0 -44 30 -74t72 -30q39 0 68.5 30.5t29.5 73.5zM897 0h148q-8 134 -8 263v1291h-167v-638h-4q-90 165 -316 165q-204 0 -336 -159q-131 -158 -131 -409q0 -233 128 -385q127 -153 318 -153q250 0 354 209h14 v-184zM870 631v-194q0 -131 -83 -227q-87 -99 -215 -99q-145 0 -232 115q-87 114 -87 297q0 191 88 307q90 119 238 119q125 0 208 -89q83 -91 83 -229z" />
<glyph unicode="&#x1e0c;" horiz-adv-x="1415" d="M1334 776q0 338 -191 519q-204 193 -591 193q-191 0 -385 -31v-1455q121 -15 331 -15q413 0 629 210q207 201 207 579zM1161 767q0 -314 -160.5 -479t-471.5 -165q-147 0 -196 9v1202q97 21 226 21q297 0 449.5 -148.5t152.5 -439.5zM598 -221q0 42 -27.5 72t-68.5 30 q-44 0 -73.5 -30t-29.5 -72q0 -44 29.5 -73.5t71.5 -29.5q40 0 69 29.5t29 73.5z" />
<glyph unicode="&#x1e0d;" horiz-adv-x="1198" d="M897 0h148q-8 134 -8 263v1291h-167v-638h-4q-90 165 -316 165q-204 0 -336 -159q-131 -158 -131 -409q0 -233 128 -385q127 -153 318 -153q250 0 354 209h14v-184zM870 631v-194q0 -131 -83 -227q-87 -99 -215 -99q-145 0 -232 115q-87 114 -87 297q0 191 88 307 q90 119 238 119q125 0 208 -89q83 -91 83 -229zM664 -232q0 43 -28 73t-69 30q-44 0 -73.5 -30t-29.5 -73q0 -44 29.5 -73.5t71.5 -29.5q40 0 69.5 29.5t29.5 73.5z" />
<glyph unicode="&#x1e0e;" horiz-adv-x="1415" d="M1334 776q0 338 -191 519q-204 193 -591 193q-191 0 -385 -31v-1455q121 -15 331 -15q413 0 629 210q207 201 207 579zM1161 767q0 -314 -160.5 -479t-471.5 -165q-147 0 -196 9v1202q97 21 226 21q297 0 449.5 -148.5t152.5 -439.5zM274 -119v-109h480v109h-480z" />
<glyph unicode="&#x1e0f;" horiz-adv-x="1198" d="M897 0h148q-8 134 -8 263v1291h-167v-638h-4q-90 165 -316 165q-204 0 -336 -159q-131 -158 -131 -409q0 -233 128 -385q127 -153 318 -153q250 0 354 209h14v-184zM870 631v-194q0 -131 -83 -227q-87 -99 -215 -99q-145 0 -232 115q-87 114 -87 297q0 191 88 307 q90 119 238 119q125 0 208 -89q83 -91 83 -229zM324 -129v-110h481v110h-481z" />
<glyph unicode="&#x1e10;" horiz-adv-x="1415" d="M1334 776q0 338 -191 519q-204 193 -591 193q-191 0 -385 -31v-1455q121 -15 331 -15q413 0 629 210q207 201 207 579zM1161 767q0 -314 -160.5 -479t-471.5 -165q-147 0 -196 9v1202q97 21 226 21q297 0 449.5 -148.5t152.5 -439.5zM372 -399l38 -81q108 7 182 59 q90 64 90 174q0 49 -26 91.5t-62 65.5l-130 -31q33 -25 55 -60.5t22 -71.5q0 -62 -47.5 -97.5t-121.5 -48.5z" />
<glyph unicode="&#x1e11;" horiz-adv-x="1198" d="M897 0h148q-8 134 -8 263v1291h-167v-638h-4q-90 165 -316 165q-204 0 -336 -159q-131 -158 -131 -409q0 -233 128 -385q127 -153 318 -153q250 0 354 209h14v-184zM870 631v-194q0 -131 -83 -227q-87 -99 -215 -99q-145 0 -232 115q-87 114 -87 297q0 191 88 307 q90 119 238 119q125 0 208 -89q83 -91 83 -229zM372 -399l38 -81q108 7 182 59q90 64 90 174q0 49 -26 91.5t-62 65.5l-130 -31q33 -25 55 -60.5t22 -71.5q0 -62 -47.5 -97.5t-121.5 -48.5z" />
<glyph unicode="&#x1e12;" horiz-adv-x="1415" d="M1334 776q0 338 -191 519q-204 193 -591 193q-191 0 -385 -31v-1455q121 -15 331 -15q413 0 629 210q207 201 207 579zM1161 767q0 -314 -160.5 -479t-471.5 -165q-147 0 -196 9v1202q97 21 226 21q297 0 449.5 -148.5t152.5 -439.5zM439 -119l-203 -308h130l127 208h5 l127 -208h134l-207 308h-113z" />
<glyph unicode="&#x1e13;" horiz-adv-x="1198" d="M897 0h148q-8 134 -8 263v1291h-167v-638h-4q-90 165 -316 165q-204 0 -336 -159q-131 -158 -131 -409q0 -233 128 -385q127 -153 318 -153q250 0 354 209h14v-184zM870 631v-194q0 -131 -83 -227q-87 -99 -215 -99q-145 0 -232 115q-87 114 -87 297q0 191 88 307 q90 119 238 119q125 0 208 -89q83 -91 83 -229zM485 -129l-203 -310h130l127 209h5l127 -209h134l-207 310h-113z" />
<glyph unicode="&#x1e14;" horiz-adv-x="1040" d="M268 2114l265 -308h120l-191 308h-194zM326 1696v-109h481v109h-481zM333 138v565h566v138h-566v498h598v138h-764v-1477h797v138h-631z" />
<glyph unicode="&#x1e15;" horiz-adv-x="1066" d="M245 1721l265 -310h121l-190 310h-196zM295 1306v-110h481v110h-481zM987 594q0 218 -112 352q-116 137 -310 137q-215 0 -349 -161q-133 -160 -133 -409q0 -240 134 -385q135 -147 370 -147q201 0 340 65l-30 121q-120 -56 -286 -56q-170 0 -266 104t-100 293h734 q8 35 8 86zM822 631h-573q16 147 97 238t204 91q130 0 201 -88t71 -241z" />
<glyph unicode="&#x1e16;" horiz-adv-x="1040" d="M475 1806h121l265 308h-194zM326 1696v-109h481v109h-481zM333 138v565h566v138h-566v498h598v138h-764v-1477h797v138h-631z" />
<glyph unicode="&#x1e17;" horiz-adv-x="1066" d="M447 1411h120l265 310h-194zM295 1306v-110h481v110h-481zM987 594q0 218 -112 352q-116 137 -310 137q-215 0 -349 -161q-133 -160 -133 -409q0 -240 134 -385q135 -147 370 -147q201 0 340 65l-30 121q-120 -56 -286 -56q-170 0 -266 104t-100 293h734q8 35 8 86z M822 631h-573q16 147 97 238t204 91q130 0 201 -88t71 -241z" />
<glyph unicode="&#x1e18;" horiz-adv-x="1040" d="M333 138v565h566v138h-566v498h598v138h-764v-1477h797v138h-631zM506 -105l-201 -309h129l127 207h4l127 -207h134l-205 309h-115z" />
<glyph unicode="&#x1e19;" horiz-adv-x="1066" d="M987 594q0 218 -112 352q-116 137 -310 137q-215 0 -349 -161q-133 -160 -133 -409q0 -240 134 -385q135 -147 370 -147q201 0 340 65l-30 121q-120 -56 -286 -56q-170 0 -266 104t-100 293h734q8 35 8 86zM822 631h-573q16 147 97 238t204 91q130 0 201 -88t71 -241z M475 -125l-201 -309h129l128 208h4l126 -208h134l-205 309h-115z" />
<glyph unicode="&#x1e1a;" horiz-adv-x="1040" d="M333 138v565h566v138h-566v498h598v138h-764v-1477h797v138h-631zM824 -105h-86q-6 -92 -56 -92q-23 0 -119 43t-118 43q-67 0 -102.5 -57t-35.5 -152h90q9 99 59 99q14 0 108 -41q94 -43 120 -43q140 2 140 200z" />
<glyph unicode="&#x1e1b;" horiz-adv-x="1066" d="M987 594q0 218 -112 352q-116 137 -310 137q-215 0 -349 -161q-133 -160 -133 -409q0 -240 134 -385q135 -147 370 -147q201 0 340 65l-30 121q-120 -56 -286 -56q-170 0 -266 104t-100 293h734q8 35 8 86zM822 631h-573q16 147 97 238t204 91q130 0 201 -88t71 -241z M793 -125h-85q-8 -92 -57 -92q-21 0 -119 44q-91 41 -118 41q-66 0 -102 -56.5t-36 -150.5h90q8 98 59 98q15 0 44 -13q30 -14 64 -29q90 -41 120 -41q140 0 140 199z" />
<glyph unicode="&#x1e1c;" horiz-adv-x="1040" d="M565 1587q-120 0 -189 69t-69 187h101q21 -153 157 -153q65 0 109.5 44t48.5 109h101q0 -119 -69.5 -187.5t-189.5 -68.5zM668 0l-72 -111q65 -9 109 -51t44 -101q0 -176 -220 -176q-85 0 -146 40l31 88q40 -22 89 -29.5t87.5 9t38.5 59.5q0 78 -171 94l103 178h-394 v1477h764v-138h-598v-498h566v-138h-566v-565h631v-138h-296z" />
<glyph unicode="&#x1e1d;" horiz-adv-x="1066" d="M535 1196q-121 0 -190 69t-69 188h101q21 -152 158 -154q64 0 108.5 44.5t48.5 109.5h101q0 -119 -70 -188t-188 -69zM987 594q0 -51 -8 -86h-734q4 -189 100 -293t266 -104q166 0 286 56l30 -121q-122 -57 -289 -64l-73 -114q65 -9 109.5 -50t44.5 -100 q0 -176 -221 -176q-84 0 -145 40l30 87q56 -31 119 -31q96 0 96 71q0 77 -171 94l105 180q-197 16 -315 145q-134 145 -134 385q0 249 133 409q134 161 349 161q194 0 310 -137q112 -134 112 -352zM249 631h573q0 153 -71 241t-201 88q-123 0 -204 -91t-97 -238z" />
<glyph unicode="&#x1e1e;" horiz-adv-x="1029" d="M648 1690q0 42 -27.5 72t-68.5 30q-44 0 -73.5 -30t-29.5 -72q0 -44 29.5 -73.5t71.5 -29.5q40 0 69 29.5t29 73.5zM167 1477v-1477h166v682h550v138h-550v519h596v138h-762z" />
<glyph unicode="&#x1e1f;" horiz-adv-x="613" d="M602 1790q0 43 -27.5 73t-68.5 30q-44 0 -73.5 -30t-29.5 -73q0 -44 29.5 -73.5t71.5 -29.5q40 0 69 29.5t29 73.5zM679 1416l26 129q-65 33 -159 33q-173 0 -270.5 -122t-97.5 -345v-53h-147v-129h147v-929h169v929h255v129h-257v57q-1 325 209 325q63 0 125 -24z" />
<glyph unicode="&#x1e20;" horiz-adv-x="1371" d="M585 1711v-109h480v109h-480zM782 763v-134h303v-464q-81 -42 -259 -42q-264 0 -417 164q-154 165 -154 451q0 143 42 257q84 228 308 315q105 44 269.5 41t288.5 -61l44 136q-135 67 -352 67q-346 0 -564 -215q-103 -101 -157.5 -241t-54.5 -307q0 -177 52 -314 q101 -275 378 -379q93 -36 210.5 -48t258 5.5t271.5 68.5v700h-467z" />
<glyph unicode="&#x1e21;" horiz-adv-x="1191" d="M322 1304v-110h480v110h-480zM883 897h-5q-96 184 -326 184q-190 0 -322 -143q-147 -154 -147 -417q0 -226 125.5 -372.5t317.5 -146.5q233 0 335 182h5v-125q-2 -383 -343 -383q-167 0 -304 83l-46 -129q128 -86 342 -86q233 0 370 125q148 133 148 484v616q0 155 8 289 h-149zM866 648v-205q0 -50 -17 -104q-32 -97 -106 -151t-168 -54q-150 -1 -236 110t-86 289q0 187 88 302q89 114 236 114q122 0 205.5 -88.5t83.5 -212.5z" />
<glyph unicode="&#x1e22;" horiz-adv-x="1386" d="M793 1690q0 42 -27.5 72t-68.5 30q-44 0 -73.5 -30t-29.5 -72q0 -44 29 -73.5t71 -29.5q40 0 69.5 29.5t29.5 73.5zM1054 1477v-628h-721v628h-166v-1477h166v705h721v-705h167v1477h-167z" />
<glyph unicode="&#x1e23;" horiz-adv-x="1182" d="M694 1767q0 42 -27.5 72t-68.5 30q-44 0 -73.5 -30t-29.5 -72q0 -44 29.5 -74t71.5 -30q40 0 69 30t29 74zM1028 0v638q0 209 -97.5 326t-263.5 117q-102 0 -193 -52t-141 -140h-5v665h-165v-1554h165v644q0 120 85 210q84 89 196 89q250 0 250 -325v-618h169z" />
<glyph unicode="&#x1e24;" horiz-adv-x="1386" d="M1054 1477v-628h-721v628h-166v-1477h166v705h721v-705h167v1477h-167zM793 -209q0 43 -27.5 73.5t-68.5 30.5q-44 0 -73.5 -30.5t-29.5 -73.5q0 -44 29 -73t71 -29q40 0 69.5 29.5t29.5 72.5z" />
<glyph unicode="&#x1e25;" horiz-adv-x="1182" d="M1028 0v638q0 209 -97.5 326t-263.5 117q-102 0 -193 -52t-141 -140h-5v665h-165v-1554h165v644q0 120 85 210q84 89 196 89q250 0 250 -325v-618h169zM694 -209q0 43 -27.5 73.5t-68.5 30.5q-44 0 -73.5 -30.5t-29.5 -73.5q0 -44 29.5 -73t71.5 -29q40 0 69 29t29 73z " />
<glyph unicode="&#x1e26;" horiz-adv-x="1386" d="M596 1690q0 42 -27.5 72t-68.5 30q-42 0 -71.5 -30t-29.5 -72q0 -43 28 -73t71 -30t70.5 29.5t27.5 73.5zM987 1690q0 42 -28.5 72t-71.5 30q-41 0 -71 -30.5t-30 -71.5q0 -42 28.5 -72.5t70.5 -30.5q44 0 73 29.5t29 73.5zM1054 1477v-628h-721v628h-166v-1477h166v705 h721v-705h167v1477h-167z" />
<glyph unicode="&#x1e27;" horiz-adv-x="1182" d="M498 1767q0 42 -28 72t-69 30t-70.5 -30.5t-29.5 -71.5q0 -43 27.5 -73.5t70.5 -30.5q44 0 71.5 29.5t27.5 74.5zM887 1767q0 42 -28 72t-70 30t-71.5 -30t-29.5 -72t28.5 -73t69.5 -31q44 0 72.5 29.5t28.5 74.5zM1028 0v638q0 209 -97.5 326t-263.5 117 q-102 0 -193 -52t-141 -140h-5v665h-165v-1554h165v644q0 120 85 210q84 89 196 89q250 0 250 -325v-618h169z" />
<glyph unicode="&#x1e28;" horiz-adv-x="1386" d="M1221 1477v-1477h-167v705h-721v-701h4l-74 -115q65 -9 109 -51t44 -101q0 -176 -221 -176q-84 0 -145 40l31 88q40 -22 89 -29.5t87 9t38 59.5q0 77 -170 94l103 178h-61v1477h166v-628h721v628h167z" />
<glyph unicode="&#x1e29;" horiz-adv-x="1182" d="M667 1081q166 0 263.5 -117t97.5 -326v-638h-169v618q0 325 -250 325q-112 0 -196 -89q-85 -90 -85 -210v-640h5l-74 -115q65 -9 109 -51t44 -101q0 -176 -222 -176q-83 0 -144 40l31 88q40 -22 89 -29.5t87 9t38 59.5q0 77 -170 94l103 178h-61v1554h165v-665h5 q50 88 141 140t193 52z" />
<glyph unicode="&#x1e2a;" horiz-adv-x="1386" d="M1054 1477v-628h-721v628h-166v-1477h166v705h721v-705h167v1477h-167zM951 -105h-100q-5 -65 -49.5 -109.5t-109.5 -44.5q-136 1 -157 154h-101q0 -119 69 -188t189 -69q119 0 189 69t70 188z" />
<glyph unicode="&#x1e2b;" horiz-adv-x="1182" d="M1028 0v638q0 209 -97.5 326t-263.5 117q-102 0 -193 -52t-141 -140h-5v665h-165v-1554h165v644q0 120 85 210q84 89 196 89q250 0 250 -325v-618h169zM853 -105h-102q-4 -65 -48.5 -109.5t-108.5 -44.5q-136 1 -157 154h-102q0 -119 69 -188t190 -69q119 0 189 69 t70 188z" />
<glyph unicode="&#x1e2c;" horiz-adv-x="500" d="M167 1477v-1477h166v1477h-166zM513 -105h-86q-6 -92 -57 -92q-22 0 -118 43t-118 43q-67 0 -102.5 -57t-35.5 -152h90q8 99 58 99q12 0 108 -41q96 -43 120 -43q141 1 141 200z" />
<glyph unicode="&#x1e2d;" horiz-adv-x="490" d="M357 1376q3 48 -29.5 81.5t-82.5 33.5q-48 0 -79.5 -33.5t-31.5 -81.5q0 -50 31.5 -81.5t77.5 -31.5q50 0 82 31.5t32 81.5zM163 1058v-1058h165v1058h-165zM508 -105h-85q-8 -92 -57 -92q-22 0 -118 43t-119 43q-67 0 -102.5 -57t-35.5 -152h90q9 99 59 99q14 0 108 -41 q94 -43 120 -43q140 2 140 200z" />
<glyph unicode="&#x1e2e;" horiz-adv-x="500" d="M140 1902h121l265 309h-195zM157 1690q0 42 -27.5 72t-68.5 30q-42 0 -71.5 -30t-29.5 -72q0 -43 28 -73t71 -30q44 0 71 29t27 74zM548 1690q0 42 -28 72t-71 30q-41 0 -70.5 -30.5t-29.5 -71.5q0 -42 28.5 -72.5t69.5 -30.5q44 0 72.5 29.5t28.5 73.5zM167 1477v-1477 h166v1477h-166z" />
<glyph unicode="&#x1e2f;" horiz-adv-x="490" d="M169 1483h120l265 309h-194zM153 1275q0 43 -27.5 73t-68.5 30q-42 0 -71.5 -30.5t-29.5 -72.5t28 -72t71 -30q42 0 70 29.5t28 72.5zM544 1275q0 43 -28 73t-71 30q-42 0 -71 -30.5t-29 -72.5t28.5 -72t69.5 -30q44 0 72.5 29.5t28.5 72.5zM163 1058v-1058h165v1058 h-165z" />
<glyph unicode="&#x1e30;" horiz-adv-x="1141" d="M471 1587h121l265 309h-196zM1120 1477h-204l-458 -563q-63 -75 -119 -158h-6v721h-166v-1477h166v577l140 161l493 -738h197l-573 851z" />
<glyph unicode="&#x1e31;" horiz-adv-x="983" d="M387 1663h121l266 309h-195zM947 1058h-202l-320 -372q-56 -68 -92 -121h-5v989h-165v-1554h165v410l99 109l373 -519h202l-461 621z" />
<glyph unicode="&#x1e32;" horiz-adv-x="1141" d="M1120 1477h-204l-458 -563q-63 -75 -119 -158h-6v721h-166v-1477h166v577l140 161l493 -738h197l-573 851zM686 -209q0 43 -27.5 73.5t-68.5 30.5q-44 0 -73.5 -30.5t-29.5 -73.5q0 -44 29 -73t71 -29q41 0 70 29.5t29 72.5z" />
<glyph unicode="&#x1e33;" horiz-adv-x="983" d="M947 1058h-202l-320 -372q-56 -68 -92 -121h-5v989h-165v-1554h165v410l99 109l373 -519h202l-461 621zM625 -209q0 43 -27.5 73.5t-68.5 30.5q-44 0 -74 -30.5t-30 -73.5q0 -44 29.5 -73t71.5 -29q40 0 69.5 29.5t29.5 72.5z" />
<glyph unicode="&#x1e34;" horiz-adv-x="1141" d="M1120 1477h-204l-458 -563q-63 -75 -119 -158h-6v721h-166v-1477h166v577l140 161l493 -738h197l-573 851zM425 -105v-110h480v110h-480z" />
<glyph unicode="&#x1e35;" horiz-adv-x="983" d="M947 1058h-202l-320 -372q-56 -68 -92 -121h-5v989h-165v-1554h165v410l99 109l373 -519h202l-461 621zM341 -105v-110h481v110h-481z" />
<glyph unicode="&#x1e36;" horiz-adv-x="1000" d="M333 140v1337h-166v-1477h791v140h-625zM661 -209q0 43 -27.5 73.5t-68.5 30.5q-44 0 -73.5 -30.5t-29.5 -73.5q0 -44 29.5 -73t71.5 -29q40 0 69 29.5t29 72.5z" />
<glyph unicode="&#x1e37;" horiz-adv-x="490" d="M163 1554v-1554h165v1554h-165zM351 -209q0 43 -27.5 73.5t-68.5 30.5q-44 0 -74 -30.5t-30 -73.5q0 -44 29.5 -73t72.5 -29q39 0 68.5 29.5t29.5 72.5z" />
<glyph unicode="&#x1e38;" horiz-adv-x="1000" d="M322 1696v-109h480v109h-480zM333 140v1337h-166v-1477h791v140h-625zM661 -209q0 43 -27.5 73.5t-68.5 30.5q-44 0 -73.5 -30.5t-29.5 -73.5q0 -44 29.5 -73t71.5 -29q40 0 69 29.5t29 72.5z" />
<glyph unicode="&#x1e39;" horiz-adv-x="490" d="M11 1773v-110h480v110h-480zM163 1554v-1554h165v1554h-165zM351 -209q0 43 -27.5 73.5t-68.5 30.5q-44 0 -74 -30.5t-30 -73.5q0 -44 29.5 -73t72.5 -29q39 0 68.5 29.5t29.5 72.5z" />
<glyph unicode="&#x1e3a;" horiz-adv-x="1000" d="M333 140v1337h-166v-1477h791v140h-625zM322 -105v-110h480v110h-480z" />
<glyph unicode="&#x1e3b;" horiz-adv-x="490" d="M163 1554v-1554h165v1554h-165zM11 -105v-110h480v110h-480z" />
<glyph unicode="&#x1e3c;" horiz-adv-x="1000" d="M333 140v1337h-166v-1477h791v140h-625zM502 -105l-201 -309h128l127 207h5l127 -207h134l-207 309h-113z" />
<glyph unicode="&#x1e3d;" horiz-adv-x="490" d="M163 1554v-1554h165v1554h-165zM190 -105l-201 -309h130l126 207h4l128 -207h133l-205 309h-115z" />
<glyph unicode="&#x1e3e;" horiz-adv-x="1715" d="M778 1587h121l264 309h-195zM1288 1477l-274 -749q-102 -281 -157 -494h-4q-55 217 -152 496l-262 747h-209l-101 -1477h158l39 646q25 381 29 656h7q56 -238 171 -572l249 -724h123l270 739q87 237 184 557h6v-37q0 -150 24 -604l37 -661h163l-92 1477h-209z" />
<glyph unicode="&#x1e3f;" horiz-adv-x="1785" d="M811 1190h120l265 309h-194zM1633 0v629q0 211 -92 331.5t-251 120.5q-232 0 -347 -213h-5q-33 99 -111.5 156t-182.5 57q-217 -1 -328 -196h-15v173h-148q10 -198 10 -276v-782h163v644q0 116 76 206q78 93 188 93q108 0 166.5 -80.5t58.5 -216.5v-646h164v661 q0 113 72 196q75 86 181 86q236 -2 236 -336v-607h165z" />
<glyph unicode="&#x1e40;" horiz-adv-x="1715" d="M960 1690q0 42 -28 72t-69 30q-42 0 -72 -30t-30 -72q0 -44 29 -73.5t71 -29.5q40 0 69.5 29.5t29.5 73.5zM1288 1477l-274 -749q-102 -281 -157 -494h-4q-55 217 -152 496l-262 747h-209l-101 -1477h158l39 646q25 381 29 656h7q56 -238 171 -572l249 -724h123l270 739 q87 237 184 557h6v-37q0 -150 24 -604l37 -661h163l-92 1477h-209z" />
<glyph unicode="&#x1e41;" horiz-adv-x="1785" d="M1033 1297q0 43 -28.5 73.5t-69.5 30.5q-42 0 -72.5 -31t-30.5 -73q0 -44 29.5 -73.5t71.5 -29.5q41 0 70.5 30t29.5 73zM1633 0v629q0 211 -92 331.5t-251 120.5q-232 0 -347 -213h-5q-33 99 -111.5 156t-182.5 57q-217 -1 -328 -196h-15v173h-148q10 -198 10 -276v-782 h163v644q0 116 76 206q78 93 188 93q108 0 166.5 -80.5t58.5 -216.5v-646h164v661q0 113 72 196q75 86 181 86q236 -2 236 -336v-607h165z" />
<glyph unicode="&#x1e42;" horiz-adv-x="1715" d="M1288 1477l-274 -749q-102 -281 -157 -494h-4q-55 217 -152 496l-262 747h-209l-101 -1477h158l39 646q25 381 29 656h7q56 -238 171 -572l249 -724h123l270 739q87 237 184 557h6v-37q0 -150 24 -604l37 -661h163l-92 1477h-209zM960 -209q0 43 -28 73.5t-69 30.5 q-42 0 -72 -31t-30 -73q0 -44 29 -73t71 -29q41 0 70 29.5t29 72.5z" />
<glyph unicode="&#x1e43;" horiz-adv-x="1785" d="M1633 0v629q0 211 -92 331.5t-251 120.5q-232 0 -347 -213h-5q-33 99 -111.5 156t-182.5 57q-217 -1 -328 -196h-15v173h-148q10 -198 10 -276v-782h163v644q0 116 76 206q78 93 188 93q108 0 166.5 -80.5t58.5 -216.5v-646h164v661q0 113 72 196q75 86 181 86 q236 -2 236 -336v-607h165zM993 -209q0 43 -27.5 73.5t-68.5 30.5q-44 0 -74 -30.5t-30 -73.5q0 -44 29.5 -73t72.5 -29q39 0 68.5 29.5t29.5 72.5z" />
<glyph unicode="&#x1e44;" horiz-adv-x="1401" d="M800 1690q0 42 -28 72t-69 30q-44 0 -73.5 -30t-29.5 -72q0 -44 29.5 -73.5t71.5 -29.5q40 0 69.5 30t29.5 73zM1079 1477v-645q0 -376 19 -608l-4 -3q-106 225 -264 480l-485 776h-178v-1477h157v655q0 420 -15 610l7 2q89 -195 271 -491l482 -776h165v1477h-155z" />
<glyph unicode="&#x1e45;" horiz-adv-x="1182" d="M745 1297q0 43 -28 73.5t-69 30.5q-42 0 -72 -31t-30 -73q0 -44 29 -73.5t71 -29.5q40 0 69.5 29.5t29.5 73.5zM1028 0v638q0 204 -98.5 323.5t-265.5 119.5q-115 0 -208 -54.5t-138 -143.5h-15v175h-150q10 -198 10 -276v-782h165v644q0 124 83 212q81 87 198 87 q250 0 250 -325v-618h169z" />
<glyph unicode="&#x1e46;" horiz-adv-x="1401" d="M1079 1477v-645q0 -376 19 -608l-4 -3q-106 225 -264 480l-485 776h-178v-1477h157v655q0 420 -15 610l7 2q89 -195 271 -491l482 -776h165v1477h-155zM800 -209q0 43 -28 73.5t-69 30.5q-44 0 -73.5 -30.5t-29.5 -73.5q0 -44 29.5 -73t71.5 -29q40 0 69.5 29.5 t29.5 72.5z" />
<glyph unicode="&#x1e47;" horiz-adv-x="1182" d="M1028 0v638q0 204 -98.5 323.5t-265.5 119.5q-115 0 -208 -54.5t-138 -143.5h-15v175h-150q10 -198 10 -276v-782h165v644q0 124 83 212q81 87 198 87q250 0 250 -325v-618h169zM690 -209q0 43 -27.5 73.5t-68.5 30.5q-44 0 -73.5 -30.5t-29.5 -73.5q0 -44 29.5 -73 t71.5 -29q40 0 69 29.5t29 72.5z" />
<glyph unicode="&#x1e48;" horiz-adv-x="1401" d="M1079 1477v-645q0 -376 19 -608l-4 -3q-106 225 -264 480l-485 776h-178v-1477h157v655q0 420 -15 610l7 2q89 -195 271 -491l482 -776h165v1477h-155zM460 -105v-110h481v110h-481z" />
<glyph unicode="&#x1e49;" horiz-adv-x="1182" d="M1028 0v638q0 204 -98.5 323.5t-265.5 119.5q-115 0 -208 -54.5t-138 -143.5h-15v175h-150q10 -198 10 -276v-782h165v644q0 124 83 212q81 87 198 87q250 0 250 -325v-618h169zM351 -105v-110h479v110h-479z" />
<glyph unicode="&#x1e4a;" horiz-adv-x="1401" d="M1079 1477v-645q0 -376 19 -608l-4 -3q-106 225 -264 480l-485 776h-178v-1477h157v655q0 420 -15 610l7 2q89 -195 271 -491l482 -776h165v1477h-155zM640 -105l-201 -309h128l127 207h5l127 -207h134l-206 309h-114z" />
<glyph unicode="&#x1e4b;" horiz-adv-x="1182" d="M1028 0v638q0 204 -98.5 323.5t-265.5 119.5q-115 0 -208 -54.5t-138 -143.5h-15v175h-150q10 -198 10 -276v-782h165v644q0 124 83 212q81 87 198 87q250 0 250 -325v-618h169zM531 -105l-203 -309h130l127 207h5l127 -207h134l-207 309h-113z" />
<glyph unicode="&#x1e4c;" horiz-adv-x="1461" d="M648 1935h121l266 309h-196zM989 1825h-86q-6 -92 -57 -92q-16 0 -118 43t-119 43q-67 0 -102.5 -57t-35.5 -152h90q9 99 60 99q13 0 42 -13q16 -8 65 -28q94 -42 121 -42q140 0 140 199zM1382 754q0 330 -174 539q-83 99 -204 153.5t-264 54.5q-142 0 -264 -56.5 t-210 -159.5q-89 -104 -138 -247.5t-49 -312.5q0 -330 180 -537q88 -102 206.5 -157.5t257.5 -55.5q294 0 479 218q180 213 180 561zM1205 745q0 -274 -130 -451q-65 -87 -153.5 -135t-193.5 -48q-102 0 -190.5 48t-152.5 133q-132 173 -132 438q0 279 132 457 q63 85 152 131.5t195 46.5q208 0 341 -178q132 -180 132 -442z" />
<glyph unicode="&#x1e4d;" horiz-adv-x="1167" d="M495 1514h120l266 309h-195zM841 1409h-85q-8 -92 -57 -92q-22 0 -118 43t-119 43q-65 0 -101.5 -57.5t-36.5 -151.5h90q9 99 59 99q14 0 108 -41q94 -43 120 -43q140 2 140 200zM1085 539q0 240 -135 389q-139 153 -358 153q-110 0 -205 -41.5t-163 -115.5 q-141 -154 -141 -403q0 -238 137 -391q139 -155 355 -155q222 0 367 159q143 157 143 405zM912 533q0 -179 -94 -304q-93 -124 -237 -124q-71 0 -133 33.5t-105 91.5q-90 122 -90 296q0 186 89 305q93 122 243 122q145 0 238 -121q89 -116 89 -299z" />
<glyph unicode="&#x1e4e;" horiz-adv-x="1461" d="M633 2038q0 43 -27.5 73t-68.5 30q-42 0 -71 -30.5t-29 -72.5q0 -43 27.5 -73t70.5 -30q44 0 71 29t27 74zM1023 2038q0 43 -28 73t-71 30q-41 0 -70.5 -30.5t-29.5 -72.5t28.5 -72.5t69.5 -30.5q44 0 72.5 29.5t28.5 73.5zM989 1825h-86q-6 -92 -57 -92q-16 0 -118 43 t-119 43q-67 0 -102.5 -57t-35.5 -152h90q9 99 60 99q13 0 42 -13q16 -8 65 -28q94 -42 121 -42q140 0 140 199zM1382 754q0 330 -174 539q-83 99 -204 153.5t-264 54.5q-142 0 -264 -56.5t-210 -159.5q-89 -104 -138 -247.5t-49 -312.5q0 -330 180 -537 q88 -102 206.5 -157.5t257.5 -55.5q294 0 479 218q180 213 180 561zM1205 745q0 -274 -130 -451q-65 -87 -153.5 -135t-193.5 -48q-102 0 -190.5 48t-152.5 133q-132 173 -132 438q0 279 132 457q63 85 152 131.5t195 46.5q208 0 341 -178q132 -180 132 -442z" />
<glyph unicode="&#x1e4f;" horiz-adv-x="1167" d="M487 1617q0 42 -27.5 73t-68.5 31q-42 0 -72 -31t-30 -73q0 -43 27.5 -73t70.5 -30q44 0 72 29t28 74zM876 1617q0 43 -27.5 73.5t-70.5 30.5q-42 0 -71.5 -31t-29.5 -73t29 -72.5t70 -30.5q44 0 72 29t28 74zM841 1409h-85q-8 -92 -57 -92q-22 0 -118 43t-119 43 q-65 0 -101.5 -57.5t-36.5 -151.5h90q9 99 59 99q14 0 108 -41q94 -43 120 -43q140 2 140 200zM1085 539q0 240 -135 389q-139 153 -358 153q-110 0 -205 -41.5t-163 -115.5q-141 -154 -141 -403q0 -238 137 -391q139 -155 355 -155q222 0 367 159q143 157 143 405zM912 533 q0 -179 -94 -304q-93 -124 -237 -124q-71 0 -133 33.5t-105 91.5q-90 122 -90 296q0 186 89 305q93 122 243 122q145 0 238 -121q89 -116 89 -299z" />
<glyph unicode="&#x1e50;" horiz-adv-x="1461" d="M443 2139l265 -309h120l-190 309h-195zM491 1721v-111h479v111h-479zM1382 754q0 330 -174 539q-83 99 -204 153.5t-264 54.5q-142 0 -264 -56.5t-210 -159.5q-89 -104 -138 -247.5t-49 -312.5q0 -330 180 -537q88 -102 206.5 -157.5t257.5 -55.5q294 0 479 218 q180 213 180 561zM1205 745q0 -274 -130 -451q-65 -87 -153.5 -135t-193.5 -48q-102 0 -190.5 48t-152.5 133q-132 173 -132 438q0 279 132 457q63 85 152 131.5t195 46.5q208 0 341 -178q132 -180 132 -442z" />
<glyph unicode="&#x1e51;" horiz-adv-x="1167" d="M293 1718l266 -309h120l-190 309h-196zM345 1304v-110h479v110h-479zM1085 539q0 240 -135 389q-139 153 -358 153q-110 0 -205 -41.5t-163 -115.5q-141 -154 -141 -403q0 -238 137 -391q139 -155 355 -155q222 0 367 159q143 157 143 405zM912 533q0 -179 -94 -304 q-93 -124 -237 -124q-71 0 -133 33.5t-105 91.5q-90 122 -90 296q0 186 89 305q93 122 243 122q145 0 238 -121q89 -116 89 -299z" />
<glyph unicode="&#x1e52;" horiz-adv-x="1461" d="M640 1830h121l264 309h-195zM491 1721v-111h479v111h-479zM1382 754q0 330 -174 539q-83 99 -204 153.5t-264 54.5q-142 0 -264 -56.5t-210 -159.5q-89 -104 -138 -247.5t-49 -312.5q0 -330 180 -537q88 -102 206.5 -157.5t257.5 -55.5q294 0 479 218q180 213 180 561z M1205 745q0 -274 -130 -451q-65 -87 -153.5 -135t-193.5 -48q-102 0 -190.5 48t-152.5 133q-132 173 -132 438q0 279 132 457q63 85 152 131.5t195 46.5q208 0 341 -178q132 -180 132 -442z" />
<glyph unicode="&#x1e53;" horiz-adv-x="1167" d="M495 1409h120l266 309h-195zM345 1304v-110h479v110h-479zM1085 539q0 240 -135 389q-139 153 -358 153q-110 0 -205 -41.5t-163 -115.5q-141 -154 -141 -403q0 -238 137 -391q139 -155 355 -155q222 0 367 159q143 157 143 405zM912 533q0 -179 -94 -304 q-93 -124 -237 -124q-71 0 -133 33.5t-105 91.5q-90 122 -90 296q0 186 89 305q93 122 243 122q145 0 238 -121q89 -116 89 -299z" />
<glyph unicode="&#x1e54;" horiz-adv-x="1127" d="M410 1598h121l264 309h-195zM1039 1063q0 199 -136 312t-390 113q-194 0 -346 -29v-1459h166v605q47 -15 156 -15q250 0 397 121q153 127 153 352zM872 1052q0 -156 -100.5 -242.5t-278.5 -86.5q-94 0 -160 17v599q61 16 182 16q168 0 262.5 -77.5t94.5 -225.5z" />
<glyph unicode="&#x1e55;" horiz-adv-x="1211" d="M598 1190h121l265 309h-195zM1129 544q0 239 -125 388q-60 71 -141.5 110t-174.5 39q-252 0 -370 -207h-13v184h-152q10 -226 10 -341v-1151h165v581h5q100 -172 324 -172q207 0 341 159q131 158 131 410zM960 537q0 -198 -89 -313t-240 -115q-130 0 -217 94 q-86 91 -86 222v193q0 140 97 237q92 92 213 92q144 0 234 -116q88 -115 88 -294z" />
<glyph unicode="&#x1e56;" horiz-adv-x="1127" d="M605 1700q0 43 -28 73.5t-69 30.5q-44 0 -73 -30.5t-29 -73.5q0 -44 29 -73t71 -29q40 0 69.5 29t29.5 73zM1039 1063q0 199 -136 312t-390 113q-194 0 -346 -29v-1459h166v605q47 -15 156 -15q250 0 397 121q153 127 153 352zM872 1052q0 -156 -100.5 -242.5 t-278.5 -86.5q-94 0 -160 17v599q61 16 182 16q168 0 262.5 -77.5t94.5 -225.5z" />
<glyph unicode="&#x1e57;" horiz-adv-x="1211" d="M740 1297q0 43 -27.5 73.5t-68.5 30.5q-44 0 -73.5 -30.5t-29.5 -73.5q0 -44 29.5 -73.5t71.5 -29.5q40 0 69 29.5t29 73.5zM1129 544q0 239 -125 388q-60 71 -141.5 110t-174.5 39q-252 0 -370 -207h-13v184h-152q10 -226 10 -341v-1151h165v581h5q100 -172 324 -172 q207 0 341 159q131 158 131 410zM960 537q0 -198 -89 -313t-240 -115q-130 0 -217 94q-86 91 -86 222v193q0 140 97 237q92 92 213 92q144 0 234 -116q88 -115 88 -294z" />
<glyph unicode="&#x1e58;" horiz-adv-x="1138" d="M598 1700q0 43 -27.5 73.5t-68.5 30.5q-44 0 -73.5 -30.5t-29.5 -73.5q0 -44 29.5 -73t71.5 -29q40 0 69 29.5t29 72.5zM916 0h173q-36 66 -112 401q-55 250 -218 304v8q278 95 278 378q0 198 -133.5 297.5t-390.5 99.5q-186 0 -346 -31v-1457h166v651h186 q130 0 198.5 -68t104.5 -228q33 -161 55 -239q24 -88 39 -116zM870 1069q0 -133 -91.5 -212t-247.5 -79h-198v563q57 16 188 16q349 -1 349 -288z" />
<glyph unicode="&#x1e59;" horiz-adv-x="685" d="M506 1297q0 43 -27.5 73.5t-68.5 30.5q-44 0 -73.5 -30.5t-29.5 -73.5q0 -44 29.5 -73.5t71.5 -29.5q40 0 69 29.5t29 73.5zM657 918v158q-19 5 -50 5q-98 0 -176 -62t-115 -168h-13v207h-148q8 -123 8 -322v-736h165v572q0 155 76 252q76 98 192 98q38 0 61 -4z" />
<glyph unicode="&#x1e5a;" horiz-adv-x="1138" d="M916 0h173q-36 66 -112 401q-55 250 -218 304v8q278 95 278 378q0 198 -133.5 297.5t-390.5 99.5q-186 0 -346 -31v-1457h166v651h186q130 0 198.5 -68t104.5 -228q33 -161 55 -239q24 -88 39 -116zM870 1069q0 -133 -91.5 -212t-247.5 -79h-198v563q57 16 188 16 q349 -1 349 -288zM664 -209q0 43 -28 73.5t-69 30.5q-44 0 -73.5 -30.5t-29.5 -73.5q0 -44 29.5 -73t71.5 -29q41 0 70 29.5t29 72.5z" />
<glyph unicode="&#x1e5b;" horiz-adv-x="685" d="M657 918v158q-19 5 -50 5q-98 0 -176 -62t-115 -168h-13v207h-148q8 -123 8 -322v-736h165v572q0 155 76 252q76 98 192 98q38 0 61 -4zM337 -209q0 43 -27.5 73.5t-68.5 30.5q-44 0 -73.5 -30.5t-29.5 -73.5q0 -44 29.5 -73t71.5 -29q40 0 69 29.5t29 72.5z" />
<glyph unicode="&#x1e5c;" horiz-adv-x="1138" d="M291 1707v-109h480v109h-480zM916 0h173q-36 66 -112 401q-55 250 -218 304v8q278 95 278 378q0 198 -133.5 297.5t-390.5 99.5q-186 0 -346 -31v-1457h166v651h186q130 0 198.5 -68t104.5 -228q33 -161 55 -239q24 -88 39 -116zM870 1069q0 -133 -91.5 -212t-247.5 -79 h-198v563q57 16 188 16q349 -1 349 -288zM631 -209q0 43 -27.5 73.5t-68.5 30.5q-44 0 -74 -30.5t-30 -73.5q0 -44 29.5 -73t72.5 -29q40 0 69 29.5t29 72.5z" />
<glyph unicode="&#x1e5d;" horiz-adv-x="685" d="M167 1304v-110h479v110h-479zM657 918v158q-19 5 -50 5q-98 0 -176 -62t-115 -168h-13v207h-148q8 -123 8 -322v-736h165v572q0 155 76 252q76 98 192 98q38 0 61 -4zM347 -209q0 43 -28.5 73.5t-69.5 30.5q-42 0 -72 -31t-30 -73q0 -44 29 -73t71 -29q41 0 70.5 29.5 t29.5 72.5z" />
<glyph unicode="&#x1e5e;" horiz-adv-x="1138" d="M916 0h173q-36 66 -112 401q-55 250 -218 304v8q278 95 278 378q0 198 -133.5 297.5t-390.5 99.5q-186 0 -346 -31v-1457h166v651h186q130 0 198.5 -68t104.5 -228q33 -161 55 -239q24 -88 39 -116zM870 1069q0 -133 -91.5 -212t-247.5 -79h-198v563q57 16 188 16 q349 -1 349 -288zM387 -105v-110h481v110h-481z" />
<glyph unicode="&#x1e5f;" horiz-adv-x="685" d="M657 918v158q-19 5 -50 5q-98 0 -176 -62t-115 -168h-13v207h-148q8 -123 8 -322v-736h165v572q0 155 76 252q76 98 192 98q38 0 61 -4zM167 -105v-110h479v110h-479z" />
<glyph unicode="&#x1e60;" horiz-adv-x="1042" d="M669 1711q0 43 -28 73.5t-69 30.5q-42 0 -72.5 -31t-30.5 -73q0 -43 29.5 -73t70.5 -30t70.5 30t29.5 73zM949 397q0 151 -85.5 253t-282.5 180q-174 73 -230 134q-62 66 -62 165q0 105 79 169q78 63 222 62t251 -67l51 135q-124 71 -311 71q-200 0 -329 -110t-129 -283 q0 -274 379 -416q151 -57 214.5 -126.5t63.5 -180.5q0 -121 -84.5 -192.5t-233.5 -71.5q-180 0 -326 92l-46 -138q133 -94 362 -94t362 113q135 115 135 305z" />
<glyph unicode="&#x1e61;" horiz-adv-x="838" d="M572 1297q0 43 -28 73.5t-69 30.5q-44 0 -73.5 -30.5t-29.5 -73.5q0 -44 29.5 -73.5t71.5 -29.5q40 0 69.5 29.5t29.5 73.5zM749 291q0 211 -272 318q-111 41 -156 86t-45 105q0 68 49 110.5t133 42.5q117 0 211 -61l46 124q-104 65 -251 65q-157 0 -252 -87t-95 -216 q-2 -188 270 -295q113 -44 156.5 -90t43.5 -119q0 -78 -57 -123.5t-156 -45.5q-131 0 -245 75l-43 -130q119 -71 284 -71q177 0 278 83.5t101 228.5z" />
</font>
</defs>
</svg>
